<svg version="1.1" viewBox="0.0 0.0 600.0 371.0" fill="none" stroke="none" stroke-linecap="square" stroke-miterlimit="10" width="600" height="371" xmlns:xlink="http://www.w3.org/1999/xlink" xmlns="http://www.w3.org/2000/svg"><path fill="#ffffff" d="M0 0L600.0 0L600.0 371.0L0 371.0L0 0Z" fill-rule="nonzero"/><path stroke="#333333" stroke-width="1.0" stroke-linecap="butt" d="M84.5 61.5L84.5 300.5" fill-rule="nonzero"/><path stroke="#cccccc" stroke-width="1.0" stroke-linecap="butt" d="M186.5 61.5L186.5 300.5" fill-rule="nonzero"/><path stroke="#cccccc" stroke-width="1.0" stroke-linecap="butt" d="M288.5 61.5L288.5 300.5" fill-rule="nonzero"/><path stroke="#cccccc" stroke-width="1.0" stroke-linecap="butt" d="M390.5 61.5L390.5 300.5" fill-rule="nonzero"/><path stroke="#cccccc" stroke-width="1.0" stroke-linecap="butt" d="M492.5 61.5L492.5 300.5" fill-rule="nonzero"/><path stroke="#cccccc" stroke-width="1.0" stroke-linecap="butt" d="M77.5 300.5L581.5 300.5" fill-rule="nonzero"/><path stroke="#cccccc" stroke-width="1.0" stroke-linecap="butt" d="M77.5 252.5L581.5 252.5" fill-rule="nonzero"/><path stroke="#cccccc" stroke-width="1.0" stroke-linecap="butt" d="M77.5 205.5L581.5 205.5" fill-rule="nonzero"/><path stroke="#cccccc" stroke-width="1.0" stroke-linecap="butt" d="M77.5 157.5L581.5 157.5" fill-rule="nonzero"/><path stroke="#cccccc" stroke-width="1.0" stroke-linecap="butt" d="M77.5 109.5L581.5 109.5" fill-rule="nonzero"/><path stroke="#cccccc" stroke-width="1.0" stroke-linecap="butt" d="M77.5 61.5L581.5 61.5" fill-rule="nonzero"/><clipPath id="id_0"><path d="M77.55 61.916668L581.45 61.916668L581.45 300.45L77.55 300.45L77.55 61.916668Z" clip-rule="nonzero"/></clipPath><path fill="#4285f4" clip-path="url(#id_0)" d="M88.86077 261.2364C88.86077 263.72168 86.846054 265.7364 84.36077 265.7364C81.875496 265.7364 79.86077 263.72168 79.86077 261.2364C79.86077 258.75113 81.875496 256.7364 84.36077 256.7364C86.846054 256.7364 88.86077 258.75113 88.86077 261.2364Z" fill-rule="nonzero"/><path fill="#4285f4" clip-path="url(#id_0)" d="M109.28904 245.30223C109.28904 247.78752 107.27432 249.80223 104.78904 249.80223C102.303764 249.80223 100.28904 247.78752 100.28904 245.30223C100.28904 242.81696 102.303764 240.80223 104.78904 240.80223C107.27432 240.80223 109.28904 242.81696 109.28904 245.30223Z" fill-rule="nonzero"/><path fill="#4285f4" clip-path="url(#id_0)" d="M129.71732 237.59233C129.71732 240.0776 127.70259 242.09233 125.217316 242.09233C122.73203 242.09233 120.717316 240.0776 120.717316 237.59233C120.717316 235.10706 122.73203 233.09233 125.217316 233.09233C127.70259 233.09233 129.71732 235.10706 129.71732 237.59233Z" fill-rule="nonzero"/><path fill="#4285f4" clip-path="url(#id_0)" d="M150.14558 215.52495C150.14558 218.01022 148.13086 220.02495 145.64558 220.02495C143.1603 220.02495 141.14558 218.01022 141.14558 215.52495C141.14558 213.03966 143.1603 211.02495 145.64558 211.02495C148.13086 211.02495 150.14558 213.03966 150.14558 215.52495Z" fill-rule="nonzero"/><path fill="#4285f4" clip-path="url(#id_0)" d="M170.57385 199.14177C170.57385 201.62706 168.55913 203.64177 166.07385 203.64177C163.58856 203.64177 161.57385 201.62706 161.57385 199.14177C161.57385 196.6565 163.58856 194.64177 166.07385 194.64177C168.55913 194.64177 170.57385 196.6565 170.57385 199.14177Z" fill-rule="nonzero"/><path fill="#4285f4" clip-path="url(#id_0)" d="M191.00212 183.60939C191.00212 186.09467 188.9874 188.10939 186.50212 188.10939C184.01683 188.10939 182.00212 186.09467 182.00212 183.60939C182.00212 181.1241 184.01683 179.10939 186.50212 179.10939C188.9874 179.10939 191.00212 181.1241 191.00212 183.60939Z" fill-rule="nonzero"/><path fill="#4285f4" clip-path="url(#id_0)" d="M211.43039 186.59775C211.43039 189.08302 209.41566 191.09775 206.93039 191.09775C204.4451 191.09775 202.43039 189.08302 202.43039 186.59775C202.43039 184.11246 204.4451 182.09775 206.93039 182.09775C209.41566 182.09775 211.43039 184.11246 211.43039 186.59775Z" fill-rule="nonzero"/><path fill="#4285f4" clip-path="url(#id_0)" d="M231.85866 167.07565C231.85866 169.56093 229.84393 171.57565 227.35866 171.57565C224.87337 171.57565 222.85866 169.56093 222.85866 167.07565C222.85866 164.59036 224.87337 162.57565 227.35866 162.57565C229.84393 162.57565 231.85866 164.59036 231.85866 167.07565Z" fill-rule="nonzero"/><path fill="#4285f4" clip-path="url(#id_0)" d="M252.28693 151.12576C252.28693 153.61104 250.2722 155.62576 247.78693 155.62576C245.30165 155.62576 243.28693 153.61104 243.28693 151.12576C243.28693 148.64047 245.30165 146.62576 247.78693 146.62576C250.2722 146.62576 252.28693 148.64047 252.28693 151.12576Z" fill-rule="nonzero"/><path fill="#4285f4" clip-path="url(#id_0)" d="M272.71518 142.6359C272.71518 145.12119 270.70047 147.1359 268.21518 147.1359C265.72992 147.1359 263.71518 145.12119 263.71518 142.6359C263.71518 140.15062 265.72992 138.1359 268.21518 138.1359C270.70047 138.1359 272.71518 140.15062 272.71518 142.6359Z" fill-rule="nonzero"/><path fill="#4285f4" clip-path="url(#id_0)" d="M293.14346 141.85045C293.14346 144.33574 291.12875 146.35045 288.64346 146.35045C286.15817 146.35045 284.14346 144.33574 284.14346 141.85045C284.14346 139.36517 286.15817 137.35045 288.64346 137.35045C291.12875 137.35045 293.14346 139.36517 293.14346 141.85045Z" fill-rule="nonzero"/><path fill="#4285f4" clip-path="url(#id_0)" d="M313.57172 143.79085C313.57172 146.27612 311.557 148.29085 309.07172 148.29085C306.58646 148.29085 304.57172 146.27612 304.57172 143.79085C304.57172 141.30556 306.58646 139.29085 309.07172 139.29085C311.557 139.29085 313.57172 141.30556 313.57172 143.79085Z" fill-rule="nonzero"/><path fill="#4285f4" clip-path="url(#id_0)" d="M334.0 136.99055C334.0 139.47583 331.9853 141.49055 329.5 141.49055C327.0147 141.49055 325.0 139.47583 325.0 136.99055C325.0 134.50528 327.0147 132.49055 329.5 132.49055C331.9853 132.49055 334.0 134.50528 334.0 136.99055Z" fill-rule="nonzero"/><path fill="#4285f4" clip-path="url(#id_0)" d="M354.42828 121.68408C354.42828 124.169365 352.41354 126.18408 349.92828 126.18408C347.443 126.18408 345.42828 124.169365 345.42828 121.68408C345.42828 119.19881 347.443 117.18408 349.92828 117.18408C352.41354 117.18408 354.42828 119.19881 354.42828 121.68408Z" fill-rule="nonzero"/><path fill="#4285f4" clip-path="url(#id_0)" d="M374.85654 120.937325C374.85654 123.42261 372.84183 125.437325 370.35654 125.437325C367.87125 125.437325 365.85654 123.42261 365.85654 120.937325C365.85654 118.45204 367.87125 116.437325 370.35654 116.437325C372.84183 116.437325 374.85654 118.45204 374.85654 120.937325Z" fill-rule="nonzero"/><path fill="#4285f4" clip-path="url(#id_0)" d="M395.28482 105.73863C395.28482 108.223915 393.27008 110.23863 390.78482 110.23863C388.29953 110.23863 386.28482 108.223915 386.28482 105.73863C386.28482 103.25335 388.29953 101.23863 390.78482 101.23863C393.27008 101.23863 395.28482 103.25335 395.28482 105.73863Z" fill-rule="nonzero"/><path fill="#4285f4" clip-path="url(#id_0)" d="M415.71307 117.08893C415.71307 119.5742 413.69836 121.58893 411.21307 121.58893C408.72778 121.58893 406.71307 119.5742 406.71307 117.08893C406.71307 114.603645 408.72778 112.58893 411.21307 112.58893C413.69836 112.58893 415.71307 114.603645 415.71307 117.08893Z" fill-rule="nonzero"/><path fill="#4285f4" clip-path="url(#id_0)" d="M436.14136 105.55882C436.14136 108.0441 434.12662 110.05882 431.64136 110.05882C429.15607 110.05882 427.14136 108.0441 427.14136 105.55882C427.14136 103.07354 429.15607 101.05882 431.64136 101.05882C434.12662 101.05882 436.14136 103.07354 436.14136 105.55882Z" fill-rule="nonzero"/><path fill="#4285f4" clip-path="url(#id_0)" d="M456.5696 100.292755C456.5696 102.77804 454.5549 104.792755 452.0696 104.792755C449.58432 104.792755 447.5696 102.77804 447.5696 100.292755C447.5696 97.80747 449.58432 95.792755 452.0696 95.792755C454.5549 95.792755 456.5696 97.80747 456.5696 100.292755Z" fill-rule="nonzero"/><path fill="#4285f4" clip-path="url(#id_0)" d="M476.9979 104.09644C476.9979 106.581726 474.98315 108.59644 472.4979 108.59644C470.0126 108.59644 467.9979 106.581726 467.9979 104.09644C467.9979 101.61116 470.0126 99.59644 472.4979 99.59644C474.98315 99.59644 476.9979 101.61116 476.9979 104.09644Z" fill-rule="nonzero"/><path fill="#4285f4" clip-path="url(#id_0)" d="M497.42615 99.204926C497.42615 101.69021 495.41144 103.704926 492.92615 103.704926C490.44086 103.704926 488.42615 101.69021 488.42615 99.204926C488.42615 96.71965 490.44086 94.704926 492.92615 94.704926C495.41144 94.704926 497.42615 96.71965 497.42615 99.204926Z" fill-rule="nonzero"/><path fill="#4285f4" clip-path="url(#id_0)" d="M517.85443 94.01376C517.85443 96.49905 515.8397 98.51376 513.35443 98.51376C510.86914 98.51376 508.85443 96.49905 508.85443 94.01376C508.85443 91.52848 510.86914 89.51376 513.35443 89.51376C515.8397 89.51376 517.85443 91.52848 517.85443 94.01376Z" fill-rule="nonzero"/><path fill="#4285f4" clip-path="url(#id_0)" d="M538.2827 99.42716C538.2827 101.912445 536.26794 103.92716 533.7827 103.92716C531.2974 103.92716 529.2827 101.912445 529.2827 99.42716C529.2827 96.94188 531.2974 94.92716 533.7827 94.92716C536.26794 94.92716 538.2827 96.94188 538.2827 99.42716Z" fill-rule="nonzero"/><path fill="#4285f4" clip-path="url(#id_0)" d="M558.71094 81.78408C558.71094 84.26936 556.6962 86.28408 554.21094 86.28408C551.72565 86.28408 549.71094 84.26936 549.71094 81.78408C549.71094 79.298805 551.72565 77.28408 554.21094 77.28408C556.6962 77.28408 558.71094 79.298805 558.71094 81.78408Z" fill-rule="nonzero"/><path fill="#4285f4" clip-path="url(#id_0)" d="M579.1392 87.85111C579.1392 90.336395 577.1245 92.35111 574.6392 92.35111C572.15393 92.35111 570.1392 90.336395 570.1392 87.85111C570.1392 85.36583 572.15393 83.35111 574.6392 83.35111C577.1245 83.35111 579.1392 85.36583 579.1392 87.85111Z" fill-rule="nonzero"/><path fill="#000000" d="M264.92188 349.45L264.92188 340.85626L266.07812 340.85626L270.59375 347.60626L270.59375 340.85626L271.6875 340.85626L271.6875 349.45L270.51562 349.45L266.0 342.7L266.0 349.45L264.92188 349.45ZM277.875 349.45L277.875 348.52814Q277.14062 349.59064 275.89062 349.59064Q275.34375 349.59064 274.85938 349.3875Q274.39062 349.16876 274.15625 348.85626Q273.92188 348.52814 273.82812 348.0594Q273.76562 347.7625 273.76562 347.075L273.76562 343.23126L274.82812 343.23126L274.82812 346.6844Q274.82812 347.4969 274.89062 347.79376Q274.98438 348.2 275.29688 348.45Q275.625 348.6844 276.10938 348.6844Q276.57812 348.6844 276.98438 348.45Q277.40625 348.2 277.57812 347.77814Q277.76562 347.35626 277.76562 346.5594L277.76562 343.23126L278.8125 343.23126L278.8125 349.45L277.875 349.45ZM280.79688 349.45L280.79688 343.23126L281.73438 343.23126L281.73438 344.10626Q282.03125 343.6375 282.51562 343.3719Q283.0 343.09064 283.625 343.09064Q284.3125 343.09064 284.75 343.3719Q285.20312 343.65314 285.375 344.16876Q286.125 343.09064 287.29688 343.09064Q288.23438 343.09064 288.71875 343.60626Q289.21875 344.10626 289.21875 345.1844L289.21875 349.45L288.17188 349.45L288.17188 345.52814Q288.17188 344.90314 288.0625 344.6219Q287.96875 344.34064 287.70312 344.16876Q287.4375 343.9969 287.0625 343.9969Q286.40625 343.9969 285.96875 344.4344Q285.54688 344.8719 285.54688 345.84064L285.54688 349.45L284.48438 349.45L284.48438 345.40314Q284.48438 344.7 284.21875 344.35626Q283.96875 343.9969 283.39062 343.9969Q282.9375 343.9969 282.5625 344.23126Q282.1875 344.46564 282.01562 344.91876Q281.84375 345.3719 281.84375 346.21564L281.84375 349.45L280.79688 349.45ZM291.76562 349.45L290.78125 349.45L290.78125 340.85626L291.84375 340.85626L291.84375 343.91876Q292.51562 343.09064 293.54688 343.09064Q294.125 343.09064 294.625 343.325Q295.14062 343.54376 295.46875 343.96564Q295.8125 344.3875 296.0 344.98126Q296.1875 345.575 296.1875 346.2469Q296.1875 347.84064 295.39062 348.71564Q294.59375 349.59064 293.5 349.59064Q292.39062 349.59064 291.76562 348.66876L291.76562 349.45ZM291.75 346.29376Q291.75 347.40314 292.0625 347.90314Q292.5625 348.71564 293.40625 348.71564Q294.09375 348.71564 294.59375 348.1219Q295.10938 347.52814 295.10938 346.325Q295.10938 345.10626 294.625 344.52814Q294.14062 343.95 293.45312 343.95Q292.76562 343.95 292.25 344.5594Q291.75 345.15314 291.75 346.29376ZM302.04688 347.45L303.14062 347.575Q302.89062 348.52814 302.1875 349.0594Q301.48438 349.59064 300.40625 349.59064Q299.04688 349.59064 298.23438 348.7469Q297.4375 347.90314 297.4375 346.3875Q297.4375 344.825 298.25 343.96564Q299.0625 343.09064 300.34375 343.09064Q301.59375 343.09064 302.375 343.9344Q303.17188 344.77814 303.17188 346.325Q303.17188 346.41876 303.17188 346.60626L298.53125 346.60626Q298.59375 347.6375 299.10938 348.1844Q299.625 348.71564 300.40625 348.71564Q300.98438 348.71564 301.39062 348.41876Q301.8125 348.10626 302.04688 347.45ZM298.59375 345.7469L302.0625 345.7469Q302.0 344.95 301.67188 344.5594Q301.15625 343.95 300.35938 343.95Q299.625 343.95 299.125 344.4344Q298.64062 344.91876 298.59375 345.7469ZM304.78125 349.45L304.78125 343.23126L305.73438 343.23126L305.73438 344.16876Q306.09375 343.5125 306.39062 343.3094Q306.70312 343.09064 307.07812 343.09064Q307.60938 343.09064 308.15625 343.41876L307.79688 344.40314Q307.40625 344.16876 307.03125 344.16876Q306.67188 344.16876 306.39062 344.3875Q306.125 344.59064 306.01562 344.96564Q305.82812 345.52814 305.82812 346.1844L305.82812 349.45L304.78125 349.45ZM311.40625 346.34064Q311.40625 344.60626 312.35938 343.77814Q313.15625 343.09064 314.3125 343.09064Q315.59375 343.09064 316.40625 343.9344Q317.23438 344.7625 317.23438 346.2469Q317.23438 347.45 316.875 348.1375Q316.51562 348.825 315.8125 349.21564Q315.125 349.59064 314.3125 349.59064Q313.01562 349.59064 312.20312 348.7625Q311.40625 347.91876 311.40625 346.34064ZM312.48438 346.34064Q312.48438 347.52814 313.0 348.1219Q313.53125 348.71564 314.3125 348.71564Q315.10938 348.71564 315.625 348.1219Q316.14062 347.52814 316.14062 346.3094Q316.14062 345.15314 315.60938 344.5594Q315.09375 343.96564 314.3125 343.96564Q313.53125 343.96564 313.0 344.5594Q312.48438 345.1375 312.48438 346.34064ZM319.04688 349.45L319.04688 344.04376L318.10938 344.04376L318.10938 343.23126L319.04688 343.23126L319.04688 342.5594Q319.04688 341.9344 319.15625 341.6375Q319.3125 341.21564 319.6875 340.96564Q320.07812 340.71564 320.76562 340.71564Q321.21875 340.71564 321.75 340.825L321.59375 341.73126Q321.26562 341.6844 320.96875 341.6844Q320.48438 341.6844 320.28125 341.8875Q320.09375 342.09064 320.09375 342.65314L320.09375 343.23126L321.3125 343.23126L321.3125 344.04376L320.09375 344.04376L320.09375 349.45L319.04688 349.45ZM324.9375 349.45L324.9375 340.85626L328.75 340.85626Q329.90625 340.85626 330.5 341.09064Q331.09375 341.325 331.45312 341.91876Q331.8125 342.4969 331.8125 343.2Q331.8125 344.1219 331.21875 344.7469Q330.625 345.3719 329.39062 345.54376Q329.84375 345.7625 330.07812 345.96564Q330.57812 346.41876 331.01562 347.10626L332.51562 349.45L331.07812 349.45L329.95312 347.66876Q329.45312 346.8875 329.125 346.48126Q328.8125 346.075 328.54688 345.91876Q328.29688 345.7469 328.03125 345.66876Q327.84375 345.6375 327.40625 345.6375L326.07812 345.6375L326.07812 349.45L324.9375 349.45ZM326.07812 344.65314L328.53125 344.65314Q329.29688 344.65314 329.73438 344.4969Q330.1875 344.325 330.40625 343.98126Q330.64062 343.6219 330.64062 343.2Q330.64062 342.59064 330.1875 342.2Q329.75 341.8094 328.79688 341.8094L326.07812 341.8094L326.07812 344.65314ZM338.04688 347.45L339.14062 347.575Q338.89062 348.52814 338.1875 349.0594Q337.48438 349.59064 336.40625 349.59064Q335.04688 349.59064 334.23438 348.7469Q333.4375 347.90314 333.4375 346.3875Q333.4375 344.825 334.25 343.96564Q335.0625 343.09064 336.34375 343.09064Q337.59375 343.09064 338.375 343.9344Q339.17188 344.77814 339.17188 346.325Q339.17188 346.41876 339.17188 346.60626L334.53125 346.60626Q334.59375 347.6375 335.10938 348.1844Q335.625 348.71564 336.40625 348.71564Q336.98438 348.71564 337.39062 348.41876Q337.8125 348.10626 338.04688 347.45ZM334.59375 345.7469L338.0625 345.7469Q338.0 344.95 337.67188 344.5594Q337.15625 343.95 336.35938 343.95Q335.625 343.95 335.125 344.4344Q334.64062 344.91876 334.59375 345.7469ZM340.76562 349.45L340.76562 340.85626L341.82812 340.85626L341.82812 349.45L340.76562 349.45ZM347.85938 348.6844Q347.26562 349.1844 346.71875 349.3875Q346.1875 349.59064 345.5625 349.59064Q344.53125 349.59064 343.98438 349.09064Q343.4375 348.59064 343.4375 347.8094Q343.4375 347.35626 343.64062 346.98126Q343.84375 346.59064 344.1875 346.3719Q344.53125 346.1375 344.95312 346.02814Q345.25 345.9344 345.89062 345.85626Q347.15625 345.71564 347.76562 345.4969Q347.76562 345.27814 347.76562 345.23126Q347.76562 344.575 347.46875 344.3094Q347.0625 343.96564 346.26562 343.96564Q345.53125 343.96564 345.17188 344.23126Q344.8125 344.48126 344.64062 345.1375L343.60938 344.9969Q343.75 344.34064 344.07812 343.9344Q344.40625 343.52814 345.01562 343.3094Q345.625 343.09064 346.42188 343.09064Q347.21875 343.09064 347.71875 343.27814Q348.21875 343.46564 348.45312 343.7469Q348.6875 344.02814 348.78125 344.46564Q348.82812 344.73126 348.82812 345.4344L348.82812 346.84064Q348.82812 348.3094 348.89062 348.7Q348.96875 349.09064 349.17188 349.45L348.0625 349.45Q347.90625 349.1219 347.85938 348.6844ZM347.76562 346.325Q347.1875 346.5594 346.04688 346.73126Q345.39062 346.825 345.125 346.95Q344.85938 347.0594 344.70312 347.27814Q344.5625 347.4969 344.5625 347.77814Q344.5625 348.2 344.875 348.48126Q345.20312 348.7625 345.8125 348.7625Q346.42188 348.7625 346.89062 348.4969Q347.375 348.23126 347.59375 347.7625Q347.76562 347.40314 347.76562 346.71564L347.76562 346.325ZM350.75 351.84064L350.625 350.85626Q350.96875 350.95 351.23438 350.95Q351.57812 350.95 351.78125 350.825Q352.0 350.71564 352.14062 350.5125Q352.23438 350.34064 352.46875 349.71564Q352.48438 349.6375 352.5625 349.46564L350.1875 343.23126L351.32812 343.23126L352.625 346.825Q352.875 347.5125 353.07812 348.27814Q353.26562 347.54376 353.51562 346.85626L354.84375 343.23126L355.89062 343.23126L353.53125 349.5594Q353.14062 350.575 352.9375 350.96564Q352.65625 351.4969 352.28125 351.73126Q351.92188 351.98126 351.42188 351.98126Q351.125 351.98126 350.75 351.84064ZM359.92188 349.45L359.92188 340.85626L361.07812 340.85626L365.59375 347.60626L365.59375 340.85626L366.6875 340.85626L366.6875 349.45L365.51562 349.45L361.0 342.7L361.0 349.45L359.92188 349.45ZM368.40625 346.34064Q368.40625 344.60626 369.35938 343.77814Q370.15625 343.09064 371.3125 343.09064Q372.59375 343.09064 373.40625 343.9344Q374.23438 344.7625 374.23438 346.2469Q374.23438 347.45 373.875 348.1375Q373.51562 348.825 372.8125 349.21564Q372.125 349.59064 371.3125 349.59064Q370.01562 349.59064 369.20312 348.7625Q368.40625 347.91876 368.40625 346.34064ZM369.48438 346.34064Q369.48438 347.52814 370.0 348.1219Q370.53125 348.71564 371.3125 348.71564Q372.10938 348.71564 372.625 348.1219Q373.14062 347.52814 373.14062 346.3094Q373.14062 345.15314 372.60938 344.5594Q372.09375 343.96564 371.3125 343.96564Q370.53125 343.96564 370.0 344.5594Q369.48438 345.1375 369.48438 346.34064ZM379.82812 349.45L379.82812 348.66876Q379.23438 349.59064 378.09375 349.59064Q377.34375 349.59064 376.71875 349.1844Q376.09375 348.7625 375.75 348.02814Q375.40625 347.29376 375.40625 346.34064Q375.40625 345.41876 375.71875 344.65314Q376.03125 343.8875 376.65625 343.4969Q377.28125 343.09064 378.04688 343.09064Q378.60938 343.09064 379.04688 343.325Q379.48438 343.5594 379.76562 343.9344L379.76562 340.85626L380.8125 340.85626L380.8125 349.45L379.82812 349.45ZM376.5 346.34064Q376.5 347.54376 377.0 348.1375Q377.5 348.71564 378.1875 348.71564Q378.875 348.71564 379.35938 348.15314Q379.84375 347.59064 379.84375 346.4344Q379.84375 345.15314 379.34375 344.5594Q378.85938 343.96564 378.14062 343.96564Q377.4375 343.96564 376.96875 344.54376Q376.5 345.10626 376.5 346.34064ZM387.04688 347.45L388.14062 347.575Q387.89062 348.52814 387.1875 349.0594Q386.48438 349.59064 385.40625 349.59064Q384.04688 349.59064 383.23438 348.7469Q382.4375 347.90314 382.4375 346.3875Q382.4375 344.825 383.25 343.96564Q384.0625 343.09064 385.34375 343.09064Q386.59375 343.09064 387.375 343.9344Q388.17188 344.77814 388.17188 346.325Q388.17188 346.41876 388.17188 346.60626L383.53125 346.60626Q383.59375 347.6375 384.10938 348.1844Q384.625 348.71564 385.40625 348.71564Q385.98438 348.71564 386.39062 348.41876Q386.8125 348.10626 387.04688 347.45ZM383.59375 345.7469L387.0625 345.7469Q387.0 344.95 386.67188 344.5594Q386.15625 343.95 385.35938 343.95Q384.625 343.95 384.125 344.4344Q383.64062 344.91876 383.59375 345.7469ZM389.375 347.59064L390.40625 347.4344Q390.5 348.0594 390.89062 348.3875Q391.29688 348.71564 392.03125 348.71564Q392.75 348.71564 393.09375 348.4344Q393.45312 348.1375 393.45312 347.73126Q393.45312 347.3719 393.14062 347.16876Q392.92188 347.02814 392.0625 346.8094Q390.90625 346.5125 390.45312 346.3094Q390.01562 346.09064 389.78125 345.71564Q389.54688 345.34064 389.54688 344.8719Q389.54688 344.46564 389.73438 344.10626Q389.92188 343.7469 390.25 343.5125Q390.5 343.34064 390.92188 343.21564Q391.34375 343.09064 391.84375 343.09064Q392.5625 343.09064 393.10938 343.3094Q393.67188 343.5125 393.9375 343.8719Q394.20312 344.23126 394.29688 344.825L393.26562 344.96564Q393.20312 344.4969 392.85938 344.23126Q392.53125 343.95 391.90625 343.95Q391.1875 343.95 390.875 344.2Q390.5625 344.4344 390.5625 344.7625Q390.5625 344.96564 390.6875 345.1219Q390.82812 345.29376 391.09375 345.40314Q391.25 345.46564 392.03125 345.66876Q393.15625 345.98126 393.59375 346.16876Q394.03125 346.35626 394.28125 346.71564Q394.53125 347.075 394.53125 347.6219Q394.53125 348.15314 394.21875 348.6219Q393.92188 349.075 393.34375 349.34064Q392.76562 349.59064 392.03125 349.59064Q390.8125 349.59064 390.17188 349.09064Q389.54688 348.575 389.375 347.59064Z" fill-rule="nonzero"/><path fill="#000000" d="M29.550013 213.69896L20.956263 213.69896L20.956263 207.90208L21.971888 207.90208L21.971888 212.55833L24.628138 212.55833L24.628138 208.52708L25.643763 208.52708L25.643763 212.55833L29.550013 212.55833L29.550013 213.69896ZM29.550013 206.76146L20.956263 206.76146L20.956263 203.79271Q20.956263 202.79271 21.081263 202.26146Q21.253138 201.52708 21.690638 201.01146Q22.268763 200.32396 23.175013 199.99583Q24.065638 199.65208 25.206263 199.65208Q26.190638 199.65208 26.940638 199.88646Q27.690638 200.10521 28.190638 200.46458Q28.690638 200.82396 28.971888 201.26146Q29.253138 201.68333 29.409388 202.27708Q29.550013 202.87083 29.550013 203.65208L29.550013 206.76146ZM28.534388 205.62083L28.534388 203.79271Q28.534388 202.93333 28.378138 202.44896Q28.221888 201.96458 27.925013 201.68333Q27.534388 201.27708 26.846888 201.05833Q26.159388 200.82396 25.190638 200.82396Q23.846888 200.82396 23.128138 201.27708Q22.393763 201.71458 22.143763 202.33958Q21.971888 202.80833 21.971888 203.80833L21.971888 205.62083L28.534388 205.62083ZM29.550013 197.74583L20.956263 197.74583L20.956263 193.93333Q20.956263 192.77708 21.190638 192.18333Q21.425013 191.58958 22.018763 191.23021Q22.596888 190.87083 23.300013 190.87083Q24.221888 190.87083 24.846888 191.46458Q25.471888 192.05833 25.643763 193.29271Q25.862513 192.83958 26.065638 192.60521Q26.518763 192.10521 27.206263 191.66771L29.550013 190.16771L29.550013 191.60521L27.768763 192.73021Q26.987513 193.23021 26.581263 193.55833Q26.175013 193.87083 26.018763 194.13646Q25.846888 194.38646 25.768763 194.65208Q25.737513 194.83958 25.737513 195.27708L25.737513 196.60521L29.550013 196.60521L29.550013 197.74583ZM24.753138 196.60521L24.753138 194.15208Q24.753138 193.38646 24.596888 192.94896Q24.425013 192.49583 24.081263 192.27708Q23.721888 192.04271 23.300013 192.04271Q22.690638 192.04271 22.300013 192.49583Q21.909388 192.93333 21.909388 193.88646L21.909388 196.60521L24.753138 196.60521ZM29.550013 185.74583L20.956263 185.74583L20.956263 181.93333Q20.956263 180.77708 21.190638 180.18333Q21.425013 179.58958 22.018763 179.23021Q22.596888 178.87083 23.300013 178.87083Q24.221888 178.87083 24.846888 179.46458Q25.471888 180.05833 25.643763 181.29271Q25.862513 180.83958 26.065638 180.60521Q26.518763 180.10521 27.206263 179.66771L29.550013 178.16771L29.550013 179.60521L27.768763 180.73021Q26.987513 181.23021 26.581263 181.55833Q26.175013 181.87083 26.018763 182.13646Q25.846888 182.38646 25.768763 182.65208Q25.737513 182.83958 25.737513 183.27708L25.737513 184.60521L29.550013 184.60521L29.550013 185.74583ZM24.753138 184.60521L24.753138 182.15208Q24.753138 181.38646 24.596888 180.94896Q24.425013 180.49583 24.081263 180.27708Q23.721888 180.04271 23.300013 180.04271Q22.690638 180.04271 22.300013 180.49583Q21.909388 180.93333 21.909388 181.88646L21.909388 184.60521L24.753138 184.60521ZM28.784388 172.82396Q29.284388 173.41771 29.487513 173.96458Q29.690638 174.49583 29.690638 175.12083Q29.690638 176.15208 29.190638 176.69896Q28.690638 177.24583 27.909388 177.24583Q27.456263 177.24583 27.081263 177.04271Q26.690638 176.83958 26.471888 176.49583Q26.237513 176.15208 26.128138 175.73021Q26.034388 175.43333 25.956263 174.79271Q25.815638 173.52708 25.596888 172.91771Q25.378138 172.91771 25.331263 172.91771Q24.675013 172.91771 24.409388 173.21458Q24.065638 173.62083 24.065638 174.41771Q24.065638 175.15208 24.331263 175.51146Q24.581263 175.87083 25.237513 176.04271L25.096888 177.07396Q24.440638 176.93333 24.034388 176.60521Q23.628138 176.27708 23.409388 175.66771Q23.190638 175.05833 23.190638 174.26146Q23.190638 173.46458 23.378138 172.96458Q23.565638 172.46458 23.846888 172.23021Q24.128138 171.99583 24.565638 171.90208Q24.831263 171.85521 25.534388 171.85521L26.940638 171.85521Q28.409388 171.85521 28.800013 171.79271Q29.190638 171.71458 29.550013 171.51146L29.550013 172.62083Q29.221888 172.77708 28.784388 172.82396ZM26.425013 172.91771Q26.659388 173.49583 26.831263 174.63646Q26.925013 175.29271 27.050013 175.55833Q27.159388 175.82396 27.378138 175.98021Q27.596888 176.12083 27.878138 176.12083Q28.300013 176.12083 28.581263 175.80833Q28.862513 175.48021 28.862513 174.87083Q28.862513 174.26146 28.596888 173.79271Q28.331263 173.30833 27.862513 173.08958Q27.503138 172.91771 26.815638 172.91771L26.425013 172.91771ZM28.612513 167.58958L29.534388 167.43333Q29.628138 167.88646 29.628138 168.23021Q29.628138 168.80833 29.456263 169.12083Q29.268763 169.43333 28.971888 169.57396Q28.675013 169.69896 27.721888 169.69896L24.143763 169.69896L24.143763 170.46458L23.331263 170.46458L23.331263 169.69896L21.784388 169.69896L21.159388 168.65208L23.331263 168.65208L23.331263 167.58958L24.143763 167.58958L24.143763 168.65208L27.784388 168.65208Q28.237513 168.65208 28.362513 168.60521Q28.487513 168.54271 28.565638 168.41771Q28.643763 168.29271 28.643763 168.05833Q28.643763 167.87083 28.612513 167.58958ZM27.550013 162.63646L27.675013 161.54271Q28.628138 161.79271 29.159388 162.49583Q29.690638 163.19896 29.690638 164.27708Q29.690638 165.63646 28.846888 166.44896Q28.003138 167.24583 26.487513 167.24583Q24.925013 167.24583 24.065638 166.43333Q23.190638 165.62083 23.190638 164.33958Q23.190638 163.08958 24.034388 162.30833Q24.878138 161.51146 26.425013 161.51146Q26.518763 161.51146 26.706263 161.51146L26.706263 166.15208Q27.737513 166.08958 28.284388 165.57396Q28.815638 165.05833 28.815638 164.27708Q28.815638 163.69896 28.518763 163.29271Q28.206263 162.87083 27.550013 162.63646ZM25.846888 166.08958L25.846888 162.62083Q25.050013 162.68333 24.659388 163.01146Q24.050013 163.52708 24.050013 164.32396Q24.050013 165.05833 24.534388 165.55833Q25.018763 166.04271 25.846888 166.08958Z" fill-rule="nonzero"/><path fill="#000000" d="M55.05 300.21564Q55.05 298.6844 55.3625 297.7625Q55.675 296.825 56.284374 296.325Q56.909374 295.825 57.846874 295.825Q58.534374 295.825 59.05 296.10626Q59.58125 296.3875 59.925 296.91876Q60.26875 297.4344 60.45625 298.1844Q60.64375 298.9344 60.64375 300.21564Q60.64375 301.73126 60.33125 302.65314Q60.034374 303.575 59.409374 304.09064Q58.8 304.59064 57.846874 304.59064Q56.6125 304.59064 55.89375 303.7Q55.05 302.6375 55.05 300.21564ZM56.128124 300.21564Q56.128124 302.325 56.628124 303.02814Q57.128124 303.73126 57.846874 303.73126Q58.58125 303.73126 59.065624 303.02814Q59.565624 302.325 59.565624 300.21564Q59.565624 298.09064 59.065624 297.40314Q58.58125 296.7 57.83125 296.7Q57.1125 296.7 56.675 297.3094Q56.128124 298.09064 56.128124 300.21564ZM62.64375 304.45L62.64375 303.2469L63.846874 303.2469L63.846874 304.45L62.64375 304.45ZM65.05 302.2L66.15938 302.10626Q66.28438 302.91876 66.72188 303.325Q67.175 303.73126 67.81563 303.73126Q68.56563 303.73126 69.09688 303.15314Q69.62813 302.575 69.62813 301.6375Q69.62813 300.73126 69.1125 300.21564Q68.6125 299.6844 67.78438 299.6844Q67.28438 299.6844 66.8625 299.91876Q66.45625 300.15314 66.22188 300.5125L65.2375 300.3875L66.06563 295.98126L70.34688 295.98126L70.34688 296.98126L66.90938 296.98126L66.45625 299.29376Q67.22188 298.7469 68.06563 298.7469Q69.19063 298.7469 69.95625 299.52814Q70.7375 300.3094 70.7375 301.54376Q70.7375 302.7 70.06563 303.5594Q69.2375 304.59064 67.81563 304.59064Q66.64375 304.59064 65.89375 303.9344Q65.15938 303.27814 65.05 302.2Z" fill-rule="nonzero"/><path fill="#000000" d="M55.05 252.50897Q55.05 250.97772 55.3625 250.05585Q55.675 249.11835 56.284374 248.61835Q56.909374 248.11835 57.846874 248.11835Q58.534374 248.11835 59.05 248.3996Q59.58125 248.68085 59.925 249.2121Q60.26875 249.72772 60.45625 250.47772Q60.64375 251.22772 60.64375 252.50897Q60.64375 254.0246 60.33125 254.94647Q60.034374 255.86835 59.409374 256.38397Q58.8 256.88397 57.846874 256.88397Q56.6125 256.88397 55.89375 255.99335Q55.05 254.93085 55.05 252.50897ZM56.128124 252.50897Q56.128124 254.61835 56.628124 255.32147Q57.128124 256.0246 57.846874 256.0246Q58.58125 256.0246 59.065624 255.32147Q59.565624 254.61835 59.565624 252.50897Q59.565624 250.38397 59.065624 249.69647Q58.58125 248.99335 57.83125 248.99335Q57.1125 248.99335 56.675 249.60272Q56.128124 250.38397 56.128124 252.50897ZM62.64375 256.74335L62.64375 255.54022L63.846874 255.54022L63.846874 256.74335L62.64375 256.74335ZM70.51875 250.25897L69.47188 250.3371Q69.33125 249.7121 69.08125 249.43085Q68.64375 248.97772 68.01875 248.97772Q67.51875 248.97772 67.12813 249.25897Q66.64375 249.63397 66.34688 250.3371Q66.06563 251.0246 66.05 252.30585Q66.425 251.72772 66.97188 251.44647Q67.53438 251.16522 68.14375 251.16522Q69.19063 251.16522 69.925 251.94647Q70.675 252.72772 70.675 253.94647Q70.675 254.75897 70.31563 255.4621Q69.97188 256.1496 69.3625 256.5246Q68.75313 256.88397 67.9875 256.88397Q66.65938 256.88397 65.83125 255.91522Q65.00313 254.94647 65.00313 252.72772Q65.00313 250.22772 65.925 249.10272Q66.72188 248.11835 68.08125 248.11835Q69.09688 248.11835 69.7375 248.69647Q70.39375 249.25897 70.51875 250.25897ZM66.22188 253.9621Q66.22188 254.50897 66.44063 255.00897Q66.675 255.49335 67.08125 255.75897Q67.50313 256.0246 67.97188 256.0246Q68.62813 256.0246 69.1125 255.49335Q69.59688 254.94647 69.59688 254.0246Q69.59688 253.13397 69.1125 252.61835Q68.64375 252.10272 67.925 252.10272Q67.20625 252.10272 66.70625 252.61835Q66.22188 253.13397 66.22188 253.9621Z" fill-rule="nonzero"/><path fill="#000000" d="M55.05 204.80229Q55.05 203.27104 55.3625 202.34917Q55.675 201.41167 56.284374 200.91167Q56.909374 200.41167 57.846874 200.41167Q58.534374 200.41167 59.05 200.69292Q59.58125 200.97417 59.925 201.50542Q60.26875 202.02104 60.45625 202.77104Q60.64375 203.52104 60.64375 204.80229Q60.64375 206.31792 60.33125 207.23979Q60.034374 208.16167 59.409374 208.67729Q58.8 209.17729 57.846874 209.17729Q56.6125 209.17729 55.89375 208.28667Q55.05 207.22417 55.05 204.80229ZM56.128124 204.80229Q56.128124 206.91167 56.628124 207.61479Q57.128124 208.31792 57.846874 208.31792Q58.58125 208.31792 59.065624 207.61479Q59.565624 206.91167 59.565624 204.80229Q59.565624 202.67729 59.065624 201.98979Q58.58125 201.28667 57.83125 201.28667Q57.1125 201.28667 56.675 201.89604Q56.128124 202.67729 56.128124 204.80229ZM62.64375 209.03667L62.64375 207.83354L63.846874 207.83354L63.846874 209.03667L62.64375 209.03667ZM65.1125 201.56792L65.1125 200.55229L70.675 200.55229L70.675 201.38042Q69.8625 202.25542 69.05 203.70854Q68.25313 205.14604 67.81563 206.67729Q67.4875 207.75542 67.40938 209.03667L66.31563 209.03667Q66.33125 208.02104 66.70625 206.58354Q67.09688 205.14604 67.8 203.81792Q68.51875 202.48979 69.33125 201.56792L65.1125 201.56792Z" fill-rule="nonzero"/><path fill="#000000" d="M55.05 157.09563Q55.05 155.56438 55.3625 154.6425Q55.675 153.705 56.284374 153.205Q56.909374 152.705 57.846874 152.705Q58.534374 152.705 59.05 152.98625Q59.58125 153.2675 59.925 153.79875Q60.26875 154.31438 60.45625 155.06438Q60.64375 155.81438 60.64375 157.09563Q60.64375 158.61125 60.33125 159.53313Q60.034374 160.455 59.409374 160.97063Q58.8 161.47063 57.846874 161.47063Q56.6125 161.47063 55.89375 160.58Q55.05 159.5175 55.05 157.09563ZM56.128124 157.09563Q56.128124 159.205 56.628124 159.90813Q57.128124 160.61125 57.846874 160.61125Q58.58125 160.61125 59.065624 159.90813Q59.565624 159.205 59.565624 157.09563Q59.565624 154.97063 59.065624 154.28313Q58.58125 153.58 57.83125 153.58Q57.1125 153.58 56.675 154.18938Q56.128124 154.97063 56.128124 157.09563ZM62.64375 161.33L62.64375 160.12688L63.846874 160.12688L63.846874 161.33L62.64375 161.33ZM66.675 156.67375Q66.01875 156.42375 65.69063 155.98625Q65.37813 155.53313 65.37813 154.92375Q65.37813 153.98625 66.05 153.34563Q66.7375 152.705 67.84688 152.705Q68.97188 152.705 69.65938 153.36125Q70.34688 154.0175 70.34688 154.955Q70.34688 155.54875 70.03438 155.98625Q69.72188 156.42375 69.08125 156.67375Q69.87813 156.92375 70.28438 157.50188Q70.69063 158.08 70.69063 158.87688Q70.69063 159.97063 69.90938 160.72063Q69.14375 161.47063 67.8625 161.47063Q66.59688 161.47063 65.81563 160.72063Q65.03438 159.97063 65.03438 158.84563Q65.03438 158.00188 65.45625 157.43938Q65.89375 156.87688 66.675 156.67375ZM66.45625 154.87688Q66.45625 155.48625 66.84688 155.87688Q67.25313 156.2675 67.87813 156.2675Q68.4875 156.2675 68.87813 155.8925Q69.26875 155.50188 69.26875 154.93938Q69.26875 154.36125 68.8625 153.97063Q68.45625 153.56438 67.8625 153.56438Q67.25313 153.56438 66.84688 153.955Q66.45625 154.34563 66.45625 154.87688ZM66.12813 158.84563Q66.12813 159.29875 66.33125 159.72063Q66.55 160.1425 66.97188 160.37688Q67.39375 160.61125 67.87813 160.61125Q68.62813 160.61125 69.1125 160.12688Q69.6125 159.6425 69.6125 158.8925Q69.6125 158.12688 69.1125 157.62688Q68.6125 157.12688 67.84688 157.12688Q67.09688 157.12688 66.6125 157.62688Q66.12813 158.11125 66.12813 158.84563Z" fill-rule="nonzero"/><path fill="#000000" d="M55.05 109.38896Q55.05 107.85771 55.3625 106.93584Q55.675 105.99834 56.284374 105.49834Q56.909374 104.99834 57.846874 104.99834Q58.534374 104.99834 59.05 105.27959Q59.58125 105.56084 59.925 106.09209Q60.26875 106.60771 60.45625 107.35771Q60.64375 108.10771 60.64375 109.38896Q60.64375 110.90459 60.33125 111.82646Q60.034374 112.74834 59.409374 113.26396Q58.8 113.76396 57.846874 113.76396Q56.6125 113.76396 55.89375 112.87334Q55.05 111.81084 55.05 109.38896ZM56.128124 109.38896Q56.128124 111.49834 56.628124 112.20146Q57.128124 112.90459 57.846874 112.90459Q58.58125 112.90459 59.065624 112.20146Q59.565624 111.49834 59.565624 109.38896Q59.565624 107.26396 59.065624 106.57646Q58.58125 105.87334 57.83125 105.87334Q57.1125 105.87334 56.675 106.48271Q56.128124 107.26396 56.128124 109.38896ZM62.64375 113.62334L62.64375 112.42021L63.846874 112.42021L63.846874 113.62334L62.64375 113.62334ZM65.20625 111.63896L66.22188 111.54521Q66.34688 112.26396 66.70625 112.59209Q67.08125 112.90459 67.64375 112.90459Q68.12813 112.90459 68.4875 112.68584Q68.8625 112.45146 69.09688 112.09209Q69.33125 111.71709 69.4875 111.09209Q69.64375 110.45146 69.64375 109.79521Q69.64375 109.71709 69.64375 109.57646Q69.33125 110.07646 68.78438 110.40459Q68.2375 110.71709 67.59688 110.71709Q66.51875 110.71709 65.78438 109.95146Q65.05 109.17021 65.05 107.90459Q65.05 106.59209 65.81563 105.79521Q66.59688 104.99834 67.75313 104.99834Q68.58125 104.99834 69.26875 105.45146Q69.97188 105.90459 70.33125 106.74834Q70.69063 107.57646 70.69063 109.15459Q70.69063 110.79521 70.33125 111.77959Q69.9875 112.74834 69.26875 113.26396Q68.56563 113.76396 67.62813 113.76396Q66.6125 113.76396 65.97188 113.21709Q65.33125 112.65459 65.20625 111.63896ZM69.51875 107.84209Q69.51875 106.93584 69.03438 106.40459Q68.56563 105.87334 67.87813 105.87334Q67.175 105.87334 66.64375 106.45146Q66.12813 107.01396 66.12813 107.93584Q66.12813 108.74834 66.62813 109.26396Q67.12813 109.77959 67.84688 109.77959Q68.58125 109.77959 69.05 109.26396Q69.51875 108.74834 69.51875 107.84209Z" fill-rule="nonzero"/><path fill="#000000" d="M59.01875 65.916664L57.971874 65.916664L57.971874 59.197914Q57.58125 59.55729 56.95625 59.93229Q56.346874 60.291664 55.8625 60.46354L55.8625 59.447914Q56.7375 59.02604 57.39375 58.447914Q58.065624 57.854164 58.346874 57.291664L59.01875 57.291664L59.01875 65.916664ZM62.64375 65.916664L62.64375 64.71354L63.846874 64.71354L63.846874 65.916664L62.64375 65.916664ZM65.05 61.68229Q65.05 60.15104 65.3625 59.229164Q65.675 58.291664 66.28438 57.791664Q66.90938 57.291664 67.84688 57.291664Q68.53438 57.291664 69.05 57.572914Q69.58125 57.854164 69.925 58.385414Q70.26875 58.90104 70.45625 59.65104Q70.64375 60.40104 70.64375 61.68229Q70.64375 63.197914 70.33125 64.11979Q70.03438 65.041664 69.40938 65.55729Q68.8 66.05729 67.84688 66.05729Q66.6125 66.05729 65.89375 65.166664Q65.05 64.104164 65.05 61.68229ZM66.12813 61.68229Q66.12813 63.791664 66.62813 64.49479Q67.12813 65.197914 67.84688 65.197914Q68.58125 65.197914 69.06563 64.49479Q69.56563 63.791664 69.56563 61.68229Q69.56563 59.55729 69.06563 58.86979Q68.58125 58.166664 67.83125 58.166664Q67.1125 58.166664 66.675 58.77604Q66.12813 59.55729 66.12813 61.68229Z" fill-rule="nonzero"/><path fill="#000000" d="M81.36077 313.21564Q81.36077 311.6844 81.67327 310.7625Q81.98577 309.825 82.595146 309.325Q83.220146 308.825 84.157646 308.825Q84.845146 308.825 85.36077 309.10626Q85.89202 309.3875 86.23577 309.91876Q86.57952 310.4344 86.76702 311.1844Q86.95452 311.9344 86.95452 313.21564Q86.95452 314.73126 86.64202 315.65314Q86.345146 316.575 85.720146 317.09064Q85.11077 317.59064 84.157646 317.59064Q82.92327 317.59064 82.20452 316.7Q81.36077 315.6375 81.36077 313.21564ZM82.438896 313.21564Q82.438896 315.325 82.938896 316.02814Q83.438896 316.73126 84.157646 316.73126Q84.89202 316.73126 85.376396 316.02814Q85.876396 315.325 85.876396 313.21564Q85.876396 311.09064 85.376396 310.40314Q84.89202 309.7 84.14202 309.7Q83.42327 309.7 82.98577 310.3094Q82.438896 311.09064 82.438896 313.21564Z" fill-rule="nonzero"/><path fill="#000000" d="M183.50212 315.2L184.6115 315.10626Q184.7365 315.91876 185.174 316.325Q185.62712 316.73126 186.26775 316.73126Q187.01775 316.73126 187.549 316.15314Q188.08025 315.575 188.08025 314.6375Q188.08025 313.73126 187.56462 313.21564Q187.06462 312.6844 186.2365 312.6844Q185.7365 312.6844 185.31462 312.91876Q184.90837 313.15314 184.674 313.5125L183.68962 313.3875L184.51775 308.98126L188.799 308.98126L188.799 309.98126L185.3615 309.98126L184.90837 312.29376Q185.674 311.7469 186.51775 311.7469Q187.64275 311.7469 188.40837 312.52814Q189.18962 313.3094 189.18962 314.54376Q189.18962 315.7 188.51775 316.5594Q187.68962 317.59064 186.26775 317.59064Q185.09587 317.59064 184.34587 316.9344Q183.6115 316.27814 183.50212 315.2Z" fill-rule="nonzero"/><path fill="#000000" d="M286.1122 317.45L285.06534 317.45L285.06534 310.73126Q284.6747 311.09064 284.0497 311.46564Q283.44034 311.825 282.95596 311.9969L282.95596 310.98126Q283.83096 310.5594 284.4872 309.98126Q285.1591 309.3875 285.44034 308.825L286.1122 308.825L286.1122 317.45ZM289.14346 313.21564Q289.14346 311.6844 289.45596 310.7625Q289.76846 309.825 290.37784 309.325Q291.00284 308.825 291.94034 308.825Q292.62784 308.825 293.14346 309.10626Q293.6747 309.3875 294.01846 309.91876Q294.3622 310.4344 294.5497 311.1844Q294.7372 311.9344 294.7372 313.21564Q294.7372 314.73126 294.4247 315.65314Q294.12784 316.575 293.50284 317.09064Q292.89346 317.59064 291.94034 317.59064Q290.70596 317.59064 289.9872 316.7Q289.14346 315.6375 289.14346 313.21564ZM290.2216 313.21564Q290.2216 315.325 290.7216 316.02814Q291.2216 316.73126 291.94034 316.73126Q292.6747 316.73126 293.1591 316.02814Q293.6591 315.325 293.6591 313.21564Q293.6591 311.09064 293.1591 310.40314Q292.6747 309.7 291.9247 309.7Q291.20596 309.7 290.76846 310.3094Q290.2216 311.09064 290.2216 313.21564Z" fill-rule="nonzero"/><path fill="#000000" d="M388.25357 317.45L387.2067 317.45L387.2067 310.73126Q386.81607 311.09064 386.19107 311.46564Q385.5817 311.825 385.09732 311.9969L385.09732 310.98126Q385.97232 310.5594 386.62857 309.98126Q387.30045 309.3875 387.5817 308.825L388.25357 308.825L388.25357 317.45ZM391.28482 315.2L392.3942 315.10626Q392.5192 315.91876 392.9567 316.325Q393.40982 316.73126 394.05045 316.73126Q394.80045 316.73126 395.3317 316.15314Q395.86295 315.575 395.86295 314.6375Q395.86295 313.73126 395.34732 313.21564Q394.84732 312.6844 394.0192 312.6844Q393.5192 312.6844 393.09732 312.91876Q392.69107 313.15314 392.4567 313.5125L391.47232 313.3875L392.30045 308.98126L396.5817 308.98126L396.5817 309.98126L393.1442 309.98126L392.69107 312.29376Q393.4567 311.7469 394.30045 311.7469Q395.42545 311.7469 396.19107 312.52814Q396.97232 313.3094 396.97232 314.54376Q396.97232 315.7 396.30045 316.5594Q395.47232 317.59064 394.05045 317.59064Q392.87857 317.59064 392.12857 316.9344Q391.3942 316.27814 391.28482 315.2Z" fill-rule="nonzero"/><path fill="#000000" d="M491.97302 316.4344L491.97302 317.45L486.28552 317.45Q486.28552 317.075 486.41052 316.71564Q486.62927 316.1375 487.09802 315.575Q487.5824 315.0125 488.48865 314.27814Q489.8949 313.1219 490.37927 312.45Q490.87927 311.77814 490.87927 311.1844Q490.87927 310.5594 490.42615 310.1375Q489.97302 309.7 489.25427 309.7Q488.48865 309.7 488.03552 310.15314Q487.5824 310.60626 487.56677 311.41876L486.48865 311.3094Q486.59802 310.09064 487.31677 309.46564Q488.05115 308.825 489.28552 308.825Q490.5199 308.825 491.23865 309.5125Q491.9574 310.2 491.9574 311.21564Q491.9574 311.73126 491.73865 312.23126Q491.53552 312.71564 491.03552 313.27814Q490.55115 313.825 489.42615 314.77814Q488.47302 315.575 488.19177 315.8719Q487.92615 316.15314 487.75427 316.4344L491.97302 316.4344ZM493.42615 313.21564Q493.42615 311.6844 493.73865 310.7625Q494.05115 309.825 494.66052 309.325Q495.28552 308.825 496.22302 308.825Q496.91052 308.825 497.42615 309.10626Q497.9574 309.3875 498.30115 309.91876Q498.6449 310.4344 498.8324 311.1844Q499.0199 311.9344 499.0199 313.21564Q499.0199 314.73126 498.7074 315.65314Q498.41052 316.575 497.78552 317.09064Q497.17615 317.59064 496.22302 317.59064Q494.98865 317.59064 494.2699 316.7Q493.42615 315.6375 493.42615 313.21564ZM494.50427 313.21564Q494.50427 315.325 495.00427 316.02814Q495.50427 316.73126 496.22302 316.73126Q496.9574 316.73126 497.44177 316.02814Q497.94177 315.325 497.94177 313.21564Q497.94177 311.09064 497.44177 310.40314Q496.9574 309.7 496.2074 309.7Q495.48865 309.7 495.05115 310.3094Q494.50427 311.09064 494.50427 313.21564Z" fill-rule="nonzero"/><path fill="#757575" d="M20.08125 37.55L20.08125 23.2375L22.01875 23.2375L29.534374 34.471874L29.534374 23.2375L31.346874 23.2375L31.346874 37.55L29.409374 37.55L21.89375 26.3L21.89375 37.55L20.08125 37.55ZM40.659374 37.55L40.659374 36.01875Q39.45625 37.784374 37.378124 37.784374Q36.45625 37.784374 35.659374 37.440624Q34.8625 37.08125 34.471874 36.55Q34.096874 36.01875 33.940624 35.2375Q33.83125 34.721874 33.83125 33.596874L33.83125 27.175L35.58125 27.175L35.58125 32.925Q35.58125 34.3 35.690624 34.784374Q35.8625 35.471874 36.39375 35.878124Q36.940624 36.26875 37.721874 36.26875Q38.51875 36.26875 39.20625 35.8625Q39.909374 35.45625 40.190624 34.76875Q40.4875 34.065624 40.4875 32.7375L40.4875 27.175L42.2375 27.175L42.2375 37.55L40.659374 37.55ZM44.8625 37.55L44.8625 27.175L46.440624 27.175L46.440624 28.628124Q46.925 27.878124 47.7375 27.409374Q48.55 26.940624 49.58125 26.940624Q50.7375 26.940624 51.471874 27.425Q52.20625 27.89375 52.51875 28.753124Q53.753124 26.940624 55.721874 26.940624Q57.26875 26.940624 58.096874 27.8Q58.925 28.659374 58.925 30.425L58.925 37.55L57.175 37.55L57.175 31.01875Q57.175 29.95625 57.003124 29.503124Q56.83125 29.034374 56.378124 28.753124Q55.940624 28.471874 55.33125 28.471874Q54.2375 28.471874 53.503124 29.20625Q52.784374 29.925 52.784374 31.51875L52.784374 37.55L51.034374 37.55L51.034374 30.815624Q51.034374 29.64375 50.596874 29.065624Q50.175 28.471874 49.190624 28.471874Q48.45625 28.471874 47.815624 28.8625Q47.190624 29.253124 46.909374 30.003124Q46.628124 30.753124 46.628124 32.175L46.628124 37.55L44.8625 37.55ZM63.4875 37.55L61.8625 37.55L61.8625 23.2375L63.6125 23.2375L63.6125 28.346874Q64.7375 26.940624 66.45625 26.940624Q67.40938 26.940624 68.26875 27.33125Q69.12813 27.721874 69.675 28.425Q70.22188 29.1125 70.53438 30.096874Q70.84688 31.08125 70.84688 32.20625Q70.84688 34.878124 69.53438 36.33125Q68.22188 37.784374 66.37813 37.784374Q64.53438 37.784374 63.4875 36.253124L63.4875 37.55ZM63.471874 32.284374Q63.471874 34.14375 63.971874 34.9875Q64.81563 36.33125 66.22188 36.33125Q67.37813 36.33125 68.20625 35.33125Q69.05 34.33125 69.05 32.346874Q69.05 30.315624 68.2375 29.3625Q67.44063 28.39375 66.3 28.39375Q65.14375 28.39375 64.3 29.39375Q63.471874 30.39375 63.471874 32.284374ZM79.97188 34.20625L81.78438 34.440624Q81.3625 36.01875 80.19063 36.909374Q79.03438 37.784374 77.22188 37.784374Q74.95625 37.784374 73.6125 36.39375Q72.28438 34.9875 72.28438 32.45625Q72.28438 29.83125 73.62813 28.39375Q74.97188 26.940624 77.12813 26.940624Q79.20625 26.940624 80.51875 28.3625Q81.84688 29.76875 81.84688 32.346874Q81.84688 32.503124 81.83125 32.815624L74.09688 32.815624Q74.19063 34.51875 75.06563 35.425Q75.94063 36.33125 77.2375 36.33125Q78.20625 36.33125 78.87813 35.83125Q79.56563 35.315624 79.97188 34.20625ZM74.19063 31.3625L79.9875 31.3625Q79.87813 30.065624 79.33125 29.409374Q78.4875 28.39375 77.14375 28.39375Q75.94063 28.39375 75.1125 29.20625Q74.28438 30.003124 74.19063 31.3625ZM83.84688 37.55L83.84688 27.175L85.425 27.175L85.425 28.753124Q86.03438 27.64375 86.55 27.3Q87.06563 26.940624 87.675 26.940624Q88.56563 26.940624 89.4875 27.503124L88.87813 29.14375Q88.2375 28.753124 87.59688 28.753124Q87.01875 28.753124 86.55 29.1125Q86.09688 29.45625 85.89375 30.065624Q85.6125 31.003124 85.6125 32.1125L85.6125 37.55L83.84688 37.55ZM96.22188 32.3625Q96.22188 29.4875 97.81563 28.096874Q99.15938 26.940624 101.08125 26.940624Q103.22188 26.940624 104.56563 28.346874Q105.925 29.753124 105.925 32.221874Q105.925 34.221874 105.33125 35.378124Q104.7375 36.51875 103.58125 37.159374Q102.44063 37.784374 101.08125 37.784374Q98.89375 37.784374 97.55 36.39375Q96.22188 34.9875 96.22188 32.3625ZM98.01875 32.3625Q98.01875 34.3625 98.87813 35.346874Q99.75313 36.33125 101.08125 36.33125Q102.39375 36.33125 103.25313 35.346874Q104.12813 34.346874 104.12813 32.3Q104.12813 30.378124 103.25313 29.39375Q102.37813 28.39375 101.08125 28.39375Q99.75313 28.39375 98.87813 29.39375Q98.01875 30.378124 98.01875 32.3625ZM108.28438 37.55L108.28438 28.55L106.7375 28.55L106.7375 27.175L108.28438 27.175L108.28438 26.08125Q108.28438 25.034374 108.47188 24.51875Q108.72188 23.83125 109.3625 23.409374Q110.00313 22.9875 111.15938 22.9875Q111.90938 22.9875 112.8 23.159374L112.53438 24.690624Q111.9875 24.596874 111.50313 24.596874Q110.70625 24.596874 110.3625 24.940624Q110.03438 25.284374 110.03438 26.221874L110.03438 27.175L112.06563 27.175L112.06563 28.55L110.03438 28.55L110.03438 37.55L108.28438 37.55ZM120.12813 37.55L120.12813 23.2375L126.47188 23.2375Q128.37813 23.2375 129.37813 23.628124Q130.37813 24.003124 130.97188 24.9875Q131.56563 25.95625 131.56563 27.14375Q131.56563 28.659374 130.58125 29.70625Q129.59688 30.753124 127.53438 31.034374Q128.28438 31.39375 128.675 31.753124Q129.50313 32.503124 130.25313 33.659374L132.7375 37.55L130.3625 37.55L128.45625 34.565624Q127.62813 33.284374 127.09688 32.596874Q126.56563 31.909374 126.12813 31.64375Q125.70625 31.3625 125.26875 31.253124Q124.94063 31.190624 124.22188 31.190624L122.01875 31.190624L122.01875 37.55L120.12813 37.55ZM122.01875 29.55L126.09688 29.55Q127.39375 29.55 128.1125 29.284374Q128.84688 29.01875 129.22188 28.425Q129.6125 27.83125 129.6125 27.14375Q129.6125 26.128124 128.87813 25.471874Q128.14375 24.815624 126.55 24.815624L122.01875 24.815624L122.01875 29.55ZM140.97188 34.20625L142.78438 34.440624Q142.3625 36.01875 141.19063 36.909374Q140.03438 37.784374 138.22188 37.784374Q135.95625 37.784374 134.6125 36.39375Q133.28438 34.9875 133.28438 32.45625Q133.28438 29.83125 134.62813 28.39375Q135.97188 26.940624 138.12813 26.940624Q140.20625 26.940624 141.51875 28.3625Q142.84688 29.76875 142.84688 32.346874Q142.84688 32.503124 142.83125 32.815624L135.09688 32.815624Q135.19063 34.51875 136.06563 35.425Q136.94063 36.33125 138.2375 36.33125Q139.20625 36.33125 139.87813 35.83125Q140.56563 35.315624 140.97188 34.20625ZM135.19063 31.3625L140.9875 31.3625Q140.87813 30.065624 140.33125 29.409374Q139.4875 28.39375 138.14375 28.39375Q136.94063 28.39375 136.1125 29.20625Q135.28438 30.003124 135.19063 31.3625ZM144.83125 37.55L144.83125 23.2375L146.58125 23.2375L146.58125 37.55L144.83125 37.55ZM155.64375 36.26875Q154.65938 37.096874 153.75313 37.440624Q152.84688 37.784374 151.81563 37.784374Q150.1125 37.784374 149.19063 36.95625Q148.26875 36.1125 148.26875 34.815624Q148.26875 34.05 148.6125 33.425Q148.97188 32.8 149.53438 32.425Q150.09688 32.034374 150.8 31.83125Q151.31563 31.70625 152.3625 31.565624Q154.4875 31.315624 155.4875 30.971874Q155.50313 30.6125 155.50313 30.503124Q155.50313 29.440624 155.00313 28.9875Q154.33125 28.39375 153.00313 28.39375Q151.75313 28.39375 151.15938 28.83125Q150.58125 29.26875 150.3 30.378124L148.58125 30.14375Q148.81563 29.034374 149.34688 28.3625Q149.87813 27.675 150.89375 27.315624Q151.90938 26.940624 153.25313 26.940624Q154.58125 26.940624 155.40938 27.253124Q156.2375 27.565624 156.62813 28.05Q157.01875 28.51875 157.175 29.2375Q157.26875 29.690624 157.26875 30.8625L157.26875 33.20625Q157.26875 35.659374 157.37813 36.315624Q157.4875 36.95625 157.83125 37.55L155.9875 37.55Q155.72188 37.003124 155.64375 36.26875ZM155.4875 32.346874Q154.53438 32.7375 152.6125 33.003124Q151.53438 33.159374 151.08125 33.3625Q150.64375 33.55 150.39375 33.925Q150.14375 34.3 150.14375 34.76875Q150.14375 35.471874 150.675 35.940624Q151.20625 36.409374 152.2375 36.409374Q153.25313 36.409374 154.03438 35.971874Q154.83125 35.51875 155.20625 34.753124Q155.4875 34.14375 155.4875 32.9875L155.4875 32.346874ZM159.78438 41.55L159.59688 39.89375Q160.175 40.05 160.59688 40.05Q161.19063 40.05 161.53438 39.846874Q161.89375 39.659374 162.1125 39.315624Q162.28438 39.05 162.65938 38.003124Q162.70625 37.846874 162.81563 37.565624L158.87813 27.175L160.76875 27.175L162.925 33.190624Q163.34688 34.33125 163.675 35.58125Q163.9875 34.378124 164.39375 33.221874L166.6125 27.175L168.37813 27.175L164.425 37.721874Q163.8 39.440624 163.44063 40.08125Q162.97188 40.95625 162.3625 41.346874Q161.76875 41.753124 160.925 41.753124Q160.40938 41.753124 159.78438 41.55ZM176.08125 37.55L176.08125 23.2375L178.01875 23.2375L185.53438 34.471874L185.53438 23.2375L187.34688 23.2375L187.34688 37.55L185.40938 37.55L177.89375 26.3L177.89375 37.55L176.08125 37.55ZM189.22188 32.3625Q189.22188 29.4875 190.81563 28.096874Q192.15938 26.940624 194.08125 26.940624Q196.22188 26.940624 197.56563 28.346874Q198.925 29.753124 198.925 32.221874Q198.925 34.221874 198.33125 35.378124Q197.7375 36.51875 196.58125 37.159374Q195.44063 37.784374 194.08125 37.784374Q191.89375 37.784374 190.55 36.39375Q189.22188 34.9875 189.22188 32.3625ZM191.01875 32.3625Q191.01875 34.3625 191.87813 35.346874Q192.75313 36.33125 194.08125 36.33125Q195.39375 36.33125 196.25313 35.346874Q197.12813 34.346874 197.12813 32.3Q197.12813 30.378124 196.25313 29.39375Q195.37813 28.39375 194.08125 28.39375Q192.75313 28.39375 191.87813 29.39375Q191.01875 30.378124 191.01875 32.3625ZM207.59688 37.55L207.59688 36.2375Q206.6125 37.784374 204.69063 37.784374Q203.45625 37.784374 202.40938 37.096874Q201.37813 36.409374 200.8 35.190624Q200.2375 33.971874 200.2375 32.378124Q200.2375 30.815624 200.75313 29.55Q201.26875 28.284374 202.3 27.6125Q203.34688 26.940624 204.6125 26.940624Q205.55 26.940624 206.28438 27.346874Q207.01875 27.7375 207.4875 28.3625L207.4875 23.2375L209.22188 23.2375L209.22188 37.55L207.59688 37.55ZM202.03438 32.378124Q202.03438 34.3625 202.87813 35.346874Q203.72188 36.33125 204.8625 36.33125Q206.01875 36.33125 206.81563 35.39375Q207.62813 34.45625 207.62813 32.51875Q207.62813 30.39375 206.8 29.39375Q205.9875 28.39375 204.78438 28.39375Q203.6125 28.39375 202.81563 29.3625Q202.03438 30.315624 202.03438 32.378124ZM218.97188 34.20625L220.78438 34.440624Q220.3625 36.01875 219.19063 36.909374Q218.03438 37.784374 216.22188 37.784374Q213.95625 37.784374 212.6125 36.39375Q211.28438 34.9875 211.28438 32.45625Q211.28438 29.83125 212.62813 28.39375Q213.97188 26.940624 216.12813 26.940624Q218.20625 26.940624 219.51875 28.3625Q220.84688 29.76875 220.84688 32.346874Q220.84688 32.503124 220.83125 32.815624L213.09688 32.815624Q213.19063 34.51875 214.06563 35.425Q214.94063 36.33125 216.2375 36.33125Q217.20625 36.33125 217.87813 35.83125Q218.56563 35.315624 218.97188 34.20625ZM213.19063 31.3625L218.9875 31.3625Q218.87813 30.065624 218.33125 29.409374Q217.4875 28.39375 216.14375 28.39375Q214.94063 28.39375 214.1125 29.20625Q213.28438 30.003124 213.19063 31.3625ZM222.15938 34.45625L223.90938 34.175Q224.05 35.221874 224.72188 35.784374Q225.39375 36.33125 226.59688 36.33125Q227.8 36.33125 228.37813 35.846874Q228.97188 35.346874 228.97188 34.690624Q228.97188 34.096874 228.45625 33.753124Q228.09688 33.51875 226.65938 33.159374Q224.72188 32.659374 223.97188 32.315624Q223.2375 31.95625 222.84688 31.33125Q222.45625 30.690624 222.45625 29.925Q222.45625 29.2375 222.76875 28.64375Q223.09688 28.05 223.64375 27.659374Q224.05 27.3625 224.75313 27.159374Q225.47188 26.940624 226.28438 26.940624Q227.50313 26.940624 228.425 27.3Q229.34688 27.64375 229.78438 28.253124Q230.22188 28.846874 230.39375 29.846874L228.675 30.08125Q228.55 29.284374 227.9875 28.846874Q227.425 28.39375 226.40938 28.39375Q225.19063 28.39375 224.675 28.8Q224.15938 29.190624 224.15938 29.721874Q224.15938 30.065624 224.37813 30.346874Q224.58125 30.628124 225.05 30.815624Q225.31563 30.909374 226.59688 31.253124Q228.47188 31.753124 229.20625 32.08125Q229.94063 32.39375 230.3625 33.003124Q230.78438 33.596874 230.78438 34.503124Q230.78438 35.378124 230.26875 36.159374Q229.75313 36.940624 228.78438 37.3625Q227.81563 37.784374 226.59688 37.784374Q224.58125 37.784374 223.51875 36.940624Q222.45625 36.096874 222.15938 34.45625ZM243.19063 37.55L237.64375 23.2375L239.69063 23.2375L243.40938 33.628124Q243.8625 34.878124 244.15938 35.971874Q244.4875 34.8 244.94063 33.628124L248.8 23.2375L250.7375 23.2375L245.12813 37.55L243.19063 37.55ZM251.45625 32.95625L253.2375 32.8Q253.3625 33.8625 253.81563 34.55Q254.28438 35.2375 255.25313 35.675Q256.2375 36.096874 257.47186 36.096874Q258.55 36.096874 259.3781 35.784374Q260.20624 35.45625 260.6125 34.89375Q261.01874 34.33125 261.01874 33.659374Q261.01874 32.9875 260.6281 32.4875Q260.2375 31.9875 259.34686 31.64375Q258.76874 31.409374 256.78436 30.940624Q254.81563 30.471874 254.03438 30.05Q253.00313 29.51875 252.50313 28.721874Q252.00313 27.925 252.00313 26.940624Q252.00313 25.846874 252.6125 24.909374Q253.22188 23.971874 254.40938 23.4875Q255.59688 22.9875 257.03436 22.9875Q258.6281 22.9875 259.84686 23.503124Q261.0656 24.01875 261.70624 25.01875Q262.3625 26.003124 262.40936 27.26875L260.59686 27.409374Q260.45624 26.05 259.6125 25.3625Q258.76874 24.659374 257.1125 24.659374Q255.39375 24.659374 254.59688 25.3Q253.81563 25.925 253.81563 26.8Q253.81563 27.58125 254.37813 28.08125Q254.925 28.58125 257.2375 29.096874Q259.55 29.6125 260.40936 30.003124Q261.65936 30.58125 262.2531 31.471874Q262.84686 32.346874 262.84686 33.503124Q262.84686 34.64375 262.1906 35.659374Q261.53436 36.675 260.3 37.2375Q259.08124 37.8 257.55 37.8Q255.6125 37.8 254.3 37.2375Q252.9875 36.659374 252.2375 35.51875Q251.4875 34.378124 251.45625 32.95625ZM271.1906 37.55L271.1906 23.2375L280.84686 23.2375L280.84686 24.925L273.08124 24.925L273.08124 29.3625L279.8 29.3625L279.8 31.05L273.08124 31.05L273.08124 37.55L271.1906 37.55ZM283.09686 37.55L283.09686 23.2375L288.01874 23.2375Q289.6906 23.2375 290.58124 23.440624Q291.8 23.721874 292.675 24.45625Q293.8 25.425 294.3625 26.909374Q294.925 28.39375 294.925 30.315624Q294.925 31.940624 294.55 33.20625Q294.175 34.45625 293.5656 35.284374Q292.97186 36.1125 292.26874 36.596874Q291.5656 37.065624 290.5656 37.315624Q289.5656 37.55 288.2531 37.55L283.09686 37.55ZM284.9875 35.8625L288.05 35.8625Q289.45624 35.8625 290.2531 35.596874Q291.0656 35.33125 291.55 34.846874Q292.22186 34.175 292.59686 33.05Q292.97186 31.909374 292.97186 30.284374Q292.97186 28.034374 292.2375 26.83125Q291.5031 25.628124 290.4406 25.221874Q289.6906 24.925 288.0031 24.925L284.9875 24.925L284.9875 35.8625ZM297.1281 37.55L297.1281 23.2375L303.47186 23.2375Q305.3781 23.2375 306.3781 23.628124Q307.3781 24.003124 307.97186 24.9875Q308.5656 25.95625 308.5656 27.14375Q308.5656 28.659374 307.58124 29.70625Q306.59686 30.753124 304.53436 31.034374Q305.28436 31.39375 305.675 31.753124Q306.5031 32.503124 307.2531 33.659374L309.7375 37.55L307.3625 37.55L305.45624 34.565624Q304.6281 33.284374 304.09686 32.596874Q303.5656 31.909374 303.1281 31.64375Q302.70624 31.3625 302.26874 31.253124Q301.9406 31.190624 301.22186 31.190624L299.01874 31.190624L299.01874 37.55L297.1281 37.55ZM299.01874 29.55L303.09686 29.55Q304.39374 29.55 305.1125 29.284374Q305.84686 29.01875 306.22186 28.425Q306.6125 27.83125 306.6125 27.14375Q306.6125 26.128124 305.8781 25.471874Q305.14374 24.815624 303.55 24.815624L299.01874 24.815624L299.01874 29.55ZM316.84686 37.55L316.84686 27.175L318.425 27.175L318.425 28.753124Q319.03436 27.64375 319.55 27.3Q320.0656 26.940624 320.675 26.940624Q321.5656 26.940624 322.4875 27.503124L321.8781 29.14375Q321.2375 28.753124 320.59686 28.753124Q320.01874 28.753124 319.55 29.1125Q319.09686 29.45625 318.89374 30.065624Q318.6125 31.003124 318.6125 32.1125L318.6125 37.55L316.84686 37.55ZM330.64374 36.26875Q329.65936 37.096874 328.7531 37.440624Q327.84686 37.784374 326.8156 37.784374Q325.1125 37.784374 324.1906 36.95625Q323.26874 36.1125 323.26874 34.815624Q323.26874 34.05 323.6125 33.425Q323.97186 32.8 324.53436 32.425Q325.09686 32.034374 325.8 31.83125Q326.3156 31.70625 327.3625 31.565624Q329.4875 31.315624 330.4875 30.971874Q330.5031 30.6125 330.5031 30.503124Q330.5031 29.440624 330.0031 28.9875Q329.33124 28.39375 328.0031 28.39375Q326.7531 28.39375 326.15936 28.83125Q325.58124 29.26875 325.3 30.378124L323.58124 30.14375Q323.8156 29.034374 324.34686 28.3625Q324.8781 27.675 325.89374 27.315624Q326.90936 26.940624 328.2531 26.940624Q329.58124 26.940624 330.40936 27.253124Q331.2375 27.565624 331.6281 28.05Q332.01874 28.51875 332.175 29.2375Q332.26874 29.690624 332.26874 30.8625L332.26874 33.20625Q332.26874 35.659374 332.3781 36.315624Q332.4875 36.95625 332.83124 37.55L330.9875 37.55Q330.72186 37.003124 330.64374 36.26875ZM330.4875 32.346874Q329.53436 32.7375 327.6125 33.003124Q326.53436 33.159374 326.08124 33.3625Q325.64374 33.55 325.39374 33.925Q325.14374 34.3 325.14374 34.76875Q325.14374 35.471874 325.675 35.940624Q326.20624 36.409374 327.2375 36.409374Q328.2531 36.409374 329.03436 35.971874Q329.83124 35.51875 330.20624 34.753124Q330.4875 34.14375 330.4875 32.9875L330.4875 32.346874ZM338.70624 35.971874L338.95624 37.534374Q338.22186 37.690624 337.6281 37.690624Q336.675 37.690624 336.14374 37.39375Q335.6281 37.08125 335.40936 36.596874Q335.1906 36.096874 335.1906 34.51875L335.1906 28.55L333.90936 28.55L333.90936 27.175L335.1906 27.175L335.1906 24.6125L336.9406 23.55L336.9406 27.175L338.70624 27.175L338.70624 28.55L336.9406 28.55L336.9406 34.6125Q336.9406 35.3625 337.03436 35.58125Q337.1281 35.784374 337.33124 35.925Q337.55 36.05 337.9406 36.05Q338.22186 36.05 338.70624 35.971874ZM347.97186 34.20625L349.78436 34.440624Q349.3625 36.01875 348.1906 36.909374Q347.03436 37.784374 345.22186 37.784374Q342.95624 37.784374 341.6125 36.39375Q340.28436 34.9875 340.28436 32.45625Q340.28436 29.83125 341.6281 28.39375Q342.97186 26.940624 345.1281 26.940624Q347.20624 26.940624 348.51874 28.3625Q349.84686 29.76875 349.84686 32.346874Q349.84686 32.503124 349.83124 32.815624L342.09686 32.815624Q342.1906 34.51875 343.0656 35.425Q343.9406 36.33125 345.2375 36.33125Q346.20624 36.33125 346.8781 35.83125Q347.5656 35.315624 347.97186 34.20625ZM342.1906 31.3625L347.9875 31.3625Q347.8781 30.065624 347.33124 29.409374Q346.4875 28.39375 345.14374 28.39375Q343.9406 28.39375 343.1125 29.20625Q342.28436 30.003124 342.1906 31.3625Z" fill-rule="nonzero"/></svg>