<svg version="1.1" viewBox="0.0 0.0 600.0 371.0" fill="none" stroke="none" stroke-linecap="square" stroke-miterlimit="10" width="600" height="371" xmlns:xlink="http://www.w3.org/1999/xlink" xmlns="http://www.w3.org/2000/svg"><path fill="#ffffff" d="M0 0L600.0 0L600.0 371.0L0 371.0L0 0Z" fill-rule="nonzero"/><path stroke="#333333" stroke-width="1.0" stroke-linecap="butt" d="M87.5 61.5L87.5 300.5" fill-rule="nonzero"/><path stroke="#cccccc" stroke-width="1.0" stroke-linecap="butt" d="M186.5 61.5L186.5 300.5" fill-rule="nonzero"/><path stroke="#cccccc" stroke-width="1.0" stroke-linecap="butt" d="M286.5 61.5L286.5 300.5" fill-rule="nonzero"/><path stroke="#cccccc" stroke-width="1.0" stroke-linecap="butt" d="M385.5 61.5L385.5 300.5" fill-rule="nonzero"/><path stroke="#cccccc" stroke-width="1.0" stroke-linecap="butt" d="M485.5 61.5L485.5 300.5" fill-rule="nonzero"/><path stroke="#cccccc" stroke-width="1.0" stroke-linecap="butt" d="M80.5 300.5L581.5 300.5" fill-rule="nonzero"/><path stroke="#cccccc" stroke-width="1.0" stroke-linecap="butt" d="M80.5 252.5L581.5 252.5" fill-rule="nonzero"/><path stroke="#cccccc" stroke-width="1.0" stroke-linecap="butt" d="M80.5 205.5L581.5 205.5" fill-rule="nonzero"/><path stroke="#cccccc" stroke-width="1.0" stroke-linecap="butt" d="M80.5 157.5L581.5 157.5" fill-rule="nonzero"/><path stroke="#cccccc" stroke-width="1.0" stroke-linecap="butt" d="M80.5 109.5L581.5 109.5" fill-rule="nonzero"/><path stroke="#cccccc" stroke-width="1.0" stroke-linecap="butt" d="M80.5 61.5L581.5 61.5" fill-rule="nonzero"/><clipPath id="id_0"><path d="M80.55 61.916668L581.45 61.916668L581.45 300.45L80.55 300.45L80.55 61.916668Z" clip-rule="nonzero"/></clipPath><path fill="#4285f4" clip-path="url(#id_0)" d="M91.85967 103.746956C91.85967 106.23223 89.844955 108.246956 87.35967 108.246956C84.87439 108.246956 82.85967 106.23223 82.85967 103.746956C82.85967 101.26167 84.87439 99.246956 87.35967 99.246956C89.844955 99.246956 91.85967 101.26167 91.85967 103.746956Z" fill-rule="nonzero"/><path fill="#4285f4" clip-path="url(#id_0)" d="M101.80418 100.47336C101.80418 102.95863 99.78946 104.97336 97.30418 104.97336C94.81889 104.97336 92.80418 102.95863 92.80418 100.47336C92.80418 97.988075 94.81889 95.97336 97.30418 95.97336C99.78946 95.97336 101.80418 97.988075 101.80418 100.47336Z" fill-rule="nonzero"/><path fill="#4285f4" clip-path="url(#id_0)" d="M111.74868 98.14614C111.74868 100.631424 109.73396 102.64614 107.24868 102.64614C104.7634 102.64614 102.74868 100.631424 102.74868 98.14614C102.74868 95.66086 104.7634 93.64614 107.24868 93.64614C109.73396 93.64614 111.74868 95.66086 111.74868 98.14614Z" fill-rule="nonzero"/><path fill="#4285f4" clip-path="url(#id_0)" d="M121.693184 105.54936C121.693184 108.034645 119.67846 110.04936 117.193184 110.04936C114.7079 110.04936 112.693184 108.034645 112.693184 105.54936C112.693184 103.06408 114.7079 101.04936 117.193184 101.04936C119.67846 101.04936 121.693184 103.06408 121.693184 105.54936Z" fill-rule="nonzero"/><path fill="#4285f4" clip-path="url(#id_0)" d="M131.63768 121.53638C131.63768 124.02166 129.62297 126.03638 127.13769 126.03638C124.652405 126.03638 122.63769 124.02166 122.63769 121.53638C122.63769 119.051094 124.652405 117.03638 127.13769 117.03638C129.62297 117.03638 131.63768 119.051094 131.63768 121.53638Z" fill-rule="nonzero"/><path fill="#4285f4" clip-path="url(#id_0)" d="M141.58218 123.085175C141.58218 125.57046 139.56747 127.585175 137.08218 127.585175C134.59691 127.585175 132.58218 125.57046 132.58218 123.085175C132.58218 120.59989 134.59691 118.585175 137.08218 118.585175C139.56747 118.585175 141.58218 120.59989 141.58218 123.085175Z" fill-rule="nonzero"/><path fill="#4285f4" clip-path="url(#id_0)" d="M151.52669 126.84339C151.52669 129.32867 149.51198 131.34338 147.02669 131.34338C144.54141 131.34338 142.52669 129.32867 142.52669 126.84339C142.52669 124.35811 144.54141 122.34339 147.02669 122.34339C149.51198 122.34339 151.52669 124.35811 151.52669 126.84339Z" fill-rule="nonzero"/><path fill="#4285f4" clip-path="url(#id_0)" d="M161.47119 108.69479C161.47119 111.18008 159.45648 113.19479 156.97119 113.19479C154.48592 113.19479 152.47119 111.18008 152.47119 108.69479C152.47119 106.20951 154.48592 104.19479 156.97119 104.19479C159.45648 104.19479 161.47119 106.20951 161.47119 108.69479Z" fill-rule="nonzero"/><path fill="#4285f4" clip-path="url(#id_0)" d="M171.4157 115.56715C171.4157 118.05242 169.40099 120.06715 166.9157 120.06715C164.43042 120.06715 162.4157 118.05242 162.4157 115.56715C162.4157 113.08186 164.43042 111.06715 166.9157 111.06715C169.40099 111.06715 171.4157 113.08186 171.4157 115.56715Z" fill-rule="nonzero"/><path fill="#4285f4" clip-path="url(#id_0)" d="M181.3602 116.89275C181.3602 119.37804 179.34549 121.39275 176.8602 121.39275C174.37492 121.39275 172.3602 119.37804 172.3602 116.89275C172.3602 114.40747 174.37492 112.39275 176.8602 112.39275C179.34549 112.39275 181.3602 114.40747 181.3602 116.89275Z" fill-rule="nonzero"/><path fill="#4285f4" clip-path="url(#id_0)" d="M191.3047 127.63602C191.3047 130.12129 189.28998 132.13602 186.8047 132.13602C184.31943 132.13602 182.3047 130.12129 182.3047 127.63602C182.3047 125.150734 184.31943 123.13602 186.8047 123.13602C189.28998 123.13602 191.3047 125.150734 191.3047 127.63602Z" fill-rule="nonzero"/><path fill="#4285f4" clip-path="url(#id_0)" d="M201.2492 136.27428C201.2492 138.75957 199.23448 140.77428 196.7492 140.77428C194.26393 140.77428 192.2492 138.75957 192.2492 136.27428C192.2492 133.789 194.26393 131.77428 196.7492 131.77428C199.23448 131.77428 201.2492 133.789 201.2492 136.27428Z" fill-rule="nonzero"/><path fill="#4285f4" clip-path="url(#id_0)" d="M211.19371 131.31622C211.19371 133.8015 209.17899 135.81622 206.69371 135.81622C204.20844 135.81622 202.19371 133.8015 202.19371 131.31622C202.19371 128.83093 204.20844 126.816216 206.69371 126.816216C209.17899 126.816216 211.19371 128.83093 211.19371 131.31622Z" fill-rule="nonzero"/><path fill="#4285f4" clip-path="url(#id_0)" d="M221.13821 144.26898C221.13821 146.75427 219.12349 148.76898 216.63821 148.76898C214.15294 148.76898 212.13821 146.75427 212.13821 144.26898C212.13821 141.7837 214.15294 139.76898 216.63821 139.76898C219.12349 139.76898 221.13821 141.7837 221.13821 144.26898Z" fill-rule="nonzero"/><path fill="#4285f4" clip-path="url(#id_0)" d="M231.08272 162.88722C231.08272 165.3725 229.068 167.38722 226.58272 167.38722C224.09744 167.38722 222.08272 165.3725 222.08272 162.88722C222.08272 160.40193 224.09744 158.38722 226.58272 158.38722C229.068 158.38722 231.08272 160.40193 231.08272 162.88722Z" fill-rule="nonzero"/><path fill="#4285f4" clip-path="url(#id_0)" d="M241.02722 146.01744C241.02722 148.50272 239.0125 150.51744 236.52722 150.51744C234.04193 150.51744 232.02722 148.50272 232.02722 146.01744C232.02722 143.53217 234.04193 141.51744 236.52722 141.51744C239.0125 141.51744 241.02722 143.53217 241.02722 146.01744Z" fill-rule="nonzero"/><path fill="#4285f4" clip-path="url(#id_0)" d="M250.97173 165.48232C250.97173 167.96759 248.957 169.98232 246.47173 169.98232C243.98643 169.98232 241.97173 167.96759 241.97173 165.48232C241.97173 162.99704 243.98643 160.98232 246.47173 160.98232C248.957 160.98232 250.97173 162.99704 250.97173 165.48232Z" fill-rule="nonzero"/><path fill="#4285f4" clip-path="url(#id_0)" d="M260.91623 160.43335C260.91623 162.91862 258.90152 164.93335 256.41623 164.93335C253.93094 164.93335 251.91623 162.91862 251.91623 160.43335C251.91623 157.94806 253.93094 155.93335 256.41623 155.93335C258.90152 155.93335 260.91623 157.94806 260.91623 160.43335Z" fill-rule="nonzero"/><path fill="#4285f4" clip-path="url(#id_0)" d="M270.86072 156.65294C270.86072 159.13823 268.846 161.15294 266.36072 161.15294C263.87546 161.15294 261.86072 159.13823 261.86072 156.65294C261.86072 154.16766 263.87546 152.15294 266.36072 152.15294C268.846 152.15294 270.86072 154.16766 270.86072 156.65294Z" fill-rule="nonzero"/><path fill="#4285f4" clip-path="url(#id_0)" d="M280.80524 173.07649C280.80524 175.56177 278.79053 177.57649 276.30524 177.57649C273.81995 177.57649 271.80524 175.56177 271.80524 173.07649C271.80524 170.5912 273.81995 168.57649 276.30524 168.57649C278.79053 168.57649 280.80524 170.5912 280.80524 173.07649Z" fill-rule="nonzero"/><path fill="#4285f4" clip-path="url(#id_0)" d="M290.74973 178.30148C290.74973 180.78676 288.73502 182.80148 286.24973 182.80148C283.76447 182.80148 281.74973 180.78676 281.74973 178.30148C281.74973 175.8162 283.76447 173.80148 286.24973 173.80148C288.73502 173.80148 290.74973 175.8162 290.74973 178.30148Z" fill-rule="nonzero"/><path fill="#4285f4" clip-path="url(#id_0)" d="M300.69424 153.3937C300.69424 155.879 298.67953 157.8937 296.19424 157.8937C293.70895 157.8937 291.69424 155.879 291.69424 153.3937C291.69424 150.90843 293.70895 148.8937 296.19424 148.8937C298.67953 148.8937 300.69424 150.90843 300.69424 153.3937Z" fill-rule="nonzero"/><path fill="#4285f4" clip-path="url(#id_0)" d="M310.63873 183.54874C310.63873 186.03401 308.62402 188.04874 306.13873 188.04874C303.65347 188.04874 301.63873 186.03401 301.63873 183.54874C301.63873 181.06346 303.65347 179.04874 306.13873 179.04874C308.62402 179.04874 310.63873 181.06346 310.63873 183.54874Z" fill-rule="nonzero"/><path fill="#4285f4" clip-path="url(#id_0)" d="M320.58325 169.75162C320.58325 172.2369 318.5685 174.25162 316.08325 174.25162C313.59796 174.25162 311.58325 172.2369 311.58325 169.75162C311.58325 167.26633 313.59796 165.25162 316.08325 165.25162C318.5685 165.25162 320.58325 167.26633 320.58325 169.75162Z" fill-rule="nonzero"/><path fill="#4285f4" clip-path="url(#id_0)" d="M330.52774 190.11789C330.52774 192.60316 328.51303 194.61789 326.02774 194.61789C323.54248 194.61789 321.52774 192.60316 321.52774 190.11789C321.52774 187.6326 323.54248 185.61789 326.02774 185.61789C328.51303 185.61789 330.52774 187.6326 330.52774 190.11789Z" fill-rule="nonzero"/><path fill="#4285f4" clip-path="url(#id_0)" d="M340.47226 182.6188C340.47226 185.1041 338.45752 187.1188 335.97226 187.1188C333.48697 187.1188 331.47226 185.1041 331.47226 182.6188C331.47226 180.13353 333.48697 178.1188 335.97226 178.1188C338.45752 178.1188 340.47226 180.13353 340.47226 182.6188Z" fill-rule="nonzero"/><path fill="#4285f4" clip-path="url(#id_0)" d="M350.41675 181.30054C350.41675 183.78583 348.40204 185.80054 345.91675 185.80054C343.4315 185.80054 341.41675 183.78583 341.41675 181.30054C341.41675 178.81526 343.4315 176.80054 345.91675 176.80054C348.40204 176.80054 350.41675 178.81526 350.41675 181.30054Z" fill-rule="nonzero"/><path fill="#4285f4" clip-path="url(#id_0)" d="M360.36127 189.79181C360.36127 192.27708 358.34653 194.29181 355.86127 194.29181C353.37598 194.29181 351.36127 192.27708 351.36127 189.79181C351.36127 187.30653 353.37598 185.29181 355.86127 185.29181C358.34653 185.29181 360.36127 187.30653 360.36127 189.79181Z" fill-rule="nonzero"/><path fill="#4285f4" clip-path="url(#id_0)" d="M370.30576 197.55305C370.30576 200.03833 368.29105 202.05305 365.80576 202.05305C363.32047 202.05305 361.30576 200.03833 361.30576 197.55305C361.30576 195.06776 363.32047 193.05305 365.80576 193.05305C368.29105 193.05305 370.30576 195.06776 370.30576 197.55305Z" fill-rule="nonzero"/><path fill="#4285f4" clip-path="url(#id_0)" d="M380.25027 203.58055C380.25027 206.06584 378.23553 208.08055 375.75027 208.08055C373.26498 208.08055 371.25027 206.06584 371.25027 203.58055C371.25027 201.09528 373.26498 199.08055 375.75027 199.08055C378.23553 199.08055 380.25027 201.09528 380.25027 203.58055Z" fill-rule="nonzero"/><path fill="#4285f4" clip-path="url(#id_0)" d="M390.19476 216.92583C390.19476 219.4111 388.18005 221.42583 385.69476 221.42583C383.20947 221.42583 381.19476 219.4111 381.19476 216.92583C381.19476 214.44054 383.20947 212.42583 385.69476 212.42583C388.18005 212.42583 390.19476 214.44054 390.19476 216.92583Z" fill-rule="nonzero"/><path fill="#4285f4" clip-path="url(#id_0)" d="M400.13928 213.59375C400.13928 216.07903 398.12454 218.09375 395.63928 218.09375C393.154 218.09375 391.13928 216.07903 391.13928 213.59375C391.13928 211.10846 393.154 209.09375 395.63928 209.09375C398.12454 209.09375 400.13928 211.10846 400.13928 213.59375Z" fill-rule="nonzero"/><path fill="#4285f4" clip-path="url(#id_0)" d="M410.08377 204.2633C410.08377 206.74858 408.06906 208.7633 405.58377 208.7633C403.09848 208.7633 401.08377 206.74858 401.08377 204.2633C401.08377 201.77802 403.09848 199.7633 405.58377 199.7633C408.06906 199.7633 410.08377 201.77802 410.08377 204.2633Z" fill-rule="nonzero"/><path fill="#4285f4" clip-path="url(#id_0)" d="M420.0283 221.04054C420.0283 223.52583 418.01355 225.54054 415.5283 225.54054C413.043 225.54054 411.0283 223.52583 411.0283 221.04054C411.0283 218.55527 413.043 216.54054 415.5283 216.54054C418.01355 216.54054 420.0283 218.55527 420.0283 221.04054Z" fill-rule="nonzero"/><path fill="#4285f4" clip-path="url(#id_0)" d="M429.97278 222.99324C429.97278 225.47852 427.95807 227.49324 425.47278 227.49324C422.9875 227.49324 420.97278 225.47852 420.97278 222.99324C420.97278 220.50795 422.9875 218.49324 425.47278 218.49324C427.95807 218.49324 429.97278 220.50795 429.97278 222.99324Z" fill-rule="nonzero"/><path fill="#4285f4" clip-path="url(#id_0)" d="M439.9173 192.63647C439.9173 195.12177 437.90256 197.13647 435.4173 197.13647C432.932 197.13647 430.9173 195.12177 430.9173 192.63647C430.9173 190.1512 432.932 188.13647 435.4173 188.13647C437.90256 188.13647 439.9173 190.1512 439.9173 192.63647Z" fill-rule="nonzero"/><path fill="#4285f4" clip-path="url(#id_0)" d="M449.8618 205.72218C449.8618 208.20746 447.84708 210.22218 445.3618 210.22218C442.8765 210.22218 440.8618 208.20746 440.8618 205.72218C440.8618 203.2369 442.8765 201.22218 445.3618 201.22218C447.84708 201.22218 449.8618 203.2369 449.8618 205.72218Z" fill-rule="nonzero"/><path fill="#4285f4" clip-path="url(#id_0)" d="M459.8063 213.90158C459.8063 216.38686 457.79156 218.40158 455.3063 218.40158C452.821 218.40158 450.8063 216.38686 450.8063 213.90158C450.8063 211.4163 452.821 209.40158 455.3063 209.40158C457.79156 209.40158 459.8063 211.4163 459.8063 213.90158Z" fill-rule="nonzero"/><path fill="#4285f4" clip-path="url(#id_0)" d="M469.7508 226.60924C469.7508 229.09451 467.73608 231.10924 465.2508 231.10924C462.7655 231.10924 460.7508 229.09451 460.7508 226.60924C460.7508 224.12395 462.7655 222.10924 465.2508 222.10924C467.73608 222.10924 469.7508 224.12395 469.7508 226.60924Z" fill-rule="nonzero"/><path fill="#4285f4" clip-path="url(#id_0)" d="M479.69528 225.64911C479.69528 228.1344 477.68057 230.14911 475.19528 230.14911C472.71002 230.14911 470.69528 228.1344 470.69528 225.64911C470.69528 223.16383 472.71002 221.14911 475.19528 221.14911C477.68057 221.14911 479.69528 223.16383 479.69528 225.64911Z" fill-rule="nonzero"/><path fill="#4285f4" clip-path="url(#id_0)" d="M489.6398 246.53964C489.6398 249.02492 487.6251 251.03964 485.1398 251.03964C482.6545 251.03964 480.6398 249.02492 480.6398 246.53964C480.6398 244.05435 482.6545 242.03964 485.1398 242.03964C487.6251 242.03964 489.6398 244.05435 489.6398 246.53964Z" fill-rule="nonzero"/><path fill="#4285f4" clip-path="url(#id_0)" d="M499.5843 223.59938C499.5843 226.08466 497.56958 228.09938 495.0843 228.09938C492.59903 228.09938 490.5843 226.08466 490.5843 223.59938C490.5843 221.11409 492.59903 219.09938 495.0843 219.09938C497.56958 219.09938 499.5843 221.11409 499.5843 223.59938Z" fill-rule="nonzero"/><path fill="#4285f4" clip-path="url(#id_0)" d="M509.5288 234.73015C509.5288 237.21542 507.5141 239.23015 505.0288 239.23015C502.54352 239.23015 500.5288 237.21542 500.5288 234.73015C500.5288 232.24486 502.54352 230.23015 505.0288 230.23015C507.5141 230.23015 509.5288 232.24486 509.5288 234.73015Z" fill-rule="nonzero"/><path fill="#4285f4" clip-path="url(#id_0)" d="M519.4733 235.72578C519.4733 238.21106 517.4586 240.22578 514.9733 240.22578C512.48804 240.22578 510.4733 238.21106 510.4733 235.72578C510.4733 233.24051 512.48804 231.22578 514.9733 231.22578C517.4586 231.22578 519.4733 233.24051 519.4733 235.72578Z" fill-rule="nonzero"/><path fill="#4285f4" clip-path="url(#id_0)" d="M529.4178 230.24568C529.4178 232.73096 527.4031 234.74568 524.9178 234.74568C522.43256 234.74568 520.4178 232.73096 520.4178 230.24568C520.4178 227.7604 522.43256 225.74568 524.9178 225.74568C527.4031 225.74568 529.4178 227.7604 529.4178 230.24568Z" fill-rule="nonzero"/><path fill="#4285f4" clip-path="url(#id_0)" d="M539.3623 253.0325C539.3623 255.51779 537.3476 257.5325 534.8623 257.5325C532.377 257.5325 530.3623 255.51779 530.3623 253.0325C530.3623 250.54723 532.377 248.5325 534.8623 248.5325C537.3476 248.5325 539.3623 250.54723 539.3623 253.0325Z" fill-rule="nonzero"/><path fill="#4285f4" clip-path="url(#id_0)" d="M549.3068 247.69557C549.3068 250.18086 547.2921 252.19557 544.8068 252.19557C542.32153 252.19557 540.3068 250.18086 540.3068 247.69557C540.3068 245.2103 542.32153 243.19557 544.8068 243.19557C547.2921 243.19557 549.3068 245.2103 549.3068 247.69557Z" fill-rule="nonzero"/><path fill="#4285f4" clip-path="url(#id_0)" d="M559.25134 249.99205C559.25134 252.47733 557.23663 254.49205 554.75134 254.49205C552.26605 254.49205 550.25134 252.47733 550.25134 249.99205C550.25134 247.50676 552.26605 245.49205 554.75134 245.49205C557.23663 245.49205 559.25134 247.50676 559.25134 249.99205Z" fill-rule="nonzero"/><path fill="#4285f4" clip-path="url(#id_0)" d="M569.1958 248.65654C569.1958 251.14183 567.1811 253.15654 564.6958 253.15654C562.2106 253.15654 560.1958 251.14183 560.1958 248.65654C560.1958 246.17126 562.2106 244.15654 564.6958 244.15654C567.1811 244.15654 569.1958 246.17126 569.1958 248.65654Z" fill-rule="nonzero"/><path fill="#4285f4" clip-path="url(#id_0)" d="M579.1403 256.5037C579.1403 258.98898 577.1256 261.0037 574.6403 261.0037C572.155 261.0037 570.1403 258.98898 570.1403 256.5037C570.1403 254.01842 572.155 252.00371 574.6403 252.00371C577.1256 252.00371 579.1403 254.01842 579.1403 256.5037Z" fill-rule="nonzero"/><path fill="#000000" d="M251.54688 346.6844L252.60938 346.59064Q252.6875 347.2469 252.96875 347.65314Q253.25 348.0594 253.82812 348.325Q254.42188 348.575 255.15625 348.575Q255.79688 348.575 256.29688 348.3875Q256.79688 348.1844 257.03125 347.85626Q257.28125 347.5125 257.28125 347.1219Q257.28125 346.71564 257.04688 346.41876Q256.8125 346.10626 256.28125 345.90314Q255.92188 345.7625 254.73438 345.48126Q253.5625 345.2 253.09375 344.95Q252.46875 344.6219 252.17188 344.15314Q251.875 343.66876 251.875 343.075Q251.875 342.4344 252.23438 341.8719Q252.60938 341.29376 253.3125 341.0125Q254.03125 340.71564 254.89062 340.71564Q255.84375 340.71564 256.57812 341.02814Q257.3125 341.325 257.70312 341.9344Q258.09375 342.52814 258.125 343.27814L257.03125 343.35626Q256.9375 342.54376 256.42188 342.1375Q255.92188 341.71564 254.9375 341.71564Q253.90625 341.71564 253.4375 342.09064Q252.96875 342.46564 252.96875 342.9969Q252.96875 343.46564 253.29688 343.7625Q253.625 344.0594 255.0 344.3719Q256.39062 344.6844 256.90625 344.91876Q257.65625 345.27814 258.01562 345.8094Q258.375 346.325 258.375 347.02814Q258.375 347.71564 257.98438 348.325Q257.59375 348.91876 256.85938 349.2625Q256.125 349.59064 255.20312 349.59064Q254.03125 349.59064 253.23438 349.2625Q252.45312 348.91876 252.0 348.23126Q251.5625 347.54376 251.54688 346.6844ZM259.76562 349.45L259.76562 340.85626L260.82812 340.85626L260.82812 349.45L259.76562 349.45ZM267.04688 347.45L268.14062 347.575Q267.89062 348.52814 267.1875 349.0594Q266.48438 349.59064 265.40625 349.59064Q264.04688 349.59064 263.23438 348.7469Q262.4375 347.90314 262.4375 346.3875Q262.4375 344.825 263.25 343.96564Q264.0625 343.09064 265.34375 343.09064Q266.59375 343.09064 267.375 343.9344Q268.17188 344.77814 268.17188 346.325Q268.17188 346.41876 268.17188 346.60626L263.53125 346.60626Q263.59375 347.6375 264.10938 348.1844Q264.625 348.71564 265.40625 348.71564Q265.98438 348.71564 266.39062 348.41876Q266.8125 348.10626 267.04688 347.45ZM263.59375 345.7469L267.0625 345.7469Q267.0 344.95 266.67188 344.5594Q266.15625 343.95 265.35938 343.95Q264.625 343.95 264.125 344.4344Q263.64062 344.91876 263.59375 345.7469ZM274.04688 347.45L275.14062 347.575Q274.89062 348.52814 274.1875 349.0594Q273.48438 349.59064 272.40625 349.59064Q271.04688 349.59064 270.23438 348.7469Q269.4375 347.90314 269.4375 346.3875Q269.4375 344.825 270.25 343.96564Q271.0625 343.09064 272.34375 343.09064Q273.59375 343.09064 274.375 343.9344Q275.17188 344.77814 275.17188 346.325Q275.17188 346.41876 275.17188 346.60626L270.53125 346.60626Q270.59375 347.6375 271.10938 348.1844Q271.625 348.71564 272.40625 348.71564Q272.98438 348.71564 273.39062 348.41876Q273.8125 348.10626 274.04688 347.45ZM270.59375 345.7469L274.0625 345.7469Q274.0 344.95 273.67188 344.5594Q273.15625 343.95 272.35938 343.95Q271.625 343.95 271.125 344.4344Q270.64062 344.91876 270.59375 345.7469ZM276.79688 351.84064L276.79688 343.23126L277.75 343.23126L277.75 344.02814Q278.09375 343.5594 278.51562 343.325Q278.95312 343.09064 279.5625 343.09064Q280.35938 343.09064 280.96875 343.4969Q281.57812 343.90314 281.875 344.65314Q282.1875 345.40314 282.1875 346.29376Q282.1875 347.2469 281.84375 348.0125Q281.51562 348.77814 280.85938 349.1844Q280.20312 349.59064 279.48438 349.59064Q278.95312 349.59064 278.53125 349.3719Q278.10938 349.1375 277.84375 348.8094L277.84375 351.84064L276.79688 351.84064ZM277.75 346.3719Q277.75 347.575 278.23438 348.15314Q278.71875 348.71564 279.40625 348.71564Q280.10938 348.71564 280.60938 348.1219Q281.10938 347.52814 281.10938 346.27814Q281.10938 345.09064 280.625 344.5125Q280.14062 343.91876 279.45312 343.91876Q278.78125 343.91876 278.26562 344.54376Q277.75 345.16876 277.75 346.3719ZM289.09375 348.5125L289.25 349.4344Q288.79688 349.52814 288.45312 349.52814Q287.875 349.52814 287.5625 349.35626Q287.25 349.16876 287.10938 348.8719Q286.98438 348.575 286.98438 347.6219L286.98438 344.04376L286.21875 344.04376L286.21875 343.23126L286.98438 343.23126L286.98438 341.6844L288.03125 341.0594L288.03125 343.23126L289.09375 343.23126L289.09375 344.04376L288.03125 344.04376L288.03125 347.6844Q288.03125 348.1375 288.07812 348.2625Q288.14062 348.3875 288.26562 348.46564Q288.39062 348.54376 288.625 348.54376Q288.8125 348.54376 289.09375 348.5125ZM289.79688 342.075L289.79688 340.85626L290.85938 340.85626L290.85938 342.075L289.79688 342.075ZM289.79688 349.45L289.79688 343.23126L290.85938 343.23126L290.85938 349.45L289.79688 349.45ZM292.79688 349.45L292.79688 343.23126L293.73438 343.23126L293.73438 344.10626Q294.03125 343.6375 294.51562 343.3719Q295.0 343.09064 295.625 343.09064Q296.3125 343.09064 296.75 343.3719Q297.20312 343.65314 297.375 344.16876Q298.125 343.09064 299.29688 343.09064Q300.23438 343.09064 300.71875 343.60626Q301.21875 344.10626 301.21875 345.1844L301.21875 349.45L300.17188 349.45L300.17188 345.52814Q300.17188 344.90314 300.0625 344.6219Q299.96875 344.34064 299.70312 344.16876Q299.4375 343.9969 299.0625 343.9969Q298.40625 343.9969 297.96875 344.4344Q297.54688 344.8719 297.54688 345.84064L297.54688 349.45L296.48438 349.45L296.48438 345.40314Q296.48438 344.7 296.21875 344.35626Q295.96875 343.9969 295.39062 343.9969Q294.9375 343.9969 294.5625 344.23126Q294.1875 344.46564 294.01562 344.91876Q293.84375 345.3719 293.84375 346.21564L293.84375 349.45L292.79688 349.45ZM307.04688 347.45L308.14062 347.575Q307.89062 348.52814 307.1875 349.0594Q306.48438 349.59064 305.40625 349.59064Q304.04688 349.59064 303.23438 348.7469Q302.4375 347.90314 302.4375 346.3875Q302.4375 344.825 303.25 343.96564Q304.0625 343.09064 305.34375 343.09064Q306.59375 343.09064 307.375 343.9344Q308.17188 344.77814 308.17188 346.325Q308.17188 346.41876 308.17188 346.60626L303.53125 346.60626Q303.59375 347.6375 304.10938 348.1844Q304.625 348.71564 305.40625 348.71564Q305.98438 348.71564 306.39062 348.41876Q306.8125 348.10626 307.04688 347.45ZM303.59375 345.7469L307.0625 345.7469Q307.0 344.95 306.67188 344.5594Q306.15625 343.95 305.35938 343.95Q304.625 343.95 304.125 344.4344Q303.64062 344.91876 303.59375 345.7469ZM312.79688 342.075L312.79688 340.85626L313.85938 340.85626L313.85938 342.075L312.79688 342.075ZM312.79688 349.45L312.79688 343.23126L313.85938 343.23126L313.85938 349.45L312.79688 349.45ZM315.79688 349.45L315.79688 343.23126L316.73438 343.23126L316.73438 344.10626Q317.42188 343.09064 318.71875 343.09064Q319.28125 343.09064 319.75 343.29376Q320.23438 343.4969 320.46875 343.825Q320.70312 344.15314 320.79688 344.59064Q320.84375 344.8875 320.84375 345.6219L320.84375 349.45L319.79688 349.45L319.79688 345.66876Q319.79688 345.0125 319.67188 344.7Q319.54688 344.3875 319.23438 344.2Q318.92188 343.9969 318.5 343.9969Q317.82812 343.9969 317.32812 344.4344Q316.84375 344.85626 316.84375 346.04376L316.84375 349.45L315.79688 349.45ZM329.46875 349.45L328.42188 349.45L328.42188 342.73126Q328.03125 343.09064 327.40625 343.46564Q326.79688 343.825 326.3125 343.9969L326.3125 342.98126Q327.1875 342.5594 327.84375 341.98126Q328.51562 341.3875 328.79688 340.825L329.46875 340.825L329.46875 349.45ZM332.5 345.21564Q332.5 343.6844 332.8125 342.7625Q333.125 341.825 333.73438 341.325Q334.35938 340.825 335.29688 340.825Q335.98438 340.825 336.5 341.10626Q337.03125 341.3875 337.375 341.91876Q337.71875 342.4344 337.90625 343.1844Q338.09375 343.9344 338.09375 345.21564Q338.09375 346.73126 337.78125 347.65314Q337.48438 348.575 336.85938 349.09064Q336.25 349.59064 335.29688 349.59064Q334.0625 349.59064 333.34375 348.7Q332.5 347.6375 332.5 345.21564ZM333.57812 345.21564Q333.57812 347.325 334.07812 348.02814Q334.57812 348.73126 335.29688 348.73126Q336.03125 348.73126 336.51562 348.02814Q337.01562 347.325 337.01562 345.21564Q337.01562 343.09064 336.51562 342.40314Q336.03125 341.7 335.28125 341.7Q334.5625 341.7 334.125 342.3094Q333.57812 343.09064 333.57812 345.21564ZM339.5 345.21564Q339.5 343.6844 339.8125 342.7625Q340.125 341.825 340.73438 341.325Q341.35938 340.825 342.29688 340.825Q342.98438 340.825 343.5 341.10626Q344.03125 341.3875 344.375 341.91876Q344.71875 342.4344 344.90625 343.1844Q345.09375 343.9344 345.09375 345.21564Q345.09375 346.73126 344.78125 347.65314Q344.48438 348.575 343.85938 349.09064Q343.25 349.59064 342.29688 349.59064Q341.0625 349.59064 340.34375 348.7Q339.5 347.6375 339.5 345.21564ZM340.57812 345.21564Q340.57812 347.325 341.07812 348.02814Q341.57812 348.73126 342.29688 348.73126Q343.03125 348.73126 343.51562 348.02814Q344.01562 347.325 344.01562 345.21564Q344.01562 343.09064 343.51562 342.40314Q343.03125 341.7 342.28125 341.7Q341.5625 341.7 341.125 342.3094Q340.57812 343.09064 340.57812 345.21564ZM346.79688 349.45L346.79688 343.23126L347.73438 343.23126L347.73438 344.10626Q348.03125 343.6375 348.51562 343.3719Q349.0 343.09064 349.625 343.09064Q350.3125 343.09064 350.75 343.3719Q351.20312 343.65314 351.375 344.16876Q352.125 343.09064 353.29688 343.09064Q354.23438 343.09064 354.71875 343.60626Q355.21875 344.10626 355.21875 345.1844L355.21875 349.45L354.17188 349.45L354.17188 345.52814Q354.17188 344.90314 354.0625 344.6219Q353.96875 344.34064 353.70312 344.16876Q353.4375 343.9969 353.0625 343.9969Q352.40625 343.9969 351.96875 344.4344Q351.54688 344.8719 351.54688 345.84064L351.54688 349.45L350.48438 349.45L350.48438 345.40314Q350.48438 344.7 350.21875 344.35626Q349.96875 343.9969 349.39062 343.9969Q348.9375 343.9969 348.5625 344.23126Q348.1875 344.46564 348.01562 344.91876Q347.84375 345.3719 347.84375 346.21564L347.84375 349.45L346.79688 349.45ZM356.375 347.59064L357.40625 347.4344Q357.5 348.0594 357.89062 348.3875Q358.29688 348.71564 359.03125 348.71564Q359.75 348.71564 360.09375 348.4344Q360.45312 348.1375 360.45312 347.73126Q360.45312 347.3719 360.14062 347.16876Q359.92188 347.02814 359.0625 346.8094Q357.90625 346.5125 357.45312 346.3094Q357.01562 346.09064 356.78125 345.71564Q356.54688 345.34064 356.54688 344.8719Q356.54688 344.46564 356.73438 344.10626Q356.92188 343.7469 357.25 343.5125Q357.5 343.34064 357.92188 343.21564Q358.34375 343.09064 358.84375 343.09064Q359.5625 343.09064 360.10938 343.3094Q360.67188 343.5125 360.9375 343.8719Q361.20312 344.23126 361.29688 344.825L360.26562 344.96564Q360.20312 344.4969 359.85938 344.23126Q359.53125 343.95 358.90625 343.95Q358.1875 343.95 357.875 344.2Q357.5625 344.4344 357.5625 344.7625Q357.5625 344.96564 357.6875 345.1219Q357.82812 345.29376 358.09375 345.40314Q358.25 345.46564 359.03125 345.66876Q360.15625 345.98126 360.59375 346.16876Q361.03125 346.35626 361.28125 346.71564Q361.53125 347.075 361.53125 347.6219Q361.53125 348.15314 361.21875 348.6219Q360.92188 349.075 360.34375 349.34064Q359.76562 349.59064 359.03125 349.59064Q357.8125 349.59064 357.17188 349.09064Q356.54688 348.575 356.375 347.59064ZM365.79688 342.075L365.79688 340.85626L366.85938 340.85626L366.85938 342.075L365.79688 342.075ZM365.79688 349.45L365.79688 343.23126L366.85938 343.23126L366.85938 349.45L365.79688 349.45ZM368.79688 349.45L368.79688 343.23126L369.73438 343.23126L369.73438 344.10626Q370.42188 343.09064 371.71875 343.09064Q372.28125 343.09064 372.75 343.29376Q373.23438 343.4969 373.46875 343.825Q373.70312 344.15314 373.79688 344.59064Q373.84375 344.8875 373.84375 345.6219L373.84375 349.45L372.79688 349.45L372.79688 345.66876Q372.79688 345.0125 372.67188 344.7Q372.54688 344.3875 372.23438 344.2Q371.92188 343.9969 371.5 343.9969Q370.82812 343.9969 370.32812 344.4344Q369.84375 344.85626 369.84375 346.04376L369.84375 349.45L368.79688 349.45ZM378.09375 348.5125L378.25 349.4344Q377.79688 349.52814 377.45312 349.52814Q376.875 349.52814 376.5625 349.35626Q376.25 349.16876 376.10938 348.8719Q375.98438 348.575 375.98438 347.6219L375.98438 344.04376L375.21875 344.04376L375.21875 343.23126L375.98438 343.23126L375.98438 341.6844L377.03125 341.0594L377.03125 343.23126L378.09375 343.23126L378.09375 344.04376L377.03125 344.04376L377.03125 347.6844Q377.03125 348.1375 377.07812 348.2625Q377.14062 348.3875 377.26562 348.46564Q377.39062 348.54376 377.625 348.54376Q377.8125 348.54376 378.09375 348.5125ZM383.04688 347.45L384.14062 347.575Q383.89062 348.52814 383.1875 349.0594Q382.48438 349.59064 381.40625 349.59064Q380.04688 349.59064 379.23438 348.7469Q378.4375 347.90314 378.4375 346.3875Q378.4375 344.825 379.25 343.96564Q380.0625 343.09064 381.34375 343.09064Q382.59375 343.09064 383.375 343.9344Q384.17188 344.77814 384.17188 346.325Q384.17188 346.41876 384.17188 346.60626L379.53125 346.60626Q379.59375 347.6375 380.10938 348.1844Q380.625 348.71564 381.40625 348.71564Q381.98438 348.71564 382.39062 348.41876Q382.8125 348.10626 383.04688 347.45ZM379.59375 345.7469L383.0625 345.7469Q383.0 344.95 382.67188 344.5594Q382.15625 343.95 381.35938 343.95Q380.625 343.95 380.125 344.4344Q379.64062 344.91876 379.59375 345.7469ZM385.78125 349.45L385.78125 343.23126L386.73438 343.23126L386.73438 344.16876Q387.09375 343.5125 387.39062 343.3094Q387.70312 343.09064 388.07812 343.09064Q388.60938 343.09064 389.15625 343.41876L388.79688 344.40314Q388.40625 344.16876 388.03125 344.16876Q387.67188 344.16876 387.39062 344.3875Q387.125 344.59064 387.01562 344.96564Q386.82812 345.52814 386.82812 346.1844L386.82812 349.45L385.78125 349.45ZM391.51562 349.45L389.15625 343.23126L390.26562 343.23126L391.60938 346.95Q391.8125 347.5594 392.0 348.2Q392.14062 347.71564 392.39062 347.02814L393.78125 343.23126L394.85938 343.23126L392.5 349.45L391.51562 349.45ZM399.85938 348.6844Q399.26562 349.1844 398.71875 349.3875Q398.1875 349.59064 397.5625 349.59064Q396.53125 349.59064 395.98438 349.09064Q395.4375 348.59064 395.4375 347.8094Q395.4375 347.35626 395.64062 346.98126Q395.84375 346.59064 396.1875 346.3719Q396.53125 346.1375 396.95312 346.02814Q397.25 345.9344 397.89062 345.85626Q399.15625 345.71564 399.76562 345.4969Q399.76562 345.27814 399.76562 345.23126Q399.76562 344.575 399.46875 344.3094Q399.0625 343.96564 398.26562 343.96564Q397.53125 343.96564 397.17188 344.23126Q396.8125 344.48126 396.64062 345.1375L395.60938 344.9969Q395.75 344.34064 396.07812 343.9344Q396.40625 343.52814 397.01562 343.3094Q397.625 343.09064 398.42188 343.09064Q399.21875 343.09064 399.71875 343.27814Q400.21875 343.46564 400.45312 343.7469Q400.6875 344.02814 400.78125 344.46564Q400.82812 344.73126 400.82812 345.4344L400.82812 346.84064Q400.82812 348.3094 400.89062 348.7Q400.96875 349.09064 401.17188 349.45L400.0625 349.45Q399.90625 349.1219 399.85938 348.6844ZM399.76562 346.325Q399.1875 346.5594 398.04688 346.73126Q397.39062 346.825 397.125 346.95Q396.85938 347.0594 396.70312 347.27814Q396.5625 347.4969 396.5625 347.77814Q396.5625 348.2 396.875 348.48126Q397.20312 348.7625 397.8125 348.7625Q398.42188 348.7625 398.89062 348.4969Q399.375 348.23126 399.59375 347.7625Q399.76562 347.40314 399.76562 346.71564L399.76562 346.325ZM402.76562 349.45L402.76562 340.85626L403.82812 340.85626L403.82812 349.45L402.76562 349.45ZM405.375 347.59064L406.40625 347.4344Q406.5 348.0594 406.89062 348.3875Q407.29688 348.71564 408.03125 348.71564Q408.75 348.71564 409.09375 348.4344Q409.45312 348.1375 409.45312 347.73126Q409.45312 347.3719 409.14062 347.16876Q408.92188 347.02814 408.0625 346.8094Q406.90625 346.5125 406.45312 346.3094Q406.01562 346.09064 405.78125 345.71564Q405.54688 345.34064 405.54688 344.8719Q405.54688 344.46564 405.73438 344.10626Q405.92188 343.7469 406.25 343.5125Q406.5 343.34064 406.92188 343.21564Q407.34375 343.09064 407.84375 343.09064Q408.5625 343.09064 409.10938 343.3094Q409.67188 343.5125 409.9375 343.8719Q410.20312 344.23126 410.29688 344.825L409.26562 344.96564Q409.20312 344.4969 408.85938 344.23126Q408.53125 343.95 407.90625 343.95Q407.1875 343.95 406.875 344.2Q406.5625 344.4344 406.5625 344.7625Q406.5625 344.96564 406.6875 345.1219Q406.82812 345.29376 407.09375 345.40314Q407.25 345.46564 408.03125 345.66876Q409.15625 345.98126 409.59375 346.16876Q410.03125 346.35626 410.28125 346.71564Q410.53125 347.075 410.53125 347.6219Q410.53125 348.15314 410.21875 348.6219Q409.92188 349.075 409.34375 349.34064Q408.76562 349.59064 408.03125 349.59064Q406.8125 349.59064 406.17188 349.09064Q405.54688 348.575 405.375 347.59064Z" fill-rule="nonzero"/><path fill="#000000" d="M29.550013 213.69896L20.956263 213.69896L20.956263 207.90208L21.971888 207.90208L21.971888 212.55833L24.628138 212.55833L24.628138 208.52708L25.643763 208.52708L25.643763 212.55833L29.550013 212.55833L29.550013 213.69896ZM29.550013 206.76146L20.956263 206.76146L20.956263 203.79271Q20.956263 202.79271 21.081263 202.26146Q21.253138 201.52708 21.690638 201.01146Q22.268763 200.32396 23.175013 199.99583Q24.065638 199.65208 25.206263 199.65208Q26.190638 199.65208 26.940638 199.88646Q27.690638 200.10521 28.190638 200.46458Q28.690638 200.82396 28.971888 201.26146Q29.253138 201.68333 29.409388 202.27708Q29.550013 202.87083 29.550013 203.65208L29.550013 206.76146ZM28.534388 205.62083L28.534388 203.79271Q28.534388 202.93333 28.378138 202.44896Q28.221888 201.96458 27.925013 201.68333Q27.534388 201.27708 26.846888 201.05833Q26.159388 200.82396 25.190638 200.82396Q23.846888 200.82396 23.128138 201.27708Q22.393763 201.71458 22.143763 202.33958Q21.971888 202.80833 21.971888 203.80833L21.971888 205.62083L28.534388 205.62083ZM29.550013 197.74583L20.956263 197.74583L20.956263 193.93333Q20.956263 192.77708 21.190638 192.18333Q21.425013 191.58958 22.018763 191.23021Q22.596888 190.87083 23.300013 190.87083Q24.221888 190.87083 24.846888 191.46458Q25.471888 192.05833 25.643763 193.29271Q25.862513 192.83958 26.065638 192.60521Q26.518763 192.10521 27.206263 191.66771L29.550013 190.16771L29.550013 191.60521L27.768763 192.73021Q26.987513 193.23021 26.581263 193.55833Q26.175013 193.87083 26.018763 194.13646Q25.846888 194.38646 25.768763 194.65208Q25.737513 194.83958 25.737513 195.27708L25.737513 196.60521L29.550013 196.60521L29.550013 197.74583ZM24.753138 196.60521L24.753138 194.15208Q24.753138 193.38646 24.596888 192.94896Q24.425013 192.49583 24.081263 192.27708Q23.721888 192.04271 23.300013 192.04271Q22.690638 192.04271 22.300013 192.49583Q21.909388 192.93333 21.909388 193.88646L21.909388 196.60521L24.753138 196.60521ZM29.550013 185.74583L20.956263 185.74583L20.956263 181.93333Q20.956263 180.77708 21.190638 180.18333Q21.425013 179.58958 22.018763 179.23021Q22.596888 178.87083 23.300013 178.87083Q24.221888 178.87083 24.846888 179.46458Q25.471888 180.05833 25.643763 181.29271Q25.862513 180.83958 26.065638 180.60521Q26.518763 180.10521 27.206263 179.66771L29.550013 178.16771L29.550013 179.60521L27.768763 180.73021Q26.987513 181.23021 26.581263 181.55833Q26.175013 181.87083 26.018763 182.13646Q25.846888 182.38646 25.768763 182.65208Q25.737513 182.83958 25.737513 183.27708L25.737513 184.60521L29.550013 184.60521L29.550013 185.74583ZM24.753138 184.60521L24.753138 182.15208Q24.753138 181.38646 24.596888 180.94896Q24.425013 180.49583 24.081263 180.27708Q23.721888 180.04271 23.300013 180.04271Q22.690638 180.04271 22.300013 180.49583Q21.909388 180.93333 21.909388 181.88646L21.909388 184.60521L24.753138 184.60521ZM28.784388 172.82396Q29.284388 173.41771 29.487513 173.96458Q29.690638 174.49583 29.690638 175.12083Q29.690638 176.15208 29.190638 176.69896Q28.690638 177.24583 27.909388 177.24583Q27.456263 177.24583 27.081263 177.04271Q26.690638 176.83958 26.471888 176.49583Q26.237513 176.15208 26.128138 175.73021Q26.034388 175.43333 25.956263 174.79271Q25.815638 173.52708 25.596888 172.91771Q25.378138 172.91771 25.331263 172.91771Q24.675013 172.91771 24.409388 173.21458Q24.065638 173.62083 24.065638 174.41771Q24.065638 175.15208 24.331263 175.51146Q24.581263 175.87083 25.237513 176.04271L25.096888 177.07396Q24.440638 176.93333 24.034388 176.60521Q23.628138 176.27708 23.409388 175.66771Q23.190638 175.05833 23.190638 174.26146Q23.190638 173.46458 23.378138 172.96458Q23.565638 172.46458 23.846888 172.23021Q24.128138 171.99583 24.565638 171.90208Q24.831263 171.85521 25.534388 171.85521L26.940638 171.85521Q28.409388 171.85521 28.800013 171.79271Q29.190638 171.71458 29.550013 171.51146L29.550013 172.62083Q29.221888 172.77708 28.784388 172.82396ZM26.425013 172.91771Q26.659388 173.49583 26.831263 174.63646Q26.925013 175.29271 27.050013 175.55833Q27.159388 175.82396 27.378138 175.98021Q27.596888 176.12083 27.878138 176.12083Q28.300013 176.12083 28.581263 175.80833Q28.862513 175.48021 28.862513 174.87083Q28.862513 174.26146 28.596888 173.79271Q28.331263 173.30833 27.862513 173.08958Q27.503138 172.91771 26.815638 172.91771L26.425013 172.91771ZM28.612513 167.58958L29.534388 167.43333Q29.628138 167.88646 29.628138 168.23021Q29.628138 168.80833 29.456263 169.12083Q29.268763 169.43333 28.971888 169.57396Q28.675013 169.69896 27.721888 169.69896L24.143763 169.69896L24.143763 170.46458L23.331263 170.46458L23.331263 169.69896L21.784388 169.69896L21.159388 168.65208L23.331263 168.65208L23.331263 167.58958L24.143763 167.58958L24.143763 168.65208L27.784388 168.65208Q28.237513 168.65208 28.362513 168.60521Q28.487513 168.54271 28.565638 168.41771Q28.643763 168.29271 28.643763 168.05833Q28.643763 167.87083 28.612513 167.58958ZM27.550013 162.63646L27.675013 161.54271Q28.628138 161.79271 29.159388 162.49583Q29.690638 163.19896 29.690638 164.27708Q29.690638 165.63646 28.846888 166.44896Q28.003138 167.24583 26.487513 167.24583Q24.925013 167.24583 24.065638 166.43333Q23.190638 165.62083 23.190638 164.33958Q23.190638 163.08958 24.034388 162.30833Q24.878138 161.51146 26.425013 161.51146Q26.518763 161.51146 26.706263 161.51146L26.706263 166.15208Q27.737513 166.08958 28.284388 165.57396Q28.815638 165.05833 28.815638 164.27708Q28.815638 163.69896 28.518763 163.29271Q28.206263 162.87083 27.550013 162.63646ZM25.846888 166.08958L25.846888 162.62083Q25.050013 162.68333 24.659388 163.01146Q24.050013 163.52708 24.050013 164.32396Q24.050013 165.05833 24.534388 165.55833Q25.018763 166.04271 25.846888 166.08958Z" fill-rule="nonzero"/><path fill="#000000" d="M51.05 300.21564Q51.05 298.6844 51.3625 297.7625Q51.675 296.825 52.284374 296.325Q52.909374 295.825 53.846874 295.825Q54.534374 295.825 55.05 296.10626Q55.58125 296.3875 55.925 296.91876Q56.26875 297.4344 56.45625 298.1844Q56.64375 298.9344 56.64375 300.21564Q56.64375 301.73126 56.33125 302.65314Q56.034374 303.575 55.409374 304.09064Q54.8 304.59064 53.846874 304.59064Q52.6125 304.59064 51.89375 303.7Q51.05 302.6375 51.05 300.21564ZM52.128124 300.21564Q52.128124 302.325 52.628124 303.02814Q53.128124 303.73126 53.846874 303.73126Q54.58125 303.73126 55.065624 303.02814Q55.565624 302.325 55.565624 300.21564Q55.565624 298.09064 55.065624 297.40314Q54.58125 296.7 53.83125 296.7Q53.1125 296.7 52.675 297.3094Q52.128124 298.09064 52.128124 300.21564ZM58.64375 304.45L58.64375 303.2469L59.846874 303.2469L59.846874 304.45L58.64375 304.45ZM61.1125 296.98126L61.1125 295.96564L66.675 295.96564L66.675 296.79376Q65.8625 297.66876 65.05 299.1219Q64.25313 300.5594 63.815624 302.09064Q63.4875 303.16876 63.409374 304.45L62.315624 304.45Q62.33125 303.4344 62.70625 301.9969Q63.096874 300.5594 63.8 299.23126Q64.51875 297.90314 65.33125 296.98126L61.1125 296.98126ZM68.05 302.2L69.15938 302.10626Q69.28438 302.91876 69.72188 303.325Q70.175 303.73126 70.81563 303.73126Q71.56563 303.73126 72.09688 303.15314Q72.62813 302.575 72.62813 301.6375Q72.62813 300.73126 72.1125 300.21564Q71.6125 299.6844 70.78438 299.6844Q70.28438 299.6844 69.8625 299.91876Q69.45625 300.15314 69.22188 300.5125L68.2375 300.3875L69.06563 295.98126L73.34688 295.98126L73.34688 296.98126L69.90938 296.98126L69.45625 299.29376Q70.22188 298.7469 71.06563 298.7469Q72.19063 298.7469 72.95625 299.52814Q73.7375 300.3094 73.7375 301.54376Q73.7375 302.7 73.06563 303.5594Q72.2375 304.59064 70.81563 304.59064Q69.64375 304.59064 68.89375 303.9344Q68.15938 303.27814 68.05 302.2Z" fill-rule="nonzero"/><path fill="#000000" d="M51.05 252.50897Q51.05 250.97772 51.3625 250.05585Q51.675 249.11835 52.284374 248.61835Q52.909374 248.11835 53.846874 248.11835Q54.534374 248.11835 55.05 248.3996Q55.58125 248.68085 55.925 249.2121Q56.26875 249.72772 56.45625 250.47772Q56.64375 251.22772 56.64375 252.50897Q56.64375 254.0246 56.33125 254.94647Q56.034374 255.86835 55.409374 256.38397Q54.8 256.88397 53.846874 256.88397Q52.6125 256.88397 51.89375 255.99335Q51.05 254.93085 51.05 252.50897ZM52.128124 252.50897Q52.128124 254.61835 52.628124 255.32147Q53.128124 256.0246 53.846874 256.0246Q54.58125 256.0246 55.065624 255.32147Q55.565624 254.61835 55.565624 252.50897Q55.565624 250.38397 55.065624 249.69647Q54.58125 248.99335 53.83125 248.99335Q53.1125 248.99335 52.675 249.60272Q52.128124 250.38397 52.128124 252.50897ZM58.64375 256.74335L58.64375 255.54022L59.846874 255.54022L59.846874 256.74335L58.64375 256.74335ZM62.675 252.0871Q62.01875 251.8371 61.690624 251.3996Q61.378124 250.94647 61.378124 250.3371Q61.378124 249.3996 62.05 248.75897Q62.7375 248.11835 63.846874 248.11835Q64.97188 248.11835 65.65938 248.7746Q66.34688 249.43085 66.34688 250.36835Q66.34688 250.9621 66.03438 251.3996Q65.72188 251.8371 65.08125 252.0871Q65.87813 252.3371 66.28438 252.91522Q66.69063 253.49335 66.69063 254.29022Q66.69063 255.38397 65.90938 256.13397Q65.14375 256.88397 63.8625 256.88397Q62.596874 256.88397 61.815624 256.13397Q61.034374 255.38397 61.034374 254.25897Q61.034374 253.41522 61.45625 252.85272Q61.89375 252.29022 62.675 252.0871ZM62.45625 250.29022Q62.45625 250.8996 62.846874 251.29022Q63.253124 251.68085 63.878124 251.68085Q64.4875 251.68085 64.87813 251.30585Q65.26875 250.91522 65.26875 250.35272Q65.26875 249.7746 64.8625 249.38397Q64.45625 248.97772 63.8625 248.97772Q63.253124 248.97772 62.846874 249.36835Q62.45625 249.75897 62.45625 250.29022ZM62.128124 254.25897Q62.128124 254.7121 62.33125 255.13397Q62.55 255.55585 62.971874 255.79022Q63.39375 256.0246 63.878124 256.0246Q64.62813 256.0246 65.1125 255.54022Q65.6125 255.05585 65.6125 254.30585Q65.6125 253.54022 65.1125 253.04022Q64.6125 252.54022 63.846874 252.54022Q63.096874 252.54022 62.6125 253.04022Q62.128124 253.5246 62.128124 254.25897ZM68.05 252.50897Q68.05 250.97772 68.3625 250.05585Q68.675 249.11835 69.28438 248.61835Q69.90938 248.11835 70.84688 248.11835Q71.53438 248.11835 72.05 248.3996Q72.58125 248.68085 72.925 249.2121Q73.26875 249.72772 73.45625 250.47772Q73.64375 251.22772 73.64375 252.50897Q73.64375 254.0246 73.33125 254.94647Q73.03438 255.86835 72.40938 256.38397Q71.8 256.88397 70.84688 256.88397Q69.6125 256.88397 68.89375 255.99335Q68.05 254.93085 68.05 252.50897ZM69.12813 252.50897Q69.12813 254.61835 69.62813 255.32147Q70.12813 256.0246 70.84688 256.0246Q71.58125 256.0246 72.06563 255.32147Q72.56563 254.61835 72.56563 252.50897Q72.56563 250.38397 72.06563 249.69647Q71.58125 248.99335 70.83125 248.99335Q70.1125 248.99335 69.675 249.60272Q69.12813 250.38397 69.12813 252.50897Z" fill-rule="nonzero"/><path fill="#000000" d="M51.05 204.80229Q51.05 203.27104 51.3625 202.34917Q51.675 201.41167 52.284374 200.91167Q52.909374 200.41167 53.846874 200.41167Q54.534374 200.41167 55.05 200.69292Q55.58125 200.97417 55.925 201.50542Q56.26875 202.02104 56.45625 202.77104Q56.64375 203.52104 56.64375 204.80229Q56.64375 206.31792 56.33125 207.23979Q56.034374 208.16167 55.409374 208.67729Q54.8 209.17729 53.846874 209.17729Q52.6125 209.17729 51.89375 208.28667Q51.05 207.22417 51.05 204.80229ZM52.128124 204.80229Q52.128124 206.91167 52.628124 207.61479Q53.128124 208.31792 53.846874 208.31792Q54.58125 208.31792 55.065624 207.61479Q55.565624 206.91167 55.565624 204.80229Q55.565624 202.67729 55.065624 201.98979Q54.58125 201.28667 53.83125 201.28667Q53.1125 201.28667 52.675 201.89604Q52.128124 202.67729 52.128124 204.80229ZM58.64375 209.03667L58.64375 207.83354L59.846874 207.83354L59.846874 209.03667L58.64375 209.03667ZM62.675 204.38042Q62.01875 204.13042 61.690624 203.69292Q61.378124 203.23979 61.378124 202.63042Q61.378124 201.69292 62.05 201.05229Q62.7375 200.41167 63.846874 200.41167Q64.97188 200.41167 65.65938 201.06792Q66.34688 201.72417 66.34688 202.66167Q66.34688 203.25542 66.03438 203.69292Q65.72188 204.13042 65.08125 204.38042Q65.87813 204.63042 66.28438 205.20854Q66.69063 205.78667 66.69063 206.58354Q66.69063 207.67729 65.90938 208.42729Q65.14375 209.17729 63.8625 209.17729Q62.596874 209.17729 61.815624 208.42729Q61.034374 207.67729 61.034374 206.55229Q61.034374 205.70854 61.45625 205.14604Q61.89375 204.58354 62.675 204.38042ZM62.45625 202.58354Q62.45625 203.19292 62.846874 203.58354Q63.253124 203.97417 63.878124 203.97417Q64.4875 203.97417 64.87813 203.59917Q65.26875 203.20854 65.26875 202.64604Q65.26875 202.06792 64.8625 201.67729Q64.45625 201.27104 63.8625 201.27104Q63.253124 201.27104 62.846874 201.66167Q62.45625 202.05229 62.45625 202.58354ZM62.128124 206.55229Q62.128124 207.00542 62.33125 207.42729Q62.55 207.84917 62.971874 208.08354Q63.39375 208.31792 63.878124 208.31792Q64.62813 208.31792 65.1125 207.83354Q65.6125 207.34917 65.6125 206.59917Q65.6125 205.83354 65.1125 205.33354Q64.6125 204.83354 63.846874 204.83354Q63.096874 204.83354 62.6125 205.33354Q62.128124 205.81792 62.128124 206.55229ZM68.05 206.78667L69.15938 206.69292Q69.28438 207.50542 69.72188 207.91167Q70.175 208.31792 70.81563 208.31792Q71.56563 208.31792 72.09688 207.73979Q72.62813 207.16167 72.62813 206.22417Q72.62813 205.31792 72.1125 204.80229Q71.6125 204.27104 70.78438 204.27104Q70.28438 204.27104 69.8625 204.50542Q69.45625 204.73979 69.22188 205.09917L68.2375 204.97417L69.06563 200.56792L73.34688 200.56792L73.34688 201.56792L69.90938 201.56792L69.45625 203.88042Q70.22188 203.33354 71.06563 203.33354Q72.19063 203.33354 72.95625 204.11479Q73.7375 204.89604 73.7375 206.13042Q73.7375 207.28667 73.06563 208.14604Q72.2375 209.17729 70.81563 209.17729Q69.64375 209.17729 68.89375 208.52104Q68.15938 207.86479 68.05 206.78667Z" fill-rule="nonzero"/><path fill="#000000" d="M51.05 157.09563Q51.05 155.56438 51.3625 154.6425Q51.675 153.705 52.284374 153.205Q52.909374 152.705 53.846874 152.705Q54.534374 152.705 55.05 152.98625Q55.58125 153.2675 55.925 153.79875Q56.26875 154.31438 56.45625 155.06438Q56.64375 155.81438 56.64375 157.09563Q56.64375 158.61125 56.33125 159.53313Q56.034374 160.455 55.409374 160.97063Q54.8 161.47063 53.846874 161.47063Q52.6125 161.47063 51.89375 160.58Q51.05 159.5175 51.05 157.09563ZM52.128124 157.09563Q52.128124 159.205 52.628124 159.90813Q53.128124 160.61125 53.846874 160.61125Q54.58125 160.61125 55.065624 159.90813Q55.565624 159.205 55.565624 157.09563Q55.565624 154.97063 55.065624 154.28313Q54.58125 153.58 53.83125 153.58Q53.1125 153.58 52.675 154.18938Q52.128124 154.97063 52.128124 157.09563ZM58.64375 161.33L58.64375 160.12688L59.846874 160.12688L59.846874 161.33L58.64375 161.33ZM61.20625 159.34563L62.221874 159.25188Q62.346874 159.97063 62.70625 160.29875Q63.08125 160.61125 63.64375 160.61125Q64.12813 160.61125 64.4875 160.3925Q64.8625 160.15813 65.09688 159.79875Q65.33125 159.42375 65.4875 158.79875Q65.64375 158.15813 65.64375 157.50188Q65.64375 157.42375 65.64375 157.28313Q65.33125 157.78313 64.78438 158.11125Q64.2375 158.42375 63.596874 158.42375Q62.51875 158.42375 61.784374 157.65813Q61.05 156.87688 61.05 155.61125Q61.05 154.29875 61.815624 153.50188Q62.596874 152.705 63.753124 152.705Q64.58125 152.705 65.26875 153.15813Q65.97188 153.61125 66.33125 154.455Q66.69063 155.28313 66.69063 156.86125Q66.69063 158.50188 66.33125 159.48625Q65.9875 160.455 65.26875 160.97063Q64.56563 161.47063 63.628124 161.47063Q62.6125 161.47063 61.971874 160.92375Q61.33125 160.36125 61.20625 159.34563ZM65.51875 155.54875Q65.51875 154.6425 65.03438 154.11125Q64.56563 153.58 63.878124 153.58Q63.175 153.58 62.64375 154.15813Q62.128124 154.72063 62.128124 155.6425Q62.128124 156.455 62.628124 156.97063Q63.128124 157.48625 63.846874 157.48625Q64.58125 157.48625 65.05 156.97063Q65.51875 156.455 65.51875 155.54875ZM68.05 157.09563Q68.05 155.56438 68.3625 154.6425Q68.675 153.705 69.28438 153.205Q69.90938 152.705 70.84688 152.705Q71.53438 152.705 72.05 152.98625Q72.58125 153.2675 72.925 153.79875Q73.26875 154.31438 73.45625 155.06438Q73.64375 155.81438 73.64375 157.09563Q73.64375 158.61125 73.33125 159.53313Q73.03438 160.455 72.40938 160.97063Q71.8 161.47063 70.84688 161.47063Q69.6125 161.47063 68.89375 160.58Q68.05 159.5175 68.05 157.09563ZM69.12813 157.09563Q69.12813 159.205 69.62813 159.90813Q70.12813 160.61125 70.84688 160.61125Q71.58125 160.61125 72.06563 159.90813Q72.56563 159.205 72.56563 157.09563Q72.56563 154.97063 72.06563 154.28313Q71.58125 153.58 70.83125 153.58Q70.1125 153.58 69.675 154.18938Q69.12813 154.97063 69.12813 157.09563Z" fill-rule="nonzero"/><path fill="#000000" d="M51.05 109.38896Q51.05 107.85771 51.3625 106.93584Q51.675 105.99834 52.284374 105.49834Q52.909374 104.99834 53.846874 104.99834Q54.534374 104.99834 55.05 105.27959Q55.58125 105.56084 55.925 106.09209Q56.26875 106.60771 56.45625 107.35771Q56.64375 108.10771 56.64375 109.38896Q56.64375 110.90459 56.33125 111.82646Q56.034374 112.74834 55.409374 113.26396Q54.8 113.76396 53.846874 113.76396Q52.6125 113.76396 51.89375 112.87334Q51.05 111.81084 51.05 109.38896ZM52.128124 109.38896Q52.128124 111.49834 52.628124 112.20146Q53.128124 112.90459 53.846874 112.90459Q54.58125 112.90459 55.065624 112.20146Q55.565624 111.49834 55.565624 109.38896Q55.565624 107.26396 55.065624 106.57646Q54.58125 105.87334 53.83125 105.87334Q53.1125 105.87334 52.675 106.48271Q52.128124 107.26396 52.128124 109.38896ZM58.64375 113.62334L58.64375 112.42021L59.846874 112.42021L59.846874 113.62334L58.64375 113.62334ZM61.20625 111.63896L62.221874 111.54521Q62.346874 112.26396 62.70625 112.59209Q63.08125 112.90459 63.64375 112.90459Q64.12813 112.90459 64.4875 112.68584Q64.8625 112.45146 65.09688 112.09209Q65.33125 111.71709 65.4875 111.09209Q65.64375 110.45146 65.64375 109.79521Q65.64375 109.71709 65.64375 109.57646Q65.33125 110.07646 64.78438 110.40459Q64.2375 110.71709 63.596874 110.71709Q62.51875 110.71709 61.784374 109.95146Q61.05 109.17021 61.05 107.90459Q61.05 106.59209 61.815624 105.79521Q62.596874 104.99834 63.753124 104.99834Q64.58125 104.99834 65.26875 105.45146Q65.97188 105.90459 66.33125 106.74834Q66.69063 107.57646 66.69063 109.15459Q66.69063 110.79521 66.33125 111.77959Q65.9875 112.74834 65.26875 113.26396Q64.56563 113.76396 63.628124 113.76396Q62.6125 113.76396 61.971874 113.21709Q61.33125 112.65459 61.20625 111.63896ZM65.51875 107.84209Q65.51875 106.93584 65.03438 106.40459Q64.56563 105.87334 63.878124 105.87334Q63.175 105.87334 62.64375 106.45146Q62.128124 107.01396 62.128124 107.93584Q62.128124 108.74834 62.628124 109.26396Q63.128124 109.77959 63.846874 109.77959Q64.58125 109.77959 65.05 109.26396Q65.51875 108.74834 65.51875 107.84209ZM68.05 111.37334L69.15938 111.27959Q69.28438 112.09209 69.72188 112.49834Q70.175 112.90459 70.81563 112.90459Q71.56563 112.90459 72.09688 112.32646Q72.62813 111.74834 72.62813 110.81084Q72.62813 109.90459 72.1125 109.38896Q71.6125 108.85771 70.78438 108.85771Q70.28438 108.85771 69.8625 109.09209Q69.45625 109.32646 69.22188 109.68584L68.2375 109.56084L69.06563 105.15459L73.34688 105.15459L73.34688 106.15459L69.90938 106.15459L69.45625 108.46709Q70.22188 107.92021 71.06563 107.92021Q72.19063 107.92021 72.95625 108.70146Q73.7375 109.48271 73.7375 110.71709Q73.7375 111.87334 73.06563 112.73271Q72.2375 113.76396 70.81563 113.76396Q69.64375 113.76396 68.89375 113.10771Q68.15938 112.45146 68.05 111.37334Z" fill-rule="nonzero"/><path fill="#000000" d="M55.01875 65.916664L53.971874 65.916664L53.971874 59.197914Q53.58125 59.55729 52.95625 59.93229Q52.346874 60.291664 51.8625 60.46354L51.8625 59.447914Q52.7375 59.02604 53.39375 58.447914Q54.065624 57.854164 54.346874 57.291664L55.01875 57.291664L55.01875 65.916664ZM58.64375 65.916664L58.64375 64.71354L59.846874 64.71354L59.846874 65.916664L58.64375 65.916664ZM61.05 61.68229Q61.05 60.15104 61.3625 59.229164Q61.675 58.291664 62.284374 57.791664Q62.909374 57.291664 63.846874 57.291664Q64.53438 57.291664 65.05 57.572914Q65.58125 57.854164 65.925 58.385414Q66.26875 58.90104 66.45625 59.65104Q66.64375 60.40104 66.64375 61.68229Q66.64375 63.197914 66.33125 64.11979Q66.03438 65.041664 65.40938 65.55729Q64.8 66.05729 63.846874 66.05729Q62.6125 66.05729 61.89375 65.166664Q61.05 64.104164 61.05 61.68229ZM62.128124 61.68229Q62.128124 63.791664 62.628124 64.49479Q63.128124 65.197914 63.846874 65.197914Q64.58125 65.197914 65.06563 64.49479Q65.56563 63.791664 65.56563 61.68229Q65.56563 59.55729 65.06563 58.86979Q64.58125 58.166664 63.83125 58.166664Q63.1125 58.166664 62.675 58.77604Q62.128124 59.55729 62.128124 61.68229ZM68.05 61.68229Q68.05 60.15104 68.3625 59.229164Q68.675 58.291664 69.28438 57.791664Q69.90938 57.291664 70.84688 57.291664Q71.53438 57.291664 72.05 57.572914Q72.58125 57.854164 72.925 58.385414Q73.26875 58.90104 73.45625 59.65104Q73.64375 60.40104 73.64375 61.68229Q73.64375 63.197914 73.33125 64.11979Q73.03438 65.041664 72.40938 65.55729Q71.8 66.05729 70.84688 66.05729Q69.6125 66.05729 68.89375 65.166664Q68.05 64.104164 68.05 61.68229ZM69.12813 61.68229Q69.12813 63.791664 69.62813 64.49479Q70.12813 65.197914 70.84688 65.197914Q71.58125 65.197914 72.06563 64.49479Q72.56563 63.791664 72.56563 61.68229Q72.56563 59.55729 72.06563 58.86979Q71.58125 58.166664 70.83125 58.166664Q70.1125 58.166664 69.675 58.77604Q69.12813 59.55729 69.12813 61.68229Z" fill-rule="nonzero"/><path fill="#000000" d="M84.35967 313.21564Q84.35967 311.6844 84.67217 310.7625Q84.98467 309.825 85.59405 309.325Q86.21905 308.825 87.15655 308.825Q87.84405 308.825 88.35967 309.10626Q88.89092 309.3875 89.23467 309.91876Q89.57842 310.4344 89.76592 311.1844Q89.95342 311.9344 89.95342 313.21564Q89.95342 314.73126 89.64092 315.65314Q89.34405 316.575 88.71905 317.09064Q88.10967 317.59064 87.15655 317.59064Q85.92217 317.59064 85.20342 316.7Q84.35967 315.6375 84.35967 313.21564ZM85.4378 313.21564Q85.4378 315.325 85.9378 316.02814Q86.4378 316.73126 87.15655 316.73126Q87.89092 316.73126 88.3753 316.02814Q88.8753 315.325 88.8753 313.21564Q88.8753 311.09064 88.3753 310.40314Q87.89092 309.7 87.14092 309.7Q86.42217 309.7 85.98467 310.3094Q85.4378 311.09064 85.4378 313.21564Z" fill-rule="nonzero"/><path fill="#000000" d="M184.27345 317.45L183.22658 317.45L183.22658 310.73126Q182.83595 311.09064 182.21095 311.46564Q181.60158 311.825 181.1172 311.9969L181.1172 310.98126Q181.9922 310.5594 182.64845 309.98126Q183.32033 309.3875 183.60158 308.825L184.27345 308.825L184.27345 317.45ZM187.3047 313.21564Q187.3047 311.6844 187.6172 310.7625Q187.9297 309.825 188.53908 309.325Q189.16408 308.825 190.10158 308.825Q190.78908 308.825 191.3047 309.10626Q191.83595 309.3875 192.1797 309.91876Q192.52345 310.4344 192.71095 311.1844Q192.89845 311.9344 192.89845 313.21564Q192.89845 314.73126 192.58595 315.65314Q192.28908 316.575 191.66408 317.09064Q191.0547 317.59064 190.10158 317.59064Q188.8672 317.59064 188.14845 316.7Q187.3047 315.6375 187.3047 313.21564ZM188.38283 313.21564Q188.38283 315.325 188.88283 316.02814Q189.38283 316.73126 190.10158 316.73126Q190.83595 316.73126 191.32033 316.02814Q191.82033 315.325 191.82033 313.21564Q191.82033 311.09064 191.32033 310.40314Q190.83595 309.7 190.08595 309.7Q189.3672 309.7 188.9297 310.3094Q188.38283 311.09064 188.38283 313.21564Z" fill-rule="nonzero"/><path fill="#000000" d="M285.2966 316.4344L285.2966 317.45L279.6091 317.45Q279.6091 317.075 279.7341 316.71564Q279.95285 316.1375 280.4216 315.575Q280.90598 315.0125 281.81223 314.27814Q283.21848 313.1219 283.70285 312.45Q284.20285 311.77814 284.20285 311.1844Q284.20285 310.5594 283.74973 310.1375Q283.2966 309.7 282.57785 309.7Q281.81223 309.7 281.3591 310.15314Q280.90598 310.60626 280.89035 311.41876L279.81223 311.3094Q279.9216 310.09064 280.64035 309.46564Q281.37473 308.825 282.6091 308.825Q283.84348 308.825 284.56223 309.5125Q285.28098 310.2 285.28098 311.21564Q285.28098 311.73126 285.06223 312.23126Q284.8591 312.71564 284.3591 313.27814Q283.87473 313.825 282.74973 314.77814Q281.7966 315.575 281.51535 315.8719Q281.24973 316.15314 281.07785 316.4344L285.2966 316.4344ZM286.74973 313.21564Q286.74973 311.6844 287.06223 310.7625Q287.37473 309.825 287.9841 309.325Q288.6091 308.825 289.5466 308.825Q290.2341 308.825 290.74973 309.10626Q291.28098 309.3875 291.62473 309.91876Q291.96848 310.4344 292.15598 311.1844Q292.34348 311.9344 292.34348 313.21564Q292.34348 314.73126 292.03098 315.65314Q291.7341 316.575 291.1091 317.09064Q290.49973 317.59064 289.5466 317.59064Q288.31223 317.59064 287.59348 316.7Q286.74973 315.6375 286.74973 313.21564ZM287.82785 313.21564Q287.82785 315.325 288.32785 316.02814Q288.82785 316.73126 289.5466 316.73126Q290.28098 316.73126 290.76535 316.02814Q291.26535 315.325 291.26535 313.21564Q291.26535 311.09064 290.76535 310.40314Q290.28098 309.7 289.53098 309.7Q288.81223 309.7 288.37473 310.3094Q287.82785 311.09064 287.82785 313.21564Z" fill-rule="nonzero"/><path fill="#000000" d="M379.19476 315.1844L380.25726 315.04376Q380.42914 315.9344 380.86664 316.34064Q381.30414 316.73126 381.92914 316.73126Q382.67914 316.73126 383.19476 316.21564Q383.7104 315.7 383.7104 314.9344Q383.7104 314.21564 383.226 313.7469Q382.75726 313.2625 382.0229 313.2625Q381.726 313.2625 381.2729 313.3875L381.3979 312.45Q381.50726 312.46564 381.56976 312.46564Q382.24164 312.46564 382.7729 312.1219Q383.31976 311.7625 383.31976 311.02814Q383.31976 310.45 382.92914 310.075Q382.5385 309.6844 381.9135 309.6844Q381.30414 309.6844 380.88226 310.075Q380.476 310.46564 380.36664 311.23126L379.30414 311.04376Q379.49164 309.9969 380.17914 309.41876Q380.86664 308.825 381.88226 308.825Q382.5854 308.825 383.17914 309.1375Q383.7729 309.4344 384.0854 309.95Q384.3979 310.46564 384.3979 311.0594Q384.3979 311.60626 384.101 312.075Q383.80414 312.52814 383.226 312.79376Q383.976 312.96564 384.3979 313.52814Q384.81976 314.075 384.81976 314.91876Q384.81976 316.04376 383.99164 316.825Q383.17914 317.60626 381.92914 317.60626Q380.80414 317.60626 380.05414 316.9344Q379.30414 316.2469 379.19476 315.1844ZM386.19476 313.21564Q386.19476 311.6844 386.50726 310.7625Q386.81976 309.825 387.42914 309.325Q388.05414 308.825 388.99164 308.825Q389.67914 308.825 390.19476 309.10626Q390.726 309.3875 391.06976 309.91876Q391.4135 310.4344 391.601 311.1844Q391.7885 311.9344 391.7885 313.21564Q391.7885 314.73126 391.476 315.65314Q391.17914 316.575 390.55414 317.09064Q389.94476 317.59064 388.99164 317.59064Q387.75726 317.59064 387.0385 316.7Q386.19476 315.6375 386.19476 313.21564ZM387.2729 313.21564Q387.2729 315.325 387.7729 316.02814Q388.2729 316.73126 388.99164 316.73126Q389.726 316.73126 390.2104 316.02814Q390.7104 315.325 390.7104 313.21564Q390.7104 311.09064 390.2104 310.40314Q389.726 309.7 388.976 309.7Q388.25726 309.7 387.81976 310.3094Q387.2729 311.09064 387.2729 313.21564Z" fill-rule="nonzero"/><path fill="#000000" d="M482.0148 317.45L482.0148 315.3875L478.29605 315.3875L478.29605 314.41876L482.21793 308.85626L483.0773 308.85626L483.0773 314.41876L484.23355 314.41876L484.23355 315.3875L483.0773 315.3875L483.0773 317.45L482.0148 317.45ZM482.0148 314.41876L482.0148 310.5594L479.3273 314.41876L482.0148 314.41876ZM485.6398 313.21564Q485.6398 311.6844 485.9523 310.7625Q486.2648 309.825 486.87418 309.325Q487.49918 308.825 488.43668 308.825Q489.12418 308.825 489.6398 309.10626Q490.17105 309.3875 490.5148 309.91876Q490.85855 310.4344 491.04605 311.1844Q491.23355 311.9344 491.23355 313.21564Q491.23355 314.73126 490.92105 315.65314Q490.62418 316.575 489.99918 317.09064Q489.3898 317.59064 488.43668 317.59064Q487.2023 317.59064 486.48355 316.7Q485.6398 315.6375 485.6398 313.21564ZM486.71793 313.21564Q486.71793 315.325 487.21793 316.02814Q487.71793 316.73126 488.43668 316.73126Q489.17105 316.73126 489.65543 316.02814Q490.15543 315.325 490.15543 313.21564Q490.15543 311.09064 489.65543 310.40314Q489.17105 309.7 488.42105 309.7Q487.7023 309.7 487.2648 310.3094Q486.71793 311.09064 486.71793 313.21564Z" fill-rule="nonzero"/><path fill="#757575" d="M20.128124 37.55L20.128124 23.2375L26.471874 23.2375Q28.378124 23.2375 29.378124 23.628124Q30.378124 24.003124 30.971874 24.9875Q31.565624 25.95625 31.565624 27.14375Q31.565624 28.659374 30.58125 29.70625Q29.596874 30.753124 27.534374 31.034374Q28.284374 31.39375 28.675 31.753124Q29.503124 32.503124 30.253124 33.659374L32.7375 37.55L30.3625 37.55L28.45625 34.565624Q27.628124 33.284374 27.096874 32.596874Q26.565624 31.909374 26.128124 31.64375Q25.70625 31.3625 25.26875 31.253124Q24.940624 31.190624 24.221874 31.190624L22.01875 31.190624L22.01875 37.55L20.128124 37.55ZM22.01875 29.55L26.096874 29.55Q27.39375 29.55 28.1125 29.284374Q28.846874 29.01875 29.221874 28.425Q29.6125 27.83125 29.6125 27.14375Q29.6125 26.128124 28.878124 25.471874Q28.14375 24.815624 26.55 24.815624L22.01875 24.815624L22.01875 29.55ZM40.971874 34.20625L42.784374 34.440624Q42.3625 36.01875 41.190624 36.909374Q40.034374 37.784374 38.221874 37.784374Q35.95625 37.784374 34.6125 36.39375Q33.284374 34.9875 33.284374 32.45625Q33.284374 29.83125 34.628124 28.39375Q35.971874 26.940624 38.128124 26.940624Q40.20625 26.940624 41.51875 28.3625Q42.846874 29.76875 42.846874 32.346874Q42.846874 32.503124 42.83125 32.815624L35.096874 32.815624Q35.190624 34.51875 36.065624 35.425Q36.940624 36.33125 38.2375 36.33125Q39.20625 36.33125 39.878124 35.83125Q40.565624 35.315624 40.971874 34.20625ZM35.190624 31.3625L40.9875 31.3625Q40.878124 30.065624 40.33125 29.409374Q39.4875 28.39375 38.14375 28.39375Q36.940624 28.39375 36.1125 29.20625Q35.284374 30.003124 35.190624 31.3625ZM44.83125 37.55L44.83125 23.2375L46.58125 23.2375L46.58125 37.55L44.83125 37.55ZM55.64375 36.26875Q54.659374 37.096874 53.753124 37.440624Q52.846874 37.784374 51.815624 37.784374Q50.1125 37.784374 49.190624 36.95625Q48.26875 36.1125 48.26875 34.815624Q48.26875 34.05 48.6125 33.425Q48.971874 32.8 49.534374 32.425Q50.096874 32.034374 50.8 31.83125Q51.315624 31.70625 52.3625 31.565624Q54.4875 31.315624 55.4875 30.971874Q55.503124 30.6125 55.503124 30.503124Q55.503124 29.440624 55.003124 28.9875Q54.33125 28.39375 53.003124 28.39375Q51.753124 28.39375 51.159374 28.83125Q50.58125 29.26875 50.3 30.378124L48.58125 30.14375Q48.815624 29.034374 49.346874 28.3625Q49.878124 27.675 50.89375 27.315624Q51.909374 26.940624 53.253124 26.940624Q54.58125 26.940624 55.409374 27.253124Q56.2375 27.565624 56.628124 28.05Q57.01875 28.51875 57.175 29.2375Q57.26875 29.690624 57.26875 30.8625L57.26875 33.20625Q57.26875 35.659374 57.378124 36.315624Q57.4875 36.95625 57.83125 37.55L55.9875 37.55Q55.721874 37.003124 55.64375 36.26875ZM55.4875 32.346874Q54.534374 32.7375 52.6125 33.003124Q51.534374 33.159374 51.08125 33.3625Q50.64375 33.55 50.39375 33.925Q50.14375 34.3 50.14375 34.76875Q50.14375 35.471874 50.675 35.940624Q51.20625 36.409374 52.2375 36.409374Q53.253124 36.409374 54.034374 35.971874Q54.83125 35.51875 55.20625 34.753124Q55.4875 34.14375 55.4875 32.9875L55.4875 32.346874ZM59.784374 41.55L59.596874 39.89375Q60.175 40.05 60.596874 40.05Q61.190624 40.05 61.534374 39.846874Q61.89375 39.659374 62.1125 39.315624Q62.284374 39.05 62.659374 38.003124Q62.70625 37.846874 62.815624 37.565624L58.878124 27.175L60.76875 27.175L62.925 33.190624Q63.346874 34.33125 63.675 35.58125Q63.9875 34.378124 64.39375 33.221874L66.6125 27.175L68.37813 27.175L64.425 37.721874Q63.8 39.440624 63.440624 40.08125Q62.971874 40.95625 62.3625 41.346874Q61.76875 41.753124 60.925 41.753124Q60.409374 41.753124 59.784374 41.55ZM75.45625 32.95625L77.2375 32.8Q77.3625 33.8625 77.81563 34.55Q78.28438 35.2375 79.25313 35.675Q80.2375 36.096874 81.47188 36.096874Q82.55 36.096874 83.37813 35.784374Q84.20625 35.45625 84.6125 34.89375Q85.01875 34.33125 85.01875 33.659374Q85.01875 32.9875 84.62813 32.4875Q84.2375 31.9875 83.34688 31.64375Q82.76875 31.409374 80.78438 30.940624Q78.81563 30.471874 78.03438 30.05Q77.00313 29.51875 76.50313 28.721874Q76.00313 27.925 76.00313 26.940624Q76.00313 25.846874 76.6125 24.909374Q77.22188 23.971874 78.40938 23.4875Q79.59688 22.9875 81.03438 22.9875Q82.62813 22.9875 83.84688 23.503124Q85.06563 24.01875 85.70625 25.01875Q86.3625 26.003124 86.40938 27.26875L84.59688 27.409374Q84.45625 26.05 83.6125 25.3625Q82.76875 24.659374 81.1125 24.659374Q79.39375 24.659374 78.59688 25.3Q77.81563 25.925 77.81563 26.8Q77.81563 27.58125 78.37813 28.08125Q78.925 28.58125 81.2375 29.096874Q83.55 29.6125 84.40938 30.003124Q85.65938 30.58125 86.25313 31.471874Q86.84688 32.346874 86.84688 33.503124Q86.84688 34.64375 86.19063 35.659374Q85.53438 36.675 84.3 37.2375Q83.08125 37.8 81.55 37.8Q79.6125 37.8 78.3 37.2375Q76.9875 36.659374 76.2375 35.51875Q75.4875 34.378124 75.45625 32.95625ZM88.83125 37.55L88.83125 23.2375L90.58125 23.2375L90.58125 37.55L88.83125 37.55ZM99.97188 34.20625L101.78438 34.440624Q101.3625 36.01875 100.19063 36.909374Q99.03438 37.784374 97.22188 37.784374Q94.95625 37.784374 93.6125 36.39375Q92.28438 34.9875 92.28438 32.45625Q92.28438 29.83125 93.62813 28.39375Q94.97188 26.940624 97.12813 26.940624Q99.20625 26.940624 100.51875 28.3625Q101.84688 29.76875 101.84688 32.346874Q101.84688 32.503124 101.83125 32.815624L94.09688 32.815624Q94.19063 34.51875 95.06563 35.425Q95.94063 36.33125 97.2375 36.33125Q98.20625 36.33125 98.87813 35.83125Q99.56563 35.315624 99.97188 34.20625ZM94.19063 31.3625L99.9875 31.3625Q99.87813 30.065624 99.33125 29.409374Q98.4875 28.39375 97.14375 28.39375Q95.94063 28.39375 95.1125 29.20625Q94.28438 30.003124 94.19063 31.3625ZM110.97188 34.20625L112.78438 34.440624Q112.3625 36.01875 111.19063 36.909374Q110.03438 37.784374 108.22188 37.784374Q105.95625 37.784374 104.6125 36.39375Q103.28438 34.9875 103.28438 32.45625Q103.28438 29.83125 104.62813 28.39375Q105.97188 26.940624 108.12813 26.940624Q110.20625 26.940624 111.51875 28.3625Q112.84688 29.76875 112.84688 32.346874Q112.84688 32.503124 112.83125 32.815624L105.09688 32.815624Q105.19063 34.51875 106.06563 35.425Q106.94063 36.33125 108.2375 36.33125Q109.20625 36.33125 109.87813 35.83125Q110.56563 35.315624 110.97188 34.20625ZM105.19063 31.3625L110.9875 31.3625Q110.87813 30.065624 110.33125 29.409374Q109.4875 28.39375 108.14375 28.39375Q106.94063 28.39375 106.1125 29.20625Q105.28438 30.003124 105.19063 31.3625ZM114.8625 41.51875L114.8625 27.175L116.47188 27.175L116.47188 28.51875Q117.03438 27.7375 117.7375 27.346874Q118.45625 26.940624 119.47188 26.940624Q120.8 26.940624 121.81563 27.628124Q122.83125 28.315624 123.34688 29.565624Q123.87813 30.8 123.87813 32.284374Q123.87813 33.878124 123.3 35.159374Q122.7375 36.425 121.64375 37.1125Q120.55 37.784374 119.34688 37.784374Q118.47188 37.784374 117.76875 37.409374Q117.08125 37.034374 116.62813 36.471874L116.62813 41.51875L114.8625 41.51875ZM116.45625 32.425Q116.45625 34.425 117.26875 35.378124Q118.08125 36.33125 119.2375 36.33125Q120.40938 36.33125 121.2375 35.346874Q122.08125 34.3625 122.08125 32.26875Q122.08125 30.3 121.25313 29.315624Q120.44063 28.315624 119.31563 28.315624Q118.19063 28.315624 117.31563 29.378124Q116.45625 30.425 116.45625 32.425ZM135.70625 35.971874L135.95625 37.534374Q135.22188 37.690624 134.62813 37.690624Q133.675 37.690624 133.14375 37.39375Q132.62813 37.08125 132.40938 36.596874Q132.19063 36.096874 132.19063 34.51875L132.19063 28.55L130.90938 28.55L130.90938 27.175L132.19063 27.175L132.19063 24.6125L133.94063 23.55L133.94063 27.175L135.70625 27.175L135.70625 28.55L133.94063 28.55L133.94063 34.6125Q133.94063 35.3625 134.03438 35.58125Q134.12813 35.784374 134.33125 35.925Q134.55 36.05 134.94063 36.05Q135.22188 36.05 135.70625 35.971874ZM137.87813 25.253124L137.87813 23.2375L139.64375 23.2375L139.64375 25.253124L137.87813 25.253124ZM137.87813 37.55L137.87813 27.175L139.64375 27.175L139.64375 37.55L137.87813 37.55ZM141.8625 37.55L141.8625 27.175L143.44063 27.175L143.44063 28.628124Q143.925 27.878124 144.7375 27.409374Q145.55 26.940624 146.58125 26.940624Q147.7375 26.940624 148.47188 27.425Q149.20625 27.89375 149.51875 28.753124Q150.75313 26.940624 152.72188 26.940624Q154.26875 26.940624 155.09688 27.8Q155.925 28.659374 155.925 30.425L155.925 37.55L154.175 37.55L154.175 31.01875Q154.175 29.95625 154.00313 29.503124Q153.83125 29.034374 153.37813 28.753124Q152.94063 28.471874 152.33125 28.471874Q151.2375 28.471874 150.50313 29.20625Q149.78438 29.925 149.78438 31.51875L149.78438 37.55L148.03438 37.55L148.03438 30.815624Q148.03438 29.64375 147.59688 29.065624Q147.175 28.471874 146.19063 28.471874Q145.45625 28.471874 144.81563 28.8625Q144.19063 29.253124 143.90938 30.003124Q143.62813 30.753124 143.62813 32.175L143.62813 37.55L141.8625 37.55ZM165.97188 34.20625L167.78438 34.440624Q167.3625 36.01875 166.19063 36.909374Q165.03438 37.784374 163.22188 37.784374Q160.95625 37.784374 159.6125 36.39375Q158.28438 34.9875 158.28438 32.45625Q158.28438 29.83125 159.62813 28.39375Q160.97188 26.940624 163.12813 26.940624Q165.20625 26.940624 166.51875 28.3625Q167.84688 29.76875 167.84688 32.346874Q167.84688 32.503124 167.83125 32.815624L160.09688 32.815624Q160.19063 34.51875 161.06563 35.425Q161.94063 36.33125 163.2375 36.33125Q164.20625 36.33125 164.87813 35.83125Q165.56563 35.315624 165.97188 34.20625ZM160.19063 31.3625L165.9875 31.3625Q165.87813 30.065624 165.33125 29.409374Q164.4875 28.39375 163.14375 28.39375Q161.94063 28.39375 161.1125 29.20625Q160.28438 30.003124 160.19063 31.3625ZM180.19063 37.55L174.64375 23.2375L176.69063 23.2375L180.40938 33.628124Q180.8625 34.878124 181.15938 35.971874Q181.4875 34.8 181.94063 33.628124L185.8 23.2375L187.7375 23.2375L182.12813 37.55L180.19063 37.55ZM188.45625 32.95625L190.2375 32.8Q190.3625 33.8625 190.81563 34.55Q191.28438 35.2375 192.25313 35.675Q193.2375 36.096874 194.47188 36.096874Q195.55 36.096874 196.37813 35.784374Q197.20625 35.45625 197.6125 34.89375Q198.01875 34.33125 198.01875 33.659374Q198.01875 32.9875 197.62813 32.4875Q197.2375 31.9875 196.34688 31.64375Q195.76875 31.409374 193.78438 30.940624Q191.81563 30.471874 191.03438 30.05Q190.00313 29.51875 189.50313 28.721874Q189.00313 27.925 189.00313 26.940624Q189.00313 25.846874 189.6125 24.909374Q190.22188 23.971874 191.40938 23.4875Q192.59688 22.9875 194.03438 22.9875Q195.62813 22.9875 196.84688 23.503124Q198.06563 24.01875 198.70625 25.01875Q199.3625 26.003124 199.40938 27.26875L197.59688 27.409374Q197.45625 26.05 196.6125 25.3625Q195.76875 24.659374 194.1125 24.659374Q192.39375 24.659374 191.59688 25.3Q190.81563 25.925 190.81563 26.8Q190.81563 27.58125 191.37813 28.08125Q191.925 28.58125 194.2375 29.096874Q196.55 29.6125 197.40938 30.003124Q198.65938 30.58125 199.25313 31.471874Q199.84688 32.346874 199.84688 33.503124Q199.84688 34.64375 199.19063 35.659374Q198.53438 36.675 197.3 37.2375Q196.08125 37.8 194.55 37.8Q192.6125 37.8 191.3 37.2375Q189.9875 36.659374 189.2375 35.51875Q188.4875 34.378124 188.45625 32.95625ZM208.19063 37.55L208.19063 23.2375L217.84688 23.2375L217.84688 24.925L210.08125 24.925L210.08125 29.3625L216.8 29.3625L216.8 31.05L210.08125 31.05L210.08125 37.55L208.19063 37.55ZM220.09688 37.55L220.09688 23.2375L225.01875 23.2375Q226.69063 23.2375 227.58125 23.440624Q228.8 23.721874 229.675 24.45625Q230.8 25.425 231.3625 26.909374Q231.925 28.39375 231.925 30.315624Q231.925 31.940624 231.55 33.20625Q231.175 34.45625 230.56563 35.284374Q229.97188 36.1125 229.26875 36.596874Q228.56563 37.065624 227.56563 37.315624Q226.56563 37.55 225.25313 37.55L220.09688 37.55ZM221.9875 35.8625L225.05 35.8625Q226.45625 35.8625 227.25313 35.596874Q228.06563 35.33125 228.55 34.846874Q229.22188 34.175 229.59688 33.05Q229.97188 31.909374 229.97188 30.284374Q229.97188 28.034374 229.2375 26.83125Q228.50313 25.628124 227.44063 25.221874Q226.69063 24.925 225.00313 24.925L221.9875 24.925L221.9875 35.8625ZM234.12813 37.55L234.12813 23.2375L240.47188 23.2375Q242.37813 23.2375 243.37813 23.628124Q244.37813 24.003124 244.97188 24.9875Q245.56563 25.95625 245.56563 27.14375Q245.56563 28.659374 244.58125 29.70625Q243.59688 30.753124 241.53438 31.034374Q242.28438 31.39375 242.675 31.753124Q243.50313 32.503124 244.25313 33.659374L246.7375 37.55L244.3625 37.55L242.45625 34.565624Q241.62813 33.284374 241.09688 32.596874Q240.56563 31.909374 240.12813 31.64375Q239.70625 31.3625 239.26875 31.253124Q238.94063 31.190624 238.22188 31.190624L236.01875 31.190624L236.01875 37.55L234.12813 37.55ZM236.01875 29.55L240.09688 29.55Q241.39375 29.55 242.1125 29.284374Q242.84688 29.01875 243.22188 28.425Q243.6125 27.83125 243.6125 27.14375Q243.6125 26.128124 242.87813 25.471874Q242.14375 24.815624 240.55 24.815624L236.01875 24.815624L236.01875 29.55ZM254.12813 37.55L254.12813 23.2375L260.47186 23.2375Q262.3781 23.2375 263.3781 23.628124Q264.3781 24.003124 264.97186 24.9875Q265.5656 25.95625 265.5656 27.14375Q265.5656 28.659374 264.58124 29.70625Q263.59686 30.753124 261.53436 31.034374Q262.28436 31.39375 262.675 31.753124Q263.5031 32.503124 264.2531 33.659374L266.7375 37.55L264.3625 37.55L262.45624 34.565624Q261.6281 33.284374 261.09686 32.596874Q260.5656 31.909374 260.1281 31.64375Q259.70624 31.3625 259.26874 31.253124Q258.9406 31.190624 258.22186 31.190624L256.01874 31.190624L256.01874 37.55L254.12813 37.55ZM256.01874 29.55L260.09686 29.55Q261.39374 29.55 262.1125 29.284374Q262.84686 29.01875 263.22186 28.425Q263.6125 27.83125 263.6125 27.14375Q263.6125 26.128124 262.8781 25.471874Q262.14374 24.815624 260.55 24.815624L256.01874 24.815624L256.01874 29.55ZM274.64374 36.26875Q273.65936 37.096874 272.7531 37.440624Q271.84686 37.784374 270.8156 37.784374Q269.1125 37.784374 268.1906 36.95625Q267.26874 36.1125 267.26874 34.815624Q267.26874 34.05 267.6125 33.425Q267.97186 32.8 268.53436 32.425Q269.09686 32.034374 269.8 31.83125Q270.3156 31.70625 271.3625 31.565624Q273.4875 31.315624 274.4875 30.971874Q274.5031 30.6125 274.5031 30.503124Q274.5031 29.440624 274.0031 28.9875Q273.33124 28.39375 272.0031 28.39375Q270.7531 28.39375 270.15936 28.83125Q269.58124 29.26875 269.3 30.378124L267.58124 30.14375Q267.8156 29.034374 268.34686 28.3625Q268.8781 27.675 269.89374 27.315624Q270.90936 26.940624 272.2531 26.940624Q273.58124 26.940624 274.40936 27.253124Q275.2375 27.565624 275.6281 28.05Q276.01874 28.51875 276.175 29.2375Q276.26874 29.690624 276.26874 30.8625L276.26874 33.20625Q276.26874 35.659374 276.3781 36.315624Q276.4875 36.95625 276.83124 37.55L274.9875 37.55Q274.72186 37.003124 274.64374 36.26875ZM274.4875 32.346874Q273.53436 32.7375 271.6125 33.003124Q270.53436 33.159374 270.08124 33.3625Q269.64374 33.55 269.39374 33.925Q269.14374 34.3 269.14374 34.76875Q269.14374 35.471874 269.675 35.940624Q270.20624 36.409374 271.2375 36.409374Q272.2531 36.409374 273.03436 35.971874Q273.83124 35.51875 274.20624 34.753124Q274.4875 34.14375 274.4875 32.9875L274.4875 32.346874ZM282.70624 35.971874L282.95624 37.534374Q282.22186 37.690624 281.6281 37.690624Q280.675 37.690624 280.14374 37.39375Q279.6281 37.08125 279.40936 36.596874Q279.1906 36.096874 279.1906 34.51875L279.1906 28.55L277.90936 28.55L277.90936 27.175L279.1906 27.175L279.1906 24.6125L280.9406 23.55L280.9406 27.175L282.70624 27.175L282.70624 28.55L280.9406 28.55L280.9406 34.6125Q280.9406 35.3625 281.03436 35.58125Q281.1281 35.784374 281.33124 35.925Q281.55 36.05 281.9406 36.05Q282.22186 36.05 282.70624 35.971874ZM291.97186 34.20625L293.78436 34.440624Q293.3625 36.01875 292.1906 36.909374Q291.03436 37.784374 289.22186 37.784374Q286.95624 37.784374 285.6125 36.39375Q284.28436 34.9875 284.28436 32.45625Q284.28436 29.83125 285.6281 28.39375Q286.97186 26.940624 289.1281 26.940624Q291.20624 26.940624 292.51874 28.3625Q293.84686 29.76875 293.84686 32.346874Q293.84686 32.503124 293.83124 32.815624L286.09686 32.815624Q286.1906 34.51875 287.0656 35.425Q287.9406 36.33125 289.2375 36.33125Q290.20624 36.33125 290.8781 35.83125Q291.5656 35.315624 291.97186 34.20625ZM286.1906 31.3625L291.9875 31.3625Q291.8781 30.065624 291.33124 29.409374Q290.4875 28.39375 289.14374 28.39375Q287.9406 28.39375 287.1125 29.20625Q286.28436 30.003124 286.1906 31.3625Z" fill-rule="nonzero"/></svg>