<svg version="1.1" viewBox="0.0 0.0 600.0 371.0" fill="none" stroke="none" stroke-linecap="square" stroke-miterlimit="10" width="600" height="371" xmlns:xlink="http://www.w3.org/1999/xlink" xmlns="http://www.w3.org/2000/svg"><path fill="#ffffff" d="M0 0L600.0 0L600.0 371.0L0 371.0L0 0Z" fill-rule="nonzero"/><path stroke="#cccccc" stroke-width="1.0" stroke-linecap="butt" d="M80.5 313.5L581.5 313.5" fill-rule="nonzero"/><path stroke="#cccccc" stroke-width="1.0" stroke-linecap="butt" d="M80.5 229.5L581.5 229.5" fill-rule="nonzero"/><path stroke="#cccccc" stroke-width="1.0" stroke-linecap="butt" d="M80.5 145.5L581.5 145.5" fill-rule="nonzero"/><path stroke="#cccccc" stroke-width="1.0" stroke-linecap="butt" d="M80.5 61.5L581.5 61.5" fill-rule="nonzero"/><clipPath id="id_0"><path d="M80.55 61.916668L581.45 61.916668L581.45 313.45L80.55 313.45L80.55 61.916668Z" clip-rule="nonzero"/></clipPath><path fill="#4285f4" clip-path="url(#id_0)" d="M126.791664 206.02153C126.791664 208.5068 124.77695 210.52153 122.291664 210.52153C119.80639 210.52153 117.791664 208.5068 117.791664 206.02153C117.791664 203.53624 119.80639 201.52153 122.291664 201.52153C124.77695 201.52153 126.791664 203.53624 126.791664 206.02153Z" fill-rule="nonzero"/><path fill="#4285f4" clip-path="url(#id_0)" d="M210.275 98.668594C210.275 101.15387 208.26028 103.168594 205.775 103.168594C203.28972 103.168594 201.275 101.15387 201.275 98.668594C201.275 96.18331 203.28972 94.168594 205.775 94.168594C208.26028 94.168594 210.275 96.18331 210.275 98.668594Z" fill-rule="nonzero"/><path fill="#4285f4" clip-path="url(#id_0)" d="M293.75833 194.11786C293.75833 196.60315 291.74362 198.61786 289.25833 198.61786C286.77304 198.61786 284.75833 196.60315 284.75833 194.11786C284.75833 191.63258 286.77304 189.61786 289.25833 189.61786C291.74362 189.61786 293.75833 191.63258 293.75833 194.11786Z" fill-rule="nonzero"/><path fill="#4285f4" clip-path="url(#id_0)" d="M377.24167 154.0835C377.24167 156.56877 375.22696 158.5835 372.74167 158.5835C370.25638 158.5835 368.24167 156.56877 368.24167 154.0835C368.24167 151.5982 370.25638 149.5835 372.74167 149.5835C375.22696 149.5835 377.24167 151.5982 377.24167 154.0835Z" fill-rule="nonzero"/><path fill="#4285f4" clip-path="url(#id_0)" d="M460.725 277.04318C460.725 279.52847 458.7103 281.54318 456.225 281.54318C453.73972 281.54318 451.725 279.52847 451.725 277.04318C451.725 274.55792 453.73972 272.54318 456.225 272.54318C458.7103 272.54318 460.725 274.55792 460.725 277.04318Z" fill-rule="nonzero"/><path fill="#4285f4" clip-path="url(#id_0)" d="M544.2083 277.85434C544.2083 280.33963 542.1936 282.35434 539.7083 282.35434C537.223 282.35434 535.2083 280.33963 535.2083 277.85434C535.2083 275.36908 537.223 273.35434 539.7083 273.35434C542.1936 273.35434 544.2083 275.36908 544.2083 277.85434Z" fill-rule="nonzero"/><path fill="#000000" d="M265.04688 346.6844L266.10938 346.59064Q266.1875 347.2469 266.46875 347.65314Q266.75 348.0594 267.32812 348.325Q267.92188 348.575 268.65625 348.575Q269.29688 348.575 269.79688 348.3875Q270.29688 348.1844 270.53125 347.85626Q270.78125 347.5125 270.78125 347.1219Q270.78125 346.71564 270.54688 346.41876Q270.3125 346.10626 269.78125 345.90314Q269.42188 345.7625 268.23438 345.48126Q267.0625 345.2 266.59375 344.95Q265.96875 344.6219 265.67188 344.15314Q265.375 343.66876 265.375 343.075Q265.375 342.4344 265.73438 341.8719Q266.10938 341.29376 266.8125 341.0125Q267.53125 340.71564 268.39062 340.71564Q269.34375 340.71564 270.07812 341.02814Q270.8125 341.325 271.20312 341.9344Q271.59375 342.52814 271.625 343.27814L270.53125 343.35626Q270.4375 342.54376 269.92188 342.1375Q269.42188 341.71564 268.4375 341.71564Q267.40625 341.71564 266.9375 342.09064Q266.46875 342.46564 266.46875 342.9969Q266.46875 343.46564 266.79688 343.7625Q267.125 344.0594 268.5 344.3719Q269.89062 344.6844 270.40625 344.91876Q271.15625 345.27814 271.51562 345.8094Q271.875 346.325 271.875 347.02814Q271.875 347.71564 271.48438 348.325Q271.09375 348.91876 270.35938 349.2625Q269.625 349.59064 268.70312 349.59064Q267.53125 349.59064 266.73438 349.2625Q265.95312 348.91876 265.5 348.23126Q265.0625 347.54376 265.04688 346.6844ZM273.48438 349.45L273.48438 340.85626L279.28125 340.85626L279.28125 341.8719L274.625 341.8719L274.625 344.52814L278.65625 344.52814L278.65625 345.54376L274.625 345.54376L274.625 349.45L273.48438 349.45ZM283.07812 345.2625Q283.07812 343.1219 284.21875 341.91876Q285.375 340.7 287.1875 340.7Q288.39062 340.7 289.34375 341.27814Q290.29688 341.84064 290.79688 342.85626Q291.29688 343.8719 291.29688 345.16876Q291.29688 346.46564 290.76562 347.4969Q290.23438 348.52814 289.26562 349.0594Q288.3125 349.59064 287.1875 349.59064Q285.96875 349.59064 285.01562 349.0125Q284.0625 348.41876 283.5625 347.41876Q283.07812 346.40314 283.07812 345.2625ZM284.25 345.27814Q284.25 346.84064 285.07812 347.73126Q285.92188 348.6219 287.1875 348.6219Q288.46875 348.6219 289.29688 347.73126Q290.125 346.825 290.125 345.15314Q290.125 344.10626 289.76562 343.325Q289.42188 342.54376 288.73438 342.1219Q288.04688 341.6844 287.20312 341.6844Q286.0 341.6844 285.125 342.5125Q284.25 343.34064 284.25 345.27814ZM292.54688 349.45L292.54688 344.04376L291.60938 344.04376L291.60938 343.23126L292.54688 343.23126L292.54688 342.5594Q292.54688 341.9344 292.65625 341.6375Q292.8125 341.21564 293.1875 340.96564Q293.57812 340.71564 294.26562 340.71564Q294.71875 340.71564 295.25 340.825L295.09375 341.73126Q294.76562 341.6844 294.46875 341.6844Q293.98438 341.6844 293.78125 341.8875Q293.59375 342.09064 293.59375 342.65314L293.59375 343.23126L294.8125 343.23126L294.8125 344.04376L293.59375 344.04376L293.59375 349.45L292.54688 349.45ZM298.28125 349.45L298.28125 343.23126L299.23438 343.23126L299.23438 344.16876Q299.59375 343.5125 299.89062 343.3094Q300.20312 343.09064 300.57812 343.09064Q301.10938 343.09064 301.65625 343.41876L301.29688 344.40314Q300.90625 344.16876 300.53125 344.16876Q300.17188 344.16876 299.89062 344.3875Q299.625 344.59064 299.51562 344.96564Q299.32812 345.52814 299.32812 346.1844L299.32812 349.45L298.28125 349.45ZM306.54688 347.45L307.64062 347.575Q307.39062 348.52814 306.6875 349.0594Q305.98438 349.59064 304.90625 349.59064Q303.54688 349.59064 302.73438 348.7469Q301.9375 347.90314 301.9375 346.3875Q301.9375 344.825 302.75 343.96564Q303.5625 343.09064 304.84375 343.09064Q306.09375 343.09064 306.875 343.9344Q307.67188 344.77814 307.67188 346.325Q307.67188 346.41876 307.67188 346.60626L303.03125 346.60626Q303.09375 347.6375 303.60938 348.1844Q304.125 348.71564 304.90625 348.71564Q305.48438 348.71564 305.89062 348.41876Q306.3125 348.10626 306.54688 347.45ZM303.09375 345.7469L306.5625 345.7469Q306.5 344.95 306.17188 344.5594Q305.65625 343.95 304.85938 343.95Q304.125 343.95 303.625 344.4344Q303.14062 344.91876 303.09375 345.7469ZM309.26562 349.45L309.26562 340.85626L310.32812 340.85626L310.32812 349.45L309.26562 349.45ZM316.35938 348.6844Q315.76562 349.1844 315.21875 349.3875Q314.6875 349.59064 314.0625 349.59064Q313.03125 349.59064 312.48438 349.09064Q311.9375 348.59064 311.9375 347.8094Q311.9375 347.35626 312.14062 346.98126Q312.34375 346.59064 312.6875 346.3719Q313.03125 346.1375 313.45312 346.02814Q313.75 345.9344 314.39062 345.85626Q315.65625 345.71564 316.26562 345.4969Q316.26562 345.27814 316.26562 345.23126Q316.26562 344.575 315.96875 344.3094Q315.5625 343.96564 314.76562 343.96564Q314.03125 343.96564 313.67188 344.23126Q313.3125 344.48126 313.14062 345.1375L312.10938 344.9969Q312.25 344.34064 312.57812 343.9344Q312.90625 343.52814 313.51562 343.3094Q314.125 343.09064 314.92188 343.09064Q315.71875 343.09064 316.21875 343.27814Q316.71875 343.46564 316.95312 343.7469Q317.1875 344.02814 317.28125 344.46564Q317.32812 344.73126 317.32812 345.4344L317.32812 346.84064Q317.32812 348.3094 317.39062 348.7Q317.46875 349.09064 317.67188 349.45L316.5625 349.45Q316.40625 349.1219 316.35938 348.6844ZM316.26562 346.325Q315.6875 346.5594 314.54688 346.73126Q313.89062 346.825 313.625 346.95Q313.35938 347.0594 313.20312 347.27814Q313.0625 347.4969 313.0625 347.77814Q313.0625 348.2 313.375 348.48126Q313.70312 348.7625 314.3125 348.7625Q314.92188 348.7625 315.39062 348.4969Q315.875 348.23126 316.09375 347.7625Q316.26562 347.40314 316.26562 346.71564L316.26562 346.325ZM319.25 351.84064L319.125 350.85626Q319.46875 350.95 319.73438 350.95Q320.07812 350.95 320.28125 350.825Q320.5 350.71564 320.64062 350.5125Q320.73438 350.34064 320.96875 349.71564Q320.98438 349.6375 321.0625 349.46564L318.6875 343.23126L319.82812 343.23126L321.125 346.825Q321.375 347.5125 321.57812 348.27814Q321.76562 347.54376 322.01562 346.85626L323.34375 343.23126L324.39062 343.23126L322.03125 349.5594Q321.64062 350.575 321.4375 350.96564Q321.15625 351.4969 320.78125 351.73126Q320.42188 351.98126 319.92188 351.98126Q319.625 351.98126 319.25 351.84064ZM328.29688 349.45L328.29688 343.23126L329.23438 343.23126L329.23438 344.10626Q329.92188 343.09064 331.21875 343.09064Q331.78125 343.09064 332.25 343.29376Q332.73438 343.4969 332.96875 343.825Q333.20312 344.15314 333.29688 344.59064Q333.34375 344.8875 333.34375 345.6219L333.34375 349.45L332.29688 349.45L332.29688 345.66876Q332.29688 345.0125 332.17188 344.7Q332.04688 344.3875 331.73438 344.2Q331.42188 343.9969 331.0 343.9969Q330.32812 343.9969 329.82812 344.4344Q329.34375 344.85626 329.34375 346.04376L329.34375 349.45L328.29688 349.45ZM334.90625 346.34064Q334.90625 344.60626 335.85938 343.77814Q336.65625 343.09064 337.8125 343.09064Q339.09375 343.09064 339.90625 343.9344Q340.73438 344.7625 340.73438 346.2469Q340.73438 347.45 340.375 348.1375Q340.01562 348.825 339.3125 349.21564Q338.625 349.59064 337.8125 349.59064Q336.51562 349.59064 335.70312 348.7625Q334.90625 347.91876 334.90625 346.34064ZM335.98438 346.34064Q335.98438 347.52814 336.5 348.1219Q337.03125 348.71564 337.8125 348.71564Q338.60938 348.71564 339.125 348.1219Q339.64062 347.52814 339.64062 346.3094Q339.64062 345.15314 339.10938 344.5594Q338.59375 343.96564 337.8125 343.96564Q337.03125 343.96564 336.5 344.5594Q335.98438 345.1375 335.98438 346.34064ZM346.32812 349.45L346.32812 348.66876Q345.73438 349.59064 344.59375 349.59064Q343.84375 349.59064 343.21875 349.1844Q342.59375 348.7625 342.25 348.02814Q341.90625 347.29376 341.90625 346.34064Q341.90625 345.41876 342.21875 344.65314Q342.53125 343.8875 343.15625 343.4969Q343.78125 343.09064 344.54688 343.09064Q345.10938 343.09064 345.54688 343.325Q345.98438 343.5594 346.26562 343.9344L346.26562 340.85626L347.3125 340.85626L347.3125 349.45L346.32812 349.45ZM343.0 346.34064Q343.0 347.54376 343.5 348.1375Q344.0 348.71564 344.6875 348.71564Q345.375 348.71564 345.85938 348.15314Q346.34375 347.59064 346.34375 346.4344Q346.34375 345.15314 345.84375 344.5594Q345.35938 343.96564 344.64062 343.96564Q343.9375 343.96564 343.46875 344.54376Q343.0 345.10626 343.0 346.34064ZM353.54688 347.45L354.64062 347.575Q354.39062 348.52814 353.6875 349.0594Q352.98438 349.59064 351.90625 349.59064Q350.54688 349.59064 349.73438 348.7469Q348.9375 347.90314 348.9375 346.3875Q348.9375 344.825 349.75 343.96564Q350.5625 343.09064 351.84375 343.09064Q353.09375 343.09064 353.875 343.9344Q354.67188 344.77814 354.67188 346.325Q354.67188 346.41876 354.67188 346.60626L350.03125 346.60626Q350.09375 347.6375 350.60938 348.1844Q351.125 348.71564 351.90625 348.71564Q352.48438 348.71564 352.89062 348.41876Q353.3125 348.10626 353.54688 347.45ZM350.09375 345.7469L353.5625 345.7469Q353.5 344.95 353.17188 344.5594Q352.65625 343.95 351.85938 343.95Q351.125 343.95 350.625 344.4344Q350.14062 344.91876 350.09375 345.7469ZM355.875 347.59064L356.90625 347.4344Q357.0 348.0594 357.39062 348.3875Q357.79688 348.71564 358.53125 348.71564Q359.25 348.71564 359.59375 348.4344Q359.95312 348.1375 359.95312 347.73126Q359.95312 347.3719 359.64062 347.16876Q359.42188 347.02814 358.5625 346.8094Q357.40625 346.5125 356.95312 346.3094Q356.51562 346.09064 356.28125 345.71564Q356.04688 345.34064 356.04688 344.8719Q356.04688 344.46564 356.23438 344.10626Q356.42188 343.7469 356.75 343.5125Q357.0 343.34064 357.42188 343.21564Q357.84375 343.09064 358.34375 343.09064Q359.0625 343.09064 359.60938 343.3094Q360.17188 343.5125 360.4375 343.8719Q360.70312 344.23126 360.79688 344.825L359.76562 344.96564Q359.70312 344.4969 359.35938 344.23126Q359.03125 343.95 358.40625 343.95Q357.6875 343.95 357.375 344.2Q357.0625 344.4344 357.0625 344.7625Q357.0625 344.96564 357.1875 345.1219Q357.32812 345.29376 357.59375 345.40314Q357.75 345.46564 358.53125 345.66876Q359.65625 345.98126 360.09375 346.16876Q360.53125 346.35626 360.78125 346.71564Q361.03125 347.075 361.03125 347.6219Q361.03125 348.15314 360.71875 348.6219Q360.42188 349.075 359.84375 349.34064Q359.26562 349.59064 358.53125 349.59064Q357.3125 349.59064 356.67188 349.09064Q356.04688 348.575 355.875 347.59064ZM367.3125 351.98126Q366.4375 350.8719 365.82812 349.40314Q365.23438 347.91876 365.23438 346.34064Q365.23438 344.95 365.67188 343.66876Q366.20312 342.1844 367.3125 340.71564L368.0625 340.71564Q367.35938 341.9344 367.125 342.45Q366.76562 343.2625 366.5625 344.1375Q366.3125 345.23126 366.3125 346.34064Q366.3125 349.16876 368.0625 351.98126L367.3125 351.98126ZM369.0625 341.98126L369.0625 340.96564L374.625 340.96564L374.625 341.79376Q373.8125 342.66876 373.0 344.1219Q372.20312 345.5594 371.76562 347.09064Q371.4375 348.16876 371.35938 349.45L370.26562 349.45Q370.28125 348.4344 370.65625 346.9969Q371.04688 345.5594 371.75 344.23126Q372.46875 342.90314 373.28125 341.98126L369.0625 341.98126ZM375.875 346.8719L375.875 345.8094L379.125 345.8094L379.125 346.8719L375.875 346.8719ZM383.96875 349.45L382.92188 349.45L382.92188 342.73126Q382.53125 343.09064 381.90625 343.46564Q381.29688 343.825 380.8125 343.9969L380.8125 342.98126Q381.6875 342.5594 382.34375 341.98126Q383.01562 341.3875 383.29688 340.825L383.96875 340.825L383.96875 349.45ZM392.54688 348.4344L392.54688 349.45L386.85938 349.45Q386.85938 349.075 386.98438 348.71564Q387.20312 348.1375 387.67188 347.575Q388.15625 347.0125 389.0625 346.27814Q390.46875 345.1219 390.95312 344.45Q391.45312 343.77814 391.45312 343.1844Q391.45312 342.5594 391.0 342.1375Q390.54688 341.7 389.82812 341.7Q389.0625 341.7 388.60938 342.15314Q388.15625 342.60626 388.14062 343.41876L387.0625 343.3094Q387.17188 342.09064 387.89062 341.46564Q388.625 340.825 389.85938 340.825Q391.09375 340.825 391.8125 341.5125Q392.53125 342.2 392.53125 343.21564Q392.53125 343.73126 392.3125 344.23126Q392.10938 344.71564 391.60938 345.27814Q391.125 345.825 390.0 346.77814Q389.04688 347.575 388.76562 347.8719Q388.5 348.15314 388.32812 348.4344L392.54688 348.4344ZM394.98438 351.98126L394.23438 351.98126Q395.98438 349.16876 395.98438 346.34064Q395.98438 345.2469 395.73438 344.15314Q395.53125 343.27814 395.17188 342.46564Q394.9375 341.95 394.23438 340.71564L394.98438 340.71564Q396.07812 342.1844 396.60938 343.66876Q397.0625 344.95 397.0625 346.34064Q397.0625 347.91876 396.45312 349.40314Q395.84375 350.8719 394.98438 351.98126Z" fill-rule="nonzero"/><path fill="#000000" d="M29.550013 199.19896L20.956263 199.19896L20.956263 193.40208L21.971888 193.40208L21.971888 198.05833L24.628138 198.05833L24.628138 194.02708L25.643763 194.02708L25.643763 198.05833L29.550013 198.05833L29.550013 199.19896ZM29.550013 192.26146L20.956263 192.26146L20.956263 189.29271Q20.956263 188.29271 21.081263 187.76146Q21.253138 187.02708 21.690638 186.51146Q22.268763 185.82396 23.175013 185.49583Q24.065638 185.15208 25.206263 185.15208Q26.190638 185.15208 26.940638 185.38646Q27.690638 185.60521 28.190638 185.96458Q28.690638 186.32396 28.971888 186.76146Q29.253138 187.18333 29.409388 187.77708Q29.550013 188.37083 29.550013 189.15208L29.550013 192.26146ZM28.534388 191.12083L28.534388 189.29271Q28.534388 188.43333 28.378138 187.94896Q28.221888 187.46458 27.925013 187.18333Q27.534388 186.77708 26.846888 186.55833Q26.159388 186.32396 25.190638 186.32396Q23.846888 186.32396 23.128138 186.77708Q22.393763 187.21458 22.143763 187.83958Q21.971888 188.30833 21.971888 189.30833L21.971888 191.12083L28.534388 191.12083ZM29.550013 183.24583L20.956263 183.24583L20.956263 179.43333Q20.956263 178.27708 21.190638 177.68333Q21.425013 177.08958 22.018763 176.73021Q22.596888 176.37083 23.300013 176.37083Q24.221888 176.37083 24.846888 176.96458Q25.471888 177.55833 25.643763 178.79271Q25.862513 178.33958 26.065638 178.10521Q26.518763 177.60521 27.206263 177.16771L29.550013 175.66771L29.550013 177.10521L27.768763 178.23021Q26.987513 178.73021 26.581263 179.05833Q26.175013 179.37083 26.018763 179.63646Q25.846888 179.88646 25.768763 180.15208Q25.737513 180.33958 25.737513 180.77708L25.737513 182.10521L29.550013 182.10521L29.550013 183.24583ZM24.753138 182.10521L24.753138 179.65208Q24.753138 178.88646 24.596888 178.44896Q24.425013 177.99583 24.081263 177.77708Q23.721888 177.54271 23.300013 177.54271Q22.690638 177.54271 22.300013 177.99583Q21.909388 178.43333 21.909388 179.38646L21.909388 182.10521L24.753138 182.10521Z" fill-rule="nonzero"/><path fill="#000000" d="M51.05 313.21564Q51.05 311.6844 51.3625 310.7625Q51.675 309.825 52.284374 309.325Q52.909374 308.825 53.846874 308.825Q54.534374 308.825 55.05 309.10626Q55.58125 309.3875 55.925 309.91876Q56.26875 310.4344 56.45625 311.1844Q56.64375 311.9344 56.64375 313.21564Q56.64375 314.73126 56.33125 315.65314Q56.034374 316.575 55.409374 317.09064Q54.8 317.59064 53.846874 317.59064Q52.6125 317.59064 51.89375 316.7Q51.05 315.6375 51.05 313.21564ZM52.128124 313.21564Q52.128124 315.325 52.628124 316.02814Q53.128124 316.73126 53.846874 316.73126Q54.58125 316.73126 55.065624 316.02814Q55.565624 315.325 55.565624 313.21564Q55.565624 311.09064 55.065624 310.40314Q54.58125 309.7 53.83125 309.7Q53.1125 309.7 52.675 310.3094Q52.128124 311.09064 52.128124 313.21564ZM58.64375 317.45L58.64375 316.2469L59.846874 316.2469L59.846874 317.45L58.64375 317.45ZM61.20625 315.46564L62.221874 315.3719Q62.346874 316.09064 62.70625 316.41876Q63.08125 316.73126 63.64375 316.73126Q64.12813 316.73126 64.4875 316.5125Q64.8625 316.27814 65.09688 315.91876Q65.33125 315.54376 65.4875 314.91876Q65.64375 314.27814 65.64375 313.6219Q65.64375 313.54376 65.64375 313.40314Q65.33125 313.90314 64.78438 314.23126Q64.2375 314.54376 63.596874 314.54376Q62.51875 314.54376 61.784374 313.77814Q61.05 312.9969 61.05 311.73126Q61.05 310.41876 61.815624 309.6219Q62.596874 308.825 63.753124 308.825Q64.58125 308.825 65.26875 309.27814Q65.97188 309.73126 66.33125 310.575Q66.69063 311.40314 66.69063 312.98126Q66.69063 314.6219 66.33125 315.60626Q65.9875 316.575 65.26875 317.09064Q64.56563 317.59064 63.628124 317.59064Q62.6125 317.59064 61.971874 317.04376Q61.33125 316.48126 61.20625 315.46564ZM65.51875 311.66876Q65.51875 310.7625 65.03438 310.23126Q64.56563 309.7 63.878124 309.7Q63.175 309.7 62.64375 310.27814Q62.128124 310.84064 62.128124 311.7625Q62.128124 312.575 62.628124 313.09064Q63.128124 313.60626 63.846874 313.60626Q64.58125 313.60626 65.05 313.09064Q65.51875 312.575 65.51875 311.66876ZM68.05 313.21564Q68.05 311.6844 68.3625 310.7625Q68.675 309.825 69.28438 309.325Q69.90938 308.825 70.84688 308.825Q71.53438 308.825 72.05 309.10626Q72.58125 309.3875 72.925 309.91876Q73.26875 310.4344 73.45625 311.1844Q73.64375 311.9344 73.64375 313.21564Q73.64375 314.73126 73.33125 315.65314Q73.03438 316.575 72.40938 317.09064Q71.8 317.59064 70.84688 317.59064Q69.6125 317.59064 68.89375 316.7Q68.05 315.6375 68.05 313.21564ZM69.12813 313.21564Q69.12813 315.325 69.62813 316.02814Q70.12813 316.73126 70.84688 316.73126Q71.58125 316.73126 72.06563 316.02814Q72.56563 315.325 72.56563 313.21564Q72.56563 311.09064 72.06563 310.40314Q71.58125 309.7 70.83125 309.7Q70.1125 309.7 69.675 310.3094Q69.12813 311.09064 69.12813 313.21564Z" fill-rule="nonzero"/><path fill="#000000" d="M51.05 229.37119Q51.05 227.83994 51.3625 226.91806Q51.675 225.98056 52.284374 225.48056Q52.909374 224.98056 53.846874 224.98056Q54.534374 224.98056 55.05 225.26181Q55.58125 225.54306 55.925 226.07431Q56.26875 226.58994 56.45625 227.33994Q56.64375 228.08994 56.64375 229.37119Q56.64375 230.88681 56.33125 231.80869Q56.034374 232.73056 55.409374 233.24619Q54.8 233.74619 53.846874 233.74619Q52.6125 233.74619 51.89375 232.85556Q51.05 231.79306 51.05 229.37119ZM52.128124 229.37119Q52.128124 231.48056 52.628124 232.18369Q53.128124 232.88681 53.846874 232.88681Q54.58125 232.88681 55.065624 232.18369Q55.565624 231.48056 55.565624 229.37119Q55.565624 227.24619 55.065624 226.55869Q54.58125 225.85556 53.83125 225.85556Q53.1125 225.85556 52.675 226.46494Q52.128124 227.24619 52.128124 229.37119ZM58.64375 233.60556L58.64375 232.40244L59.846874 232.40244L59.846874 233.60556L58.64375 233.60556ZM61.20625 231.62119L62.221874 231.52744Q62.346874 232.24619 62.70625 232.57431Q63.08125 232.88681 63.64375 232.88681Q64.12813 232.88681 64.4875 232.66806Q64.8625 232.43369 65.09688 232.07431Q65.33125 231.69931 65.4875 231.07431Q65.64375 230.43369 65.64375 229.77744Q65.64375 229.69931 65.64375 229.55869Q65.33125 230.05869 64.78438 230.38681Q64.2375 230.69931 63.596874 230.69931Q62.51875 230.69931 61.784374 229.93369Q61.05 229.15244 61.05 227.88681Q61.05 226.57431 61.815624 225.77744Q62.596874 224.98056 63.753124 224.98056Q64.58125 224.98056 65.26875 225.43369Q65.97188 225.88681 66.33125 226.73056Q66.69063 227.55869 66.69063 229.13681Q66.69063 230.77744 66.33125 231.76181Q65.9875 232.73056 65.26875 233.24619Q64.56563 233.74619 63.628124 233.74619Q62.6125 233.74619 61.971874 233.19931Q61.33125 232.63681 61.20625 231.62119ZM65.51875 227.82431Q65.51875 226.91806 65.03438 226.38681Q64.56563 225.85556 63.878124 225.85556Q63.175 225.85556 62.64375 226.43369Q62.128124 226.99619 62.128124 227.91806Q62.128124 228.73056 62.628124 229.24619Q63.128124 229.76181 63.846874 229.76181Q64.58125 229.76181 65.05 229.24619Q65.51875 228.73056 65.51875 227.82431ZM72.01875 233.60556L70.97188 233.60556L70.97188 226.88681Q70.58125 227.24619 69.95625 227.62119Q69.34688 227.98056 68.8625 228.15244L68.8625 227.13681Q69.7375 226.71494 70.39375 226.13681Q71.06563 225.54306 71.34688 224.98056L72.01875 224.98056L72.01875 233.60556Z" fill-rule="nonzero"/><path fill="#000000" d="M51.05 145.52673Q51.05 143.99548 51.3625 143.07361Q51.675 142.13611 52.284374 141.63611Q52.909374 141.13611 53.846874 141.13611Q54.534374 141.13611 55.05 141.41736Q55.58125 141.69861 55.925 142.22986Q56.26875 142.74548 56.45625 143.49548Q56.64375 144.24548 56.64375 145.52673Q56.64375 147.04236 56.33125 147.96423Q56.034374 148.88611 55.409374 149.40173Q54.8 149.90173 53.846874 149.90173Q52.6125 149.90173 51.89375 149.01111Q51.05 147.94861 51.05 145.52673ZM52.128124 145.52673Q52.128124 147.63611 52.628124 148.33923Q53.128124 149.04236 53.846874 149.04236Q54.58125 149.04236 55.065624 148.33923Q55.565624 147.63611 55.565624 145.52673Q55.565624 143.40173 55.065624 142.71423Q54.58125 142.01111 53.83125 142.01111Q53.1125 142.01111 52.675 142.62048Q52.128124 143.40173 52.128124 145.52673ZM58.64375 149.76111L58.64375 148.55798L59.846874 148.55798L59.846874 149.76111L58.64375 149.76111ZM61.20625 147.77673L62.221874 147.68298Q62.346874 148.40173 62.70625 148.72986Q63.08125 149.04236 63.64375 149.04236Q64.12813 149.04236 64.4875 148.82361Q64.8625 148.58923 65.09688 148.22986Q65.33125 147.85486 65.4875 147.22986Q65.64375 146.58923 65.64375 145.93298Q65.64375 145.85486 65.64375 145.71423Q65.33125 146.21423 64.78438 146.54236Q64.2375 146.85486 63.596874 146.85486Q62.51875 146.85486 61.784374 146.08923Q61.05 145.30798 61.05 144.04236Q61.05 142.72986 61.815624 141.93298Q62.596874 141.13611 63.753124 141.13611Q64.58125 141.13611 65.26875 141.58923Q65.97188 142.04236 66.33125 142.88611Q66.69063 143.71423 66.69063 145.29236Q66.69063 146.93298 66.33125 147.91736Q65.9875 148.88611 65.26875 149.40173Q64.56563 149.90173 63.628124 149.90173Q62.6125 149.90173 61.971874 149.35486Q61.33125 148.79236 61.20625 147.77673ZM65.51875 143.97986Q65.51875 143.07361 65.03438 142.54236Q64.56563 142.01111 63.878124 142.01111Q63.175 142.01111 62.64375 142.58923Q62.128124 143.15173 62.128124 144.07361Q62.128124 144.88611 62.628124 145.40173Q63.128124 145.91736 63.846874 145.91736Q64.58125 145.91736 65.05 145.40173Q65.51875 144.88611 65.51875 143.97986ZM73.59688 148.74548L73.59688 149.76111L67.90938 149.76111Q67.90938 149.38611 68.03438 149.02673Q68.25313 148.44861 68.72188 147.88611Q69.20625 147.32361 70.1125 146.58923Q71.51875 145.43298 72.00313 144.76111Q72.50313 144.08923 72.50313 143.49548Q72.50313 142.87048 72.05 142.44861Q71.59688 142.01111 70.87813 142.01111Q70.1125 142.01111 69.65938 142.46423Q69.20625 142.91736 69.19063 143.72986L68.1125 143.62048Q68.22188 142.40173 68.94063 141.77673Q69.675 141.13611 70.90938 141.13611Q72.14375 141.13611 72.8625 141.82361Q73.58125 142.51111 73.58125 143.52673Q73.58125 144.04236 73.3625 144.54236Q73.15938 145.02673 72.65938 145.58923Q72.175 146.13611 71.05 147.08923Q70.09688 147.88611 69.81563 148.18298Q69.55 148.46423 69.37813 148.74548L73.59688 148.74548Z" fill-rule="nonzero"/><path fill="#000000" d="M51.05 61.68229Q51.05 60.15104 51.3625 59.229164Q51.675 58.291664 52.284374 57.791664Q52.909374 57.291664 53.846874 57.291664Q54.534374 57.291664 55.05 57.572914Q55.58125 57.854164 55.925 58.385414Q56.26875 58.90104 56.45625 59.65104Q56.64375 60.40104 56.64375 61.68229Q56.64375 63.197914 56.33125 64.11979Q56.034374 65.041664 55.409374 65.55729Q54.8 66.05729 53.846874 66.05729Q52.6125 66.05729 51.89375 65.166664Q51.05 64.104164 51.05 61.68229ZM52.128124 61.68229Q52.128124 63.791664 52.628124 64.49479Q53.128124 65.197914 53.846874 65.197914Q54.58125 65.197914 55.065624 64.49479Q55.565624 63.791664 55.565624 61.68229Q55.565624 59.55729 55.065624 58.86979Q54.58125 58.166664 53.83125 58.166664Q53.1125 58.166664 52.675 58.77604Q52.128124 59.55729 52.128124 61.68229ZM58.64375 65.916664L58.64375 64.71354L59.846874 64.71354L59.846874 65.916664L58.64375 65.916664ZM61.20625 63.93229L62.221874 63.83854Q62.346874 64.55729 62.70625 64.885414Q63.08125 65.197914 63.64375 65.197914Q64.12813 65.197914 64.4875 64.979164Q64.8625 64.74479 65.09688 64.385414Q65.33125 64.010414 65.4875 63.385414Q65.64375 62.74479 65.64375 62.08854Q65.64375 62.010414 65.64375 61.86979Q65.33125 62.36979 64.78438 62.697914Q64.2375 63.010414 63.596874 63.010414Q62.51875 63.010414 61.784374 62.24479Q61.05 61.46354 61.05 60.197914Q61.05 58.885414 61.815624 58.08854Q62.596874 57.291664 63.753124 57.291664Q64.58125 57.291664 65.26875 57.74479Q65.97188 58.197914 66.33125 59.041664Q66.69063 59.86979 66.69063 61.447914Q66.69063 63.08854 66.33125 64.072914Q65.9875 65.041664 65.26875 65.55729Q64.56563 66.05729 63.628124 66.05729Q62.6125 66.05729 61.971874 65.510414Q61.33125 64.947914 61.20625 63.93229ZM65.51875 60.135414Q65.51875 59.229164 65.03438 58.697914Q64.56563 58.166664 63.878124 58.166664Q63.175 58.166664 62.64375 58.74479Q62.128124 59.30729 62.128124 60.229164Q62.128124 61.041664 62.628124 61.55729Q63.128124 62.072914 63.846874 62.072914Q64.58125 62.072914 65.05 61.55729Q65.51875 61.041664 65.51875 60.135414ZM68.05 63.65104L69.1125 63.510414Q69.28438 64.40104 69.72188 64.80729Q70.15938 65.197914 70.78438 65.197914Q71.53438 65.197914 72.05 64.68229Q72.56563 64.166664 72.56563 63.40104Q72.56563 62.68229 72.08125 62.21354Q71.6125 61.729164 70.87813 61.729164Q70.58125 61.729164 70.12813 61.854164L70.25313 60.916664Q70.3625 60.93229 70.425 60.93229Q71.09688 60.93229 71.62813 60.58854Q72.175 60.229164 72.175 59.49479Q72.175 58.916664 71.78438 58.541664Q71.39375 58.15104 70.76875 58.15104Q70.15938 58.15104 69.7375 58.541664Q69.33125 58.93229 69.22188 59.697914L68.15938 59.510414Q68.34688 58.46354 69.03438 57.885414Q69.72188 57.291664 70.7375 57.291664Q71.44063 57.291664 72.03438 57.604164Q72.62813 57.90104 72.94063 58.416664Q73.25313 58.93229 73.25313 59.52604Q73.25313 60.072914 72.95625 60.541664Q72.65938 60.99479 72.08125 61.260414Q72.83125 61.43229 73.25313 61.99479Q73.675 62.541664 73.675 63.385414Q73.675 64.510414 72.84688 65.291664Q72.03438 66.072914 70.78438 66.072914Q69.65938 66.072914 68.90938 65.40104Q68.15938 64.71354 68.05 63.65104Z" fill-rule="nonzero"/><path fill="#757575" d="M19.45625 32.95625L21.2375 32.8Q21.3625 33.8625 21.815624 34.55Q22.284374 35.2375 23.253124 35.675Q24.2375 36.096874 25.471874 36.096874Q26.55 36.096874 27.378124 35.784374Q28.20625 35.45625 28.6125 34.89375Q29.01875 34.33125 29.01875 33.659374Q29.01875 32.9875 28.628124 32.4875Q28.2375 31.9875 27.346874 31.64375Q26.76875 31.409374 24.784374 30.940624Q22.815624 30.471874 22.034374 30.05Q21.003124 29.51875 20.503124 28.721874Q20.003124 27.925 20.003124 26.940624Q20.003124 25.846874 20.6125 24.909374Q21.221874 23.971874 22.409374 23.4875Q23.596874 22.9875 25.034374 22.9875Q26.628124 22.9875 27.846874 23.503124Q29.065624 24.01875 29.70625 25.01875Q30.3625 26.003124 30.409374 27.26875L28.596874 27.409374Q28.45625 26.05 27.6125 25.3625Q26.76875 24.659374 25.1125 24.659374Q23.39375 24.659374 22.596874 25.3Q21.815624 25.925 21.815624 26.8Q21.815624 27.58125 22.378124 28.08125Q22.925 28.58125 25.2375 29.096874Q27.55 29.6125 28.409374 30.003124Q29.659374 30.58125 30.253124 31.471874Q30.846874 32.346874 30.846874 33.503124Q30.846874 34.64375 30.190624 35.659374Q29.534374 36.675 28.3 37.2375Q27.08125 37.8 25.55 37.8Q23.6125 37.8 22.3 37.2375Q20.9875 36.659374 20.2375 35.51875Q19.4875 34.378124 19.45625 32.95625ZM32.8625 41.51875L32.8625 27.175L34.471874 27.175L34.471874 28.51875Q35.034374 27.7375 35.7375 27.346874Q36.45625 26.940624 37.471874 26.940624Q38.8 26.940624 39.815624 27.628124Q40.83125 28.315624 41.346874 29.565624Q41.878124 30.8 41.878124 32.284374Q41.878124 33.878124 41.3 35.159374Q40.7375 36.425 39.64375 37.1125Q38.55 37.784374 37.346874 37.784374Q36.471874 37.784374 35.76875 37.409374Q35.08125 37.034374 34.628124 36.471874L34.628124 41.51875L32.8625 41.51875ZM34.45625 32.425Q34.45625 34.425 35.26875 35.378124Q36.08125 36.33125 37.2375 36.33125Q38.409374 36.33125 39.2375 35.346874Q40.08125 34.3625 40.08125 32.26875Q40.08125 30.3 39.253124 29.315624Q38.440624 28.315624 37.315624 28.315624Q36.190624 28.315624 35.315624 29.378124Q34.45625 30.425 34.45625 32.425ZM43.846874 37.55L43.846874 27.175L45.425 27.175L45.425 28.753124Q46.034374 27.64375 46.55 27.3Q47.065624 26.940624 47.675 26.940624Q48.565624 26.940624 49.4875 27.503124L48.878124 29.14375Q48.2375 28.753124 47.596874 28.753124Q47.01875 28.753124 46.55 29.1125Q46.096874 29.45625 45.89375 30.065624Q45.6125 31.003124 45.6125 32.1125L45.6125 37.55L43.846874 37.55ZM57.971874 34.20625L59.784374 34.440624Q59.3625 36.01875 58.190624 36.909374Q57.034374 37.784374 55.221874 37.784374Q52.95625 37.784374 51.6125 36.39375Q50.284374 34.9875 50.284374 32.45625Q50.284374 29.83125 51.628124 28.39375Q52.971874 26.940624 55.128124 26.940624Q57.20625 26.940624 58.51875 28.3625Q59.846874 29.76875 59.846874 32.346874Q59.846874 32.503124 59.83125 32.815624L52.096874 32.815624Q52.190624 34.51875 53.065624 35.425Q53.940624 36.33125 55.2375 36.33125Q56.20625 36.33125 56.878124 35.83125Q57.565624 35.315624 57.971874 34.20625ZM52.190624 31.3625L57.9875 31.3625Q57.878124 30.065624 57.33125 29.409374Q56.4875 28.39375 55.14375 28.39375Q53.940624 28.39375 53.1125 29.20625Q52.284374 30.003124 52.190624 31.3625ZM68.64375 36.26875Q67.65938 37.096874 66.75313 37.440624Q65.84688 37.784374 64.81563 37.784374Q63.1125 37.784374 62.190624 36.95625Q61.26875 36.1125 61.26875 34.815624Q61.26875 34.05 61.6125 33.425Q61.971874 32.8 62.534374 32.425Q63.096874 32.034374 63.8 31.83125Q64.31563 31.70625 65.3625 31.565624Q67.4875 31.315624 68.4875 30.971874Q68.50313 30.6125 68.50313 30.503124Q68.50313 29.440624 68.00313 28.9875Q67.33125 28.39375 66.00313 28.39375Q64.75313 28.39375 64.15938 28.83125Q63.58125 29.26875 63.3 30.378124L61.58125 30.14375Q61.815624 29.034374 62.346874 28.3625Q62.878124 27.675 63.89375 27.315624Q64.90938 26.940624 66.25313 26.940624Q67.58125 26.940624 68.40938 27.253124Q69.2375 27.565624 69.62813 28.05Q70.01875 28.51875 70.175 29.2375Q70.26875 29.690624 70.26875 30.8625L70.26875 33.20625Q70.26875 35.659374 70.37813 36.315624Q70.4875 36.95625 70.83125 37.55L68.9875 37.55Q68.72188 37.003124 68.64375 36.26875ZM68.4875 32.346874Q67.53438 32.7375 65.6125 33.003124Q64.53438 33.159374 64.08125 33.3625Q63.64375 33.55 63.39375 33.925Q63.14375 34.3 63.14375 34.76875Q63.14375 35.471874 63.675 35.940624Q64.20625 36.409374 65.2375 36.409374Q66.25313 36.409374 67.03438 35.971874Q67.83125 35.51875 68.20625 34.753124Q68.4875 34.14375 68.4875 32.9875L68.4875 32.346874ZM79.59688 37.55L79.59688 36.2375Q78.6125 37.784374 76.69063 37.784374Q75.45625 37.784374 74.40938 37.096874Q73.37813 36.409374 72.8 35.190624Q72.2375 33.971874 72.2375 32.378124Q72.2375 30.815624 72.75313 29.55Q73.26875 28.284374 74.3 27.6125Q75.34688 26.940624 76.6125 26.940624Q77.55 26.940624 78.28438 27.346874Q79.01875 27.7375 79.4875 28.3625L79.4875 23.2375L81.22188 23.2375L81.22188 37.55L79.59688 37.55ZM74.03438 32.378124Q74.03438 34.3625 74.87813 35.346874Q75.72188 36.33125 76.8625 36.33125Q78.01875 36.33125 78.81563 35.39375Q79.62813 34.45625 79.62813 32.51875Q79.62813 30.39375 78.8 29.39375Q77.9875 28.39375 76.78438 28.39375Q75.6125 28.39375 74.81563 29.3625Q74.03438 30.315624 74.03438 32.378124ZM83.87813 25.253124L83.87813 23.2375L85.64375 23.2375L85.64375 25.253124L83.87813 25.253124ZM83.87813 37.55L83.87813 27.175L85.64375 27.175L85.64375 37.55L83.87813 37.55ZM87.8625 37.55L87.8625 27.175L89.45625 27.175L89.45625 28.659374Q90.59688 26.940624 92.75313 26.940624Q93.69063 26.940624 94.47188 27.284374Q95.26875 27.6125 95.65938 28.159374Q96.05 28.70625 96.20625 29.45625Q96.3 29.95625 96.3 31.175L96.3 37.55L94.53438 37.55L94.53438 31.2375Q94.53438 30.159374 94.33125 29.628124Q94.12813 29.096874 93.59688 28.784374Q93.08125 28.471874 92.37813 28.471874Q91.25313 28.471874 90.44063 29.190624Q89.62813 29.89375 89.62813 31.878124L89.62813 37.55L87.8625 37.55ZM98.55 38.409374L100.25313 38.659374Q100.3625 39.45625 100.84688 39.815624Q101.50313 40.3 102.64375 40.3Q103.8625 40.3 104.51875 39.815624Q105.19063 39.33125 105.425 38.45625Q105.56563 37.909374 105.55 36.190624Q104.39375 37.55 102.675 37.55Q100.53438 37.55 99.3625 36.003124Q98.19063 34.45625 98.19063 32.3Q98.19063 30.815624 98.72188 29.565624Q99.26875 28.315624 100.28438 27.628124Q101.31563 26.940624 102.69063 26.940624Q104.51875 26.940624 105.72188 28.425L105.72188 27.175L107.33125 27.175L107.33125 36.14375Q107.33125 38.565624 106.83125 39.565624Q106.34688 40.58125 105.26875 41.159374Q104.20625 41.753124 102.64375 41.753124Q100.8 41.753124 99.64375 40.925Q98.50313 40.096874 98.55 38.409374ZM100.00313 32.175Q100.00313 34.221874 100.81563 35.159374Q101.62813 36.096874 102.84688 36.096874Q104.05 36.096874 104.8625 35.159374Q105.69063 34.221874 105.69063 32.2375Q105.69063 30.33125 104.84688 29.3625Q104.00313 28.39375 102.81563 28.39375Q101.64375 28.39375 100.81563 29.346874Q100.00313 30.3 100.00313 32.175ZM116.28438 37.55L116.28438 28.55L114.7375 28.55L114.7375 27.175L116.28438 27.175L116.28438 26.08125Q116.28438 25.034374 116.47188 24.51875Q116.72188 23.83125 117.3625 23.409374Q118.00313 22.9875 119.15938 22.9875Q119.90938 22.9875 120.8 23.159374L120.53438 24.690624Q119.9875 24.596874 119.50313 24.596874Q118.70625 24.596874 118.3625 24.940624Q118.03438 25.284374 118.03438 26.221874L118.03438 27.175L120.06563 27.175L120.06563 28.55L118.03438 28.55L118.03438 37.55L116.28438 37.55ZM128.64375 36.26875Q127.65938 37.096874 126.75313 37.440624Q125.84688 37.784374 124.81563 37.784374Q123.1125 37.784374 122.19063 36.95625Q121.26875 36.1125 121.26875 34.815624Q121.26875 34.05 121.6125 33.425Q121.97188 32.8 122.53438 32.425Q123.09688 32.034374 123.8 31.83125Q124.31563 31.70625 125.3625 31.565624Q127.4875 31.315624 128.4875 30.971874Q128.50313 30.6125 128.50313 30.503124Q128.50313 29.440624 128.00313 28.9875Q127.33125 28.39375 126.00313 28.39375Q124.75313 28.39375 124.15938 28.83125Q123.58125 29.26875 123.3 30.378124L121.58125 30.14375Q121.81563 29.034374 122.34688 28.3625Q122.87813 27.675 123.89375 27.315624Q124.90938 26.940624 126.25313 26.940624Q127.58125 26.940624 128.40938 27.253124Q129.2375 27.565624 129.62813 28.05Q130.01875 28.51875 130.175 29.2375Q130.26875 29.690624 130.26875 30.8625L130.26875 33.20625Q130.26875 35.659374 130.37813 36.315624Q130.4875 36.95625 130.83125 37.55L128.9875 37.55Q128.72188 37.003124 128.64375 36.26875ZM128.4875 32.346874Q127.53438 32.7375 125.6125 33.003124Q124.53438 33.159374 124.08125 33.3625Q123.64375 33.55 123.39375 33.925Q123.14375 34.3 123.14375 34.76875Q123.14375 35.471874 123.675 35.940624Q124.20625 36.409374 125.2375 36.409374Q126.25313 36.409374 127.03438 35.971874Q127.83125 35.51875 128.20625 34.753124Q128.4875 34.14375 128.4875 32.9875L128.4875 32.346874ZM139.64375 33.753124L141.3625 33.971874Q141.08125 35.76875 139.90938 36.784374Q138.75313 37.784374 137.05 37.784374Q134.925 37.784374 133.62813 36.39375Q132.33125 35.003124 132.33125 32.409374Q132.33125 30.721874 132.87813 29.471874Q133.44063 28.20625 134.58125 27.58125Q135.72188 26.940624 137.06563 26.940624Q138.75313 26.940624 139.81563 27.8Q140.89375 28.659374 141.20625 30.221874L139.4875 30.4875Q139.25313 29.440624 138.62813 28.925Q138.00313 28.39375 137.12813 28.39375Q135.8 28.39375 134.97188 29.346874Q134.14375 30.3 134.14375 32.346874Q134.14375 34.440624 134.94063 35.39375Q135.7375 36.33125 137.03438 36.33125Q138.06563 36.33125 138.75313 35.70625Q139.45625 35.065624 139.64375 33.753124ZM146.70625 35.971874L146.95625 37.534374Q146.22188 37.690624 145.62813 37.690624Q144.675 37.690624 144.14375 37.39375Q143.62813 37.08125 143.40938 36.596874Q143.19063 36.096874 143.19063 34.51875L143.19063 28.55L141.90938 28.55L141.90938 27.175L143.19063 27.175L143.19063 24.6125L144.94063 23.55L144.94063 27.175L146.70625 27.175L146.70625 28.55L144.94063 28.55L144.94063 34.6125Q144.94063 35.3625 145.03438 35.58125Q145.12813 35.784374 145.33125 35.925Q145.55 36.05 145.94063 36.05Q146.22188 36.05 146.70625 35.971874ZM148.22188 32.3625Q148.22188 29.4875 149.81563 28.096874Q151.15938 26.940624 153.08125 26.940624Q155.22188 26.940624 156.56563 28.346874Q157.925 29.753124 157.925 32.221874Q157.925 34.221874 157.33125 35.378124Q156.7375 36.51875 155.58125 37.159374Q154.44063 37.784374 153.08125 37.784374Q150.89375 37.784374 149.55 36.39375Q148.22188 34.9875 148.22188 32.3625ZM150.01875 32.3625Q150.01875 34.3625 150.87813 35.346874Q151.75313 36.33125 153.08125 36.33125Q154.39375 36.33125 155.25313 35.346874Q156.12813 34.346874 156.12813 32.3Q156.12813 30.378124 155.25313 29.39375Q154.37813 28.39375 153.08125 28.39375Q151.75313 28.39375 150.87813 29.39375Q150.01875 30.378124 150.01875 32.3625ZM159.84688 37.55L159.84688 27.175L161.425 27.175L161.425 28.753124Q162.03438 27.64375 162.55 27.3Q163.06563 26.940624 163.675 26.940624Q164.56563 26.940624 165.4875 27.503124L164.87813 29.14375Q164.2375 28.753124 163.59688 28.753124Q163.01875 28.753124 162.55 29.1125Q162.09688 29.45625 161.89375 30.065624Q161.6125 31.003124 161.6125 32.1125L161.6125 37.55L159.84688 37.55ZM172.22188 32.3625Q172.22188 29.4875 173.81563 28.096874Q175.15938 26.940624 177.08125 26.940624Q179.22188 26.940624 180.56563 28.346874Q181.925 29.753124 181.925 32.221874Q181.925 34.221874 181.33125 35.378124Q180.7375 36.51875 179.58125 37.159374Q178.44063 37.784374 177.08125 37.784374Q174.89375 37.784374 173.55 36.39375Q172.22188 34.9875 172.22188 32.3625ZM174.01875 32.3625Q174.01875 34.3625 174.87813 35.346874Q175.75313 36.33125 177.08125 36.33125Q178.39375 36.33125 179.25313 35.346874Q180.12813 34.346874 180.12813 32.3Q180.12813 30.378124 179.25313 29.39375Q178.37813 28.39375 177.08125 28.39375Q175.75313 28.39375 174.87813 29.39375Q174.01875 30.378124 174.01875 32.3625ZM184.28438 37.55L184.28438 28.55L182.7375 28.55L182.7375 27.175L184.28438 27.175L184.28438 26.08125Q184.28438 25.034374 184.47188 24.51875Q184.72188 23.83125 185.3625 23.409374Q186.00313 22.9875 187.15938 22.9875Q187.90938 22.9875 188.8 23.159374L188.53438 24.690624Q187.9875 24.596874 187.50313 24.596874Q186.70625 24.596874 186.3625 24.940624Q186.03438 25.284374 186.03438 26.221874L186.03438 27.175L188.06563 27.175L188.06563 28.55L186.03438 28.55L186.03438 37.55L184.28438 37.55ZM196.12813 37.55L196.12813 23.2375L202.47188 23.2375Q204.37813 23.2375 205.37813 23.628124Q206.37813 24.003124 206.97188 24.9875Q207.56563 25.95625 207.56563 27.14375Q207.56563 28.659374 206.58125 29.70625Q205.59688 30.753124 203.53438 31.034374Q204.28438 31.39375 204.675 31.753124Q205.50313 32.503124 206.25313 33.659374L208.7375 37.55L206.3625 37.55L204.45625 34.565624Q203.62813 33.284374 203.09688 32.596874Q202.56563 31.909374 202.12813 31.64375Q201.70625 31.3625 201.26875 31.253124Q200.94063 31.190624 200.22188 31.190624L198.01875 31.190624L198.01875 37.55L196.12813 37.55ZM198.01875 29.55L202.09688 29.55Q203.39375 29.55 204.1125 29.284374Q204.84688 29.01875 205.22188 28.425Q205.6125 27.83125 205.6125 27.14375Q205.6125 26.128124 204.87813 25.471874Q204.14375 24.815624 202.55 24.815624L198.01875 24.815624L198.01875 29.55ZM216.97188 34.20625L218.78438 34.440624Q218.3625 36.01875 217.19063 36.909374Q216.03438 37.784374 214.22188 37.784374Q211.95625 37.784374 210.6125 36.39375Q209.28438 34.9875 209.28438 32.45625Q209.28438 29.83125 210.62813 28.39375Q211.97188 26.940624 214.12813 26.940624Q216.20625 26.940624 217.51875 28.3625Q218.84688 29.76875 218.84688 32.346874Q218.84688 32.503124 218.83125 32.815624L211.09688 32.815624Q211.19063 34.51875 212.06563 35.425Q212.94063 36.33125 214.2375 36.33125Q215.20625 36.33125 215.87813 35.83125Q216.56563 35.315624 216.97188 34.20625ZM211.19063 31.3625L216.9875 31.3625Q216.87813 30.065624 216.33125 29.409374Q215.4875 28.39375 214.14375 28.39375Q212.94063 28.39375 212.1125 29.20625Q211.28438 30.003124 211.19063 31.3625ZM220.83125 37.55L220.83125 23.2375L222.58125 23.2375L222.58125 37.55L220.83125 37.55ZM231.64375 36.26875Q230.65938 37.096874 229.75313 37.440624Q228.84688 37.784374 227.81563 37.784374Q226.1125 37.784374 225.19063 36.95625Q224.26875 36.1125 224.26875 34.815624Q224.26875 34.05 224.6125 33.425Q224.97188 32.8 225.53438 32.425Q226.09688 32.034374 226.8 31.83125Q227.31563 31.70625 228.3625 31.565624Q230.4875 31.315624 231.4875 30.971874Q231.50313 30.6125 231.50313 30.503124Q231.50313 29.440624 231.00313 28.9875Q230.33125 28.39375 229.00313 28.39375Q227.75313 28.39375 227.15938 28.83125Q226.58125 29.26875 226.3 30.378124L224.58125 30.14375Q224.81563 29.034374 225.34688 28.3625Q225.87813 27.675 226.89375 27.315624Q227.90938 26.940624 229.25313 26.940624Q230.58125 26.940624 231.40938 27.253124Q232.2375 27.565624 232.62813 28.05Q233.01875 28.51875 233.175 29.2375Q233.26875 29.690624 233.26875 30.8625L233.26875 33.20625Q233.26875 35.659374 233.37813 36.315624Q233.4875 36.95625 233.83125 37.55L231.9875 37.55Q231.72188 37.003124 231.64375 36.26875ZM231.4875 32.346874Q230.53438 32.7375 228.6125 33.003124Q227.53438 33.159374 227.08125 33.3625Q226.64375 33.55 226.39375 33.925Q226.14375 34.3 226.14375 34.76875Q226.14375 35.471874 226.675 35.940624Q227.20625 36.409374 228.2375 36.409374Q229.25313 36.409374 230.03438 35.971874Q230.83125 35.51875 231.20625 34.753124Q231.4875 34.14375 231.4875 32.9875L231.4875 32.346874ZM235.78438 41.55L235.59688 39.89375Q236.175 40.05 236.59688 40.05Q237.19063 40.05 237.53438 39.846874Q237.89375 39.659374 238.1125 39.315624Q238.28438 39.05 238.65938 38.003124Q238.70625 37.846874 238.81563 37.565624L234.87813 27.175L236.76875 27.175L238.925 33.190624Q239.34688 34.33125 239.675 35.58125Q239.9875 34.378124 240.39375 33.221874L242.6125 27.175L244.37813 27.175L240.425 37.721874Q239.8 39.440624 239.44063 40.08125Q238.97188 40.95625 238.3625 41.346874Q237.76875 41.753124 236.925 41.753124Q236.40938 41.753124 235.78438 41.55ZM256.1906 37.55L250.64375 23.2375L252.69063 23.2375L256.40936 33.628124Q256.8625 34.878124 257.15936 35.971874Q257.4875 34.8 257.9406 33.628124L261.8 23.2375L263.7375 23.2375L258.1281 37.55L256.1906 37.55ZM264.45624 32.95625L266.2375 32.8Q266.3625 33.8625 266.8156 34.55Q267.28436 35.2375 268.2531 35.675Q269.2375 36.096874 270.47186 36.096874Q271.55 36.096874 272.3781 35.784374Q273.20624 35.45625 273.6125 34.89375Q274.01874 34.33125 274.01874 33.659374Q274.01874 32.9875 273.6281 32.4875Q273.2375 31.9875 272.34686 31.64375Q271.76874 31.409374 269.78436 30.940624Q267.8156 30.471874 267.03436 30.05Q266.0031 29.51875 265.5031 28.721874Q265.0031 27.925 265.0031 26.940624Q265.0031 25.846874 265.6125 24.909374Q266.22186 23.971874 267.40936 23.4875Q268.59686 22.9875 270.03436 22.9875Q271.6281 22.9875 272.84686 23.503124Q274.0656 24.01875 274.70624 25.01875Q275.3625 26.003124 275.40936 27.26875L273.59686 27.409374Q273.45624 26.05 272.6125 25.3625Q271.76874 24.659374 270.1125 24.659374Q268.39374 24.659374 267.59686 25.3Q266.8156 25.925 266.8156 26.8Q266.8156 27.58125 267.3781 28.08125Q267.925 28.58125 270.2375 29.096874Q272.55 29.6125 273.40936 30.003124Q274.65936 30.58125 275.2531 31.471874Q275.84686 32.346874 275.84686 33.503124Q275.84686 34.64375 275.1906 35.659374Q274.53436 36.675 273.3 37.2375Q272.08124 37.8 270.55 37.8Q268.6125 37.8 267.3 37.2375Q265.9875 36.659374 265.2375 35.51875Q264.4875 34.378124 264.45624 32.95625ZM284.1906 37.55L284.1906 23.2375L293.84686 23.2375L293.84686 24.925L286.08124 24.925L286.08124 29.3625L292.8 29.3625L292.8 31.05L286.08124 31.05L286.08124 37.55L284.1906 37.55ZM296.09686 37.55L296.09686 23.2375L301.01874 23.2375Q302.6906 23.2375 303.58124 23.440624Q304.8 23.721874 305.675 24.45625Q306.8 25.425 307.3625 26.909374Q307.925 28.39375 307.925 30.315624Q307.925 31.940624 307.55 33.20625Q307.175 34.45625 306.5656 35.284374Q305.97186 36.1125 305.26874 36.596874Q304.5656 37.065624 303.5656 37.315624Q302.5656 37.55 301.2531 37.55L296.09686 37.55ZM297.9875 35.8625L301.05 35.8625Q302.45624 35.8625 303.2531 35.596874Q304.0656 35.33125 304.55 34.846874Q305.22186 34.175 305.59686 33.05Q305.97186 31.909374 305.97186 30.284374Q305.97186 28.034374 305.2375 26.83125Q304.5031 25.628124 303.4406 25.221874Q302.6906 24.925 301.0031 24.925L297.9875 24.925L297.9875 35.8625ZM310.1281 37.55L310.1281 23.2375L316.47186 23.2375Q318.3781 23.2375 319.3781 23.628124Q320.3781 24.003124 320.97186 24.9875Q321.5656 25.95625 321.5656 27.14375Q321.5656 28.659374 320.58124 29.70625Q319.59686 30.753124 317.53436 31.034374Q318.28436 31.39375 318.675 31.753124Q319.5031 32.503124 320.2531 33.659374L322.7375 37.55L320.3625 37.55L318.45624 34.565624Q317.6281 33.284374 317.09686 32.596874Q316.5656 31.909374 316.1281 31.64375Q315.70624 31.3625 315.26874 31.253124Q314.9406 31.190624 314.22186 31.190624L312.01874 31.190624L312.01874 37.55L310.1281 37.55ZM312.01874 29.55L316.09686 29.55Q317.39374 29.55 318.1125 29.284374Q318.84686 29.01875 319.22186 28.425Q319.6125 27.83125 319.6125 27.14375Q319.6125 26.128124 318.8781 25.471874Q318.14374 24.815624 316.55 24.815624L312.01874 24.815624L312.01874 29.55Z" fill-rule="nonzero"/></svg>